<svg xmlns="http://www.w3.org/2000/svg" class="svg-icon" width="100%" height="100%" viewBox="0 0 24 24" stroke-width="2" stroke="#fff" fill="none" stroke-linecap="round" stroke-linejoin="round">
	<defs>
		<style>
			g {
			display: none;
			}
			g:target {
			display: flex;
			}
		</style>
	</defs>
	<g id="close-x">
		<path stroke="none" d="M0 0h24v24H0z" fill="none"/>
		<line x1="18" y1="6" x2="6" y2="18" />
		<line x1="6" y1="6" x2="18" y2="18" />
	</g>
	<g id="menu">
		<path stroke="none" d="M0 0h24v24H0z" fill="none"/>
		<line x1="4" y1="6" x2="20" y2="6" />
		<line x1="4" y1="12" x2="20" y2="12" />
		<line x1="4" y1="18" x2="20" y2="18" />
	</g>
	<g id="menu-open">
		<path stroke="none" d="M0 0h24v24H0z" fill="none"/>
		<line x1="4" y1="8" x2="20" y2="8" />
		<line x1="4" y1="16" x2="20" y2="16" />
	</g>
	<g id="dots-v">
		<path stroke="none" d="M0 0h24v24H0z" fill="none"/>
		<circle cx="12" cy="12" r="1" />
		<circle cx="12" cy="19" r="1" />
		<circle cx="12" cy="5" r="1" />
	</g>
	<g id="dots-h">
		<path stroke="none" d="M0 0h24v24H0z" fill="none"/>
		<circle cx="5" cy="12" r="1" />
		<circle cx="12" cy="12" r="1" />
		<circle cx="19" cy="12" r="1" />
	</g>
	<g id="dots-d">
		<path stroke="none" d="M0 0h24v24H0z" fill="none"/>
		<circle cx="7" cy="17" r="1" />
		<circle cx="12" cy="12" r="1" />
		<circle cx="17" cy="7" r="1" />
	</g>
	<g id="adjustments-v">
		<path stroke="none" d="M0 0h24v24H0z" fill="none"/>
		<circle cx="6" cy="10" r="2" />
		<line x1="6" y1="4" x2="6" y2="8" />
		<line x1="6" y1="12" x2="6" y2="20" />
		<circle cx="12" cy="16" r="2" />
		<line x1="12" y1="4" x2="12" y2="14" />
		<line x1="12" y1="18" x2="12" y2="20" />
		<circle cx="18" cy="7" r="2" />
		<line x1="18" y1="4" x2="18" y2="5" />
		<line x1="18" y1="9" x2="18" y2="20" />
	</g>
	<g id="grip-v">
		<path stroke="none" d="M0 0h24v24H0z" fill="none"/>
		<circle cx="9" cy="5" r="1" />
		<circle cx="9" cy="12" r="1" />
		<circle cx="9" cy="19" r="1" />
		<circle cx="15" cy="5" r="1" />
		<circle cx="15" cy="12" r="1" />
		<circle cx="15" cy="19" r="1" />
	</g>
	<g id="grip-h">
		<path stroke="none" d="M0 0h24v24H0z" fill="none"/>
		<circle cx="5" cy="9" r="1" />
		<circle cx="5" cy="15" r="1" />
		<circle cx="12" cy="9" r="1" />
		<circle cx="12" cy="15" r="1" />
		<circle cx="19" cy="9" r="1" />
		<circle cx="19" cy="15" r="1" />
	</g>
	<g id="stack">
		<path stroke="none" d="M0 0h24v24H0z" fill="none"/>
		<polyline points="12 4 4 8 12 12 20 8 12 4" />
		<polyline points="4 12 12 16 20 12" />
		<polyline points="4 16 12 20 20 16" />
	</g>
	<g id="filter">
		<polygon points="22 3 2 3 10 12.46 10 19 14 21 14 12.46 22 3"></polygon>
	</g>
	<g id="search">
		<circle cx="11" cy="11" r="8"></circle><line x1="21" y1="21" x2="16.65" y2="16.65"></line>
	</g>
	<g id="settings">
		<line x1="4" y1="21" x2="4" y2="14"></line><line x1="4" y1="10" x2="4" y2="3"></line><line x1="12" y1="21" x2="12" y2="12"></line><line x1="12" y1="8" x2="12" y2="3"></line><line x1="20" y1="21" x2="20" y2="16"></line><line x1="20" y1="12" x2="20" y2="3"></line><line x1="1" y1="14" x2="7" y2="14"></line><line x1="9" y1="8" x2="15" y2="8"></line><line x1="17" y1="16" x2="23" y2="16"></line>
	</g>
	<g id="alert">
		<path d="M10.29 3.86L1.82 18a2 2 0 0 0 1.71 3h16.94a2 2 0 0 0 1.71-3L13.71 3.86a2 2 0 0 0-3.42 0z"></path><line x1="12" y1="9" x2="12" y2="13"></line><line x1="12" y1="17" x2="12.01" y2="17"></line>
	</g>
	<g id="info">
		<circle cx="12" cy="12" r="10"></circle><line x1="12" y1="16" x2="12" y2="12"></line><line x1="12" y1="8" x2="12.01" y2="8"></line>
	</g>
	<g id="copy">
		<rect x="9" y="9" width="13" height="13" rx="2" ry="2"></rect><path d="M5 15H4a2 2 0 0 1-2-2V4a2 2 0 0 1 2-2h9a2 2 0 0 1 2 2v1"></path>
	</g>
	<g id="link">
		<path d="M10 13a5 5 0 0 0 7.54.54l3-3a5 5 0 0 0-7.07-7.07l-1.72 1.71"></path><path d="M14 11a5 5 0 0 0-7.54-.54l-3 3a5 5 0 0 0 7.07 7.07l1.71-1.71"></path>
	</g>
	<g id="share">
		<circle cx="18" cy="5" r="3"></circle><circle cx="6" cy="12" r="3"></circle><circle cx="18" cy="19" r="3"></circle><line x1="8.59" y1="13.51" x2="15.42" y2="17.49"></line><line x1="15.41" y1="6.51" x2="8.59" y2="10.49"></line>
	</g>
	<g id="discord" fill="#808080" stroke="none">
		<path d="M20.317 4.3698a19.7913 19.7913 0 00-4.8851-1.5152.0741.0741 0 00-.0785.0371c-.211.3753-.4447.8648-.6083 1.2495-1.8447-.2762-3.68-.2762-5.4868 0-.1636-.3933-.4058-.8742-.6177-1.2495a.077.077 0 00-.0785-.037 19.7363 19.7363 0 00-4.8852 1.515.0699.0699 0 00-.0321.0277C.5334 9.0458-.319 13.5799.0992 18.0578a.0824.0824 0 00.0312.0561c2.0528 1.5076 4.0413 2.4228 5.9929 3.0294a.0777.0777 0 00.0842-.0276c.4616-.6304.8731-1.2952 1.226-1.9942a.076.076 0 00-.0416-.1057c-.6528-.2476-1.2743-.5495-1.8722-.8923a.077.077 0 01-.0076-.1277c.1258-.0943.2517-.1923.3718-.2914a.0743.0743 0 01.0776-.0105c3.9278 1.7933 8.18 1.7933 12.0614 0a.0739.0739 0 01.0785.0095c.1202.099.246.1981.3728.2924a.077.077 0 01-.0066.1276 12.2986 12.2986 0 01-1.873.8914.0766.0766 0 00-.0407.1067c.3604.698.7719 1.3628 1.225 1.9932a.076.076 0 00.0842.0286c1.961-.6067 3.9495-1.5219 6.0023-3.0294a.077.077 0 00.0313-.0552c.5004-5.177-.8382-9.6739-3.5485-13.6604a.061.061 0 00-.0312-.0286zM8.02 15.3312c-1.1825 0-2.1569-1.0857-2.1569-2.419 0-1.3332.9555-2.4189 2.157-2.4189 1.2108 0 2.1757 1.0952 2.1568 2.419 0 1.3332-.9555 2.4189-2.1569 2.4189zm7.9748 0c-1.1825 0-2.1569-1.0857-2.1569-2.419 0-1.3332.9554-2.4189 2.1569-2.4189 1.2108 0 2.1757 1.0952 2.1568 2.419 0 1.3332-.946 2.4189-2.1568 2.4189Z"/>
	</g>
	<g id="ritual" fill="#808080" stroke="none">
		<path d="M20,0H4A1.14,1.14,0,0,0,2.9,1.14V23.62a.38.38,0,0,0,.57.33l8.34-4.72a.42.42,0,0,1,.38,0L20.53,24a.38.38,0,0,0,.57-.33V1.14A1.14,1.14,0,0,0,20,0Zm-.27,9.1a1.24,1.24,0,0,1-1.25,1.25H13.18a1.25,1.25,0,0,1,0-2.5h3.08A4.8,4.8,0,1,0,15,12.59a1.25,1.25,0,0,1,1.73,1.81,7.33,7.33,0,1,1,.51-10V3a1.25,1.25,0,0,1,2.5,0Z"/>
	</g>
	<g id="caret-down">
		<path stroke="none" d="M0 0h24v24H0z" fill="none"/>
  	<path d="M18 15l-6 -6l-6 6h12" transform="rotate(180 12 12)" />
	</g>
	<g id="forge" fill="#fff" stroke="none">
		<path d="M18,9.12l.42,1.46.77.44H16.13Zm.36-2.67-4.9,4.9L7.1,4.9,12,0,14.64,2.7,17.35,0l1.13,1.13L15.83,3.89ZM12,3.12,10.28,5l3.27,3.36,1.81-1.81ZM5.88,8.71H7.25V7l4,4H5.79l.5-.5v-1Zm1.19,4.22H21.51v1.38H20.8l-5.44,5.44v1.7h2.33V24H6.42V21.46H8.55V19.73H7.13s-1.67-1-2.86-1.87a6.51,6.51,0,0,1-1.78-2v-2.2H7.07ZM5,14.86A1.85,1.85,0,0,0,5.47,16a7.7,7.7,0,0,0,1.78,1.28h3.59v4.14h2.32V18.93l3.42-3.42v-.65Z"/>
	</g>
	<g id="quote">
		<path stroke="none" d="M0 0h24v24H0z" fill="none"/>
		<path d="M6 15h15" />
		<path d="M21 19h-15" />
		<path d="M15 11h6" />
		<path d="M21 7h-6" />
		<path d="M9 9h1a1 1 0 1 1 -1 1v-2.5a2 2 0 0 1 2 -2" />
		<path d="M3 9h1a1 1 0 1 1 -1 1v-2.5a2 2 0 0 1 2 -2" />
	</g>
	<g id="eye">
		<path stroke="none" d="M0 0h24v24H0z" fill="none"/>
		<circle cx="12" cy="12" r="2" />
		<path d="M22 12c-2.667 4.667 -6 7 -10 7s-7.333 -2.333 -10 -7c2.667 -4.667 6 -7 10 -7s7.333 2.333 10 7" />
	</g>
	<g id="eye-off">
		<path stroke="none" d="M0 0h24v24H0z" fill="none"/>
		<line x1="3" y1="3" x2="21" y2="21" />
		<path d="M10.584 10.587a2 2 0 0 0 2.828 2.83" />
		<path d="M9.363 5.365a9.466 9.466 0 0 1 2.637 -.365c4 0 7.333 2.333 10 7c-.778 1.361 -1.612 2.524 -2.503 3.488m-2.14 1.861c-1.631 1.1 -3.415 1.651 -5.357 1.651c-4 0 -7.333 -2.333 -10 -7c1.369 -2.395 2.913 -4.175 4.632 -5.341" />
	</g>
	<g id="eye-check">
		<path stroke="none" d="M0 0h24v24H0z" fill="none"/>
		<circle cx="12" cy="12" r="2" />
		<path d="M12 19c-4 0 -7.333 -2.333 -10 -7c2.667 -4.667 6 -7 10 -7s7.333 2.333 10 7c-.42 .736 -.858 1.414 -1.311 2.033" />
		<path d="M15 19l2 2l4 -4" />
	</g>
	<g id="download">
		<path stroke="none" d="M0 0h24v24H0z" fill="none"/>
		<path d="M4 17v2a2 2 0 0 0 2 2h12a2 2 0 0 0 2 -2v-2" />
		<polyline points="7 11 12 16 17 11" />
		<line x1="12" y1="4" x2="12" y2="16" />
	</g>
	<g id="save">
		<path stroke="none" d="M0 0h24v24H0z" fill="none"/>
		<path d="M6 4h10l4 4v10a2 2 0 0 1 -2 2h-12a2 2 0 0 1 -2 -2v-12a2 2 0 0 1 2 -2" />
		<circle cx="12" cy="14" r="2" />
		<polyline points="14 4 14 8 8 8 8 4" />
	</g>
	<g id="trash">
		<path stroke="none" d="M0 0h24v24H0z" fill="none"/>
		<path d="M4 7h16" />
		<path d="M5 7l1 12a2 2 0 0 0 2 2h8a2 2 0 0 0 2 -2l1 -12" />
		<path d="M9 7v-3a1 1 0 0 1 1 -1h4a1 1 0 0 1 1 1v3" />
		<path d="M10 12l4 4m0 -4l-4 4" />
	</g>
	<g id="upload">
		<path stroke="none" d="M0 0h24v24H0z" fill="none"/>
		<path d="M14 3v4a1 1 0 0 0 1 1h4" />
		<path d="M17 21h-10a2 2 0 0 1 -2 -2v-14a2 2 0 0 1 2 -2h7l5 5v11a2 2 0 0 1 -2 2z" />
		<line x1="12" y1="11" x2="12" y2="17" />
		<polyline points="9 14 12 11 15 14" />
	</g>
	<g id="play">
		<path stroke="none" d="M0 0h24v24H0z" fill="none"/>
		<path d="M7 4v16l13 -8z" />
	</g>
	<g id="stop">
		<path stroke="none" d="M0 0h24v24H0z" fill="none"/>
		<rect x="5" y="5" width="14" height="14" rx="2" />
	</g>
	<g id="step">
		<path stroke="none" d="M0 0h24v24H0z" fill="none"/>
		<path d="M4 5v14l12 -7z" />
		<line x1="20" y1="5" x2="20" y2="19" />
	</g>
	<g id="help">
		<path stroke="none" d="M0 0h24v24H0z" fill="none"/>
		<circle cx="12" cy="12" r="9" />
		<line x1="12" y1="17" x2="12" y2="17.01" />
		<path d="M12 13.5a1.5 1.5 0 0 1 1 -1.5a2.6 2.6 0 1 0 -3 -4" />
	</g>
	<g id="maximize">
		<path stroke="none" d="M0 0h24v24H0z" fill="none"/>
		<path d="M4 8v-2a2 2 0 0 1 2 -2h2" />
		<path d="M4 16v2a2 2 0 0 0 2 2h2" />
		<path d="M16 4h2a2 2 0 0 1 2 2v2" />
		<path d="M16 20h2a2 2 0 0 0 2 -2v-2" />
	</g>
	<g id="minimize">
		<path stroke="none" d="M0 0h24v24H0z" fill="none"/>
		<path d="M15 19v-2a2 2 0 0 1 2 -2h2" />
		<path d="M15 5v2a2 2 0 0 0 2 2h2" />
		<path d="M5 15h2a2 2 0 0 1 2 2v2" />
		<path d="M5 9h2a2 2 0 0 0 2 -2v-2" />
	</g>
</svg>