<svg xmlns="http://www.w3.org/2000/svg" class="svg-icon" width="100%" height="100%" viewBox="0 0 24 24" stroke-width="2" stroke="#fff" fill="none" stroke-linecap="round" stroke-linejoin="round">
	<defs>
		<style>
			g {
			display: none;
			}
			g:target {
			display: flex;
			}
		</style>
	</defs>
		<g id="close-x">
			<path stroke="none" d="M0 0h24v24H0z" fill="none"/>
			<line x1="18" y1="6" x2="6" y2="18" />
			<line x1="6" y1="6" x2="18" y2="18" />
		</g>
		<g id="menu">
			<path stroke="none" d="M0 0h24v24H0z" fill="none"/>
			<line x1="4" y1="6" x2="20" y2="6" />
			<line x1="4" y1="12" x2="20" y2="12" />
			<line x1="4" y1="18" x2="20" y2="18" />
		</g>
		<g id="dots-v">
			<path stroke="none" d="M0 0h24v24H0z" fill="none"/>
			<circle cx="12" cy="12" r="1" />
			<circle cx="12" cy="19" r="1" />
			<circle cx="12" cy="5" r="1" />
		</g>
		<g id="dots-h">
			<path stroke="none" d="M0 0h24v24H0z" fill="none"/>
			<circle cx="5" cy="12" r="1" />
			<circle cx="12" cy="12" r="1" />
			<circle cx="19" cy="12" r="1" />
		</g>
		<g id="dots-d">
			<path stroke="none" d="M0 0h24v24H0z" fill="none"/>
			<circle cx="7" cy="17" r="1" />
			<circle cx="12" cy="12" r="1" />
			<circle cx="17" cy="7" r="1" />
		</g>
		<g id="adjustments-v">
			<path stroke="none" d="M0 0h24v24H0z" fill="none"/>
			<circle cx="6" cy="10" r="2" />
			<line x1="6" y1="4" x2="6" y2="8" />
			<line x1="6" y1="12" x2="6" y2="20" />
			<circle cx="12" cy="16" r="2" />
			<line x1="12" y1="4" x2="12" y2="14" />
			<line x1="12" y1="18" x2="12" y2="20" />
			<circle cx="18" cy="7" r="2" />
			<line x1="18" y1="4" x2="18" y2="5" />
			<line x1="18" y1="9" x2="18" y2="20" />
		</g>
		<g id="grip-v">
			<path stroke="none" d="M0 0h24v24H0z" fill="none"/>
			<circle cx="9" cy="5" r="1" />
			<circle cx="9" cy="12" r="1" />
			<circle cx="9" cy="19" r="1" />
			<circle cx="15" cy="5" r="1" />
			<circle cx="15" cy="12" r="1" />
			<circle cx="15" cy="19" r="1" />
		</g>
		<g id="grip-h">
			<path stroke="none" d="M0 0h24v24H0z" fill="none"/>
			<circle cx="5" cy="9" r="1" />
			<circle cx="5" cy="15" r="1" />
			<circle cx="12" cy="9" r="1" />
			<circle cx="12" cy="15" r="1" />
			<circle cx="19" cy="9" r="1" />
			<circle cx="19" cy="15" r="1" />
		</g>
		<g id="stack">
			<path stroke="none" d="M0 0h24v24H0z" fill="none"/>
			<polyline points="12 4 4 8 12 12 20 8 12 4" />
			<polyline points="4 12 12 16 20 12" />
			<polyline points="4 16 12 20 20 16" />
		</g>
</svg>