<svg xmlns="http://www.w3.org/2000/svg" class="svg-icon" width="100%" height="100%" viewBox="0 0 32 32" stroke-width="2" stroke="none" fill="#fff" stroke-linecap="round" stroke-linejoin="round">
	<defs>
		<style>
			g {
				display: none;
			}
			g:target {
				display: flex;
			}
		</style>
		<svg id="unk">
			<path class="cls-1" d="M13.89,22.83a8.49,8.49,0,0,1-.35-1.41,10.05,10.05,0,0,1-.15-1.71,5.42,5.42,0,0,1,.53-2.4,9.62,9.62,0,0,1,1.32-2A20.71,20.71,0,0,1,17,13.51c.62-.58,1.19-1.15,1.72-1.69A8.88,8.88,0,0,0,20,10.08a3.93,3.93,0,0,0,.53-2,3.6,3.6,0,0,0-.39-1.71,3.64,3.64,0,0,0-1.07-1.21,5.09,5.09,0,0,0-1.56-.73,7.56,7.56,0,0,0-1.88-.23A8.77,8.77,0,0,0,9.46,7.09v-5A14.39,14.39,0,0,1,16.84,0a11.51,11.51,0,0,1,3.31.46A8.29,8.29,0,0,1,22.88,1.8,6.39,6.39,0,0,1,24.73,4a6.69,6.69,0,0,1,.67,3.08,7.53,7.53,0,0,1-.56,3,11.08,11.08,0,0,1-1.42,2.4,14.26,14.26,0,0,1-1.85,1.94c-.65.56-1.27,1.12-1.84,1.69a9.82,9.82,0,0,0-1.42,1.75,3.73,3.73,0,0,0-.56,2A6,6,0,0,0,18,21.55a11,11,0,0,0,.48,1.28ZM16.36,32a3.16,3.16,0,0,1-2.19-.85,2.73,2.73,0,0,1,0-4.07,3.17,3.17,0,0,1,4.36,0,2.73,2.73,0,0,1,0,4.07A3.16,3.16,0,0,1,16.36,32Z" transform="translate(-9.46 0)"/>
		</svg>
		
		<svg id="reach" fill="#fff" xmlns="http://www.w3.org/2000/svg" viewBox="0 0 253.21 253.2"><path id="sm_dia" data-name="sm dia" d="M126.6,66.56l12,12-12,12-12-12Z"/><path d="M35.92,45.59q2.27-2.54,4.7-5a121.59,121.59,0,0,1,172,0q2.43,2.41,4.7,5l3.54-3.54a126.58,126.58,0,0,0-188.44,0Z"/><path d="M230.13,53.73v9a121.62,121.62,0,1,1-207.06,0v-9a126.6,126.6,0,1,0,207.06,0Z"/><path id="noble" d="M128.1,141.8l97-97v35l-67,66v23l-23,11v3l23,13v13l-30-17h-3l-30,17v-13l23-13v-3l-23-11v-23l-67-66v-35l97,97Z"/><path id="chevron" d="M125.1,135.67l-30-32v-13l31,31h1l31-31v13l-30,32Z"/><polygon opacity="0.5" points="76.61 86.25 126.26 36.63 176.26 86.61 179.79 83.07 126.26 29.56 73.07 82.72 76.61 86.25"/><polygon opacity="0.5" points="97.38 188.76 35.72 127.13 52.24 110.61 48.67 107.1 28.64 127.13 92.86 191.32 97.38 188.76"/><polygon opacity="0.5" points="200.63 110.96 217.51 127.83 156.29 189.02 160.81 191.57 224.58 127.83 204.19 107.45 200.63 110.96"/><polygon opacity="0.5" points="140.66 204.65 126.96 218.34 113.01 204.39 108.5 206.95 126.96 225.41 145.17 207.2 140.66 204.65"/><polygon opacity="0.5" points="126.96 233.89 103.08 210.02 98.57 212.57 126.96 240.96 155.1 212.83 150.59 210.27 126.96 233.89"/><polygon opacity="0.5" points="56.25 57.12 83.12 57.12 65.29 74.94 68.83 78.47 126.26 21.07 184.04 78.83 187.57 75.29 169.39 57.12 196.97 57.12 196.97 65.9 201.97 60.9 201.97 52.12 164.39 52.12 126.26 14 88.12 52.12 51.25 52.12 51.25 60.9 56.25 65.9 56.25 57.12"/><path opacity="0.5" d="M44.39,102.89l-3.56-3.5L13.07,127.13l38.17,38.15v37.56H90.09V197L20.14,127.13Zm11.85,67.39,27.58,27.56H56.24Z"/><path opacity="0.5" d="M212,99.74l-3.56,3.5,24.6,24.59-69.95,69.92v5.09H202V166l38.17-38.15ZM197,197.84H170.09L197,171Z"/></svg>
	</defs>
		<g id="default">
			<use href="#unk"/>
		</g>
		<g id="1">
			<use href="#reach"/>
		</g>
		<g id="2">
			<use href="#unk"/>
		</g>
		<g id="3">
			<use href="#unk"/>
		</g>
		<g id="4">
			<use href="#unk"/>
		</g>
</svg>