<svg xmlns="http://www.w3.org/2000/svg" class="svg-icon" width="100%" height="100%" viewBox="0 0 32 32" stroke-width="2" stroke="none" fill="#fff" stroke-linecap="round" stroke-linejoin="round">
	<defs>
		<style>
			g {
				display: none;
			}
			g:target {
				display: flex;
			}
		</style>
		<svg id="unk">
			<path class="cls-1" d="M13.89,22.83a8.49,8.49,0,0,1-.35-1.41,10.05,10.05,0,0,1-.15-1.71,5.42,5.42,0,0,1,.53-2.4,9.62,9.62,0,0,1,1.32-2A20.71,20.71,0,0,1,17,13.51c.62-.58,1.19-1.15,1.72-1.69A8.88,8.88,0,0,0,20,10.08a3.93,3.93,0,0,0,.53-2,3.6,3.6,0,0,0-.39-1.71,3.64,3.64,0,0,0-1.07-1.21,5.09,5.09,0,0,0-1.56-.73,7.56,7.56,0,0,0-1.88-.23A8.77,8.77,0,0,0,9.46,7.09v-5A14.39,14.39,0,0,1,16.84,0a11.51,11.51,0,0,1,3.31.46A8.29,8.29,0,0,1,22.88,1.8,6.39,6.39,0,0,1,24.73,4a6.69,6.69,0,0,1,.67,3.08,7.53,7.53,0,0,1-.56,3,11.08,11.08,0,0,1-1.42,2.4,14.26,14.26,0,0,1-1.85,1.94c-.65.56-1.27,1.12-1.84,1.69a9.82,9.82,0,0,0-1.42,1.75,3.73,3.73,0,0,0-.56,2A6,6,0,0,0,18,21.55a11,11,0,0,0,.48,1.28ZM16.36,32a3.16,3.16,0,0,1-2.19-.85,2.73,2.73,0,0,1,0-4.07,3.17,3.17,0,0,1,4.36,0,2.73,2.73,0,0,1,0,4.07A3.16,3.16,0,0,1,16.36,32Z"/>
		</svg>
		
		<svg id="reach" fill="#fff" xmlns="http://www.w3.org/2000/svg" viewBox="0 0 253.21 253.2"><path id="sm_dia" data-name="sm dia" d="M126.6,66.56l12,12-12,12-12-12Z"/><path d="M35.92,45.59q2.27-2.54,4.7-5a121.59,121.59,0,0,1,172,0q2.43,2.41,4.7,5l3.54-3.54a126.58,126.58,0,0,0-188.44,0Z"/><path d="M230.13,53.73v9a121.62,121.62,0,1,1-207.06,0v-9a126.6,126.6,0,1,0,207.06,0Z"/><path id="noble" d="M128.1,141.8l97-97v35l-67,66v23l-23,11v3l23,13v13l-30-17h-3l-30,17v-13l23-13v-3l-23-11v-23l-67-66v-35l97,97Z"/><path id="chevron" d="M125.1,135.67l-30-32v-13l31,31h1l31-31v13l-30,32Z"/><polygon opacity="0.5" points="76.61 86.25 126.26 36.63 176.26 86.61 179.79 83.07 126.26 29.56 73.07 82.72 76.61 86.25"/><polygon opacity="0.5" points="97.38 188.76 35.72 127.13 52.24 110.61 48.67 107.1 28.64 127.13 92.86 191.32 97.38 188.76"/><polygon opacity="0.5" points="200.63 110.96 217.51 127.83 156.29 189.02 160.81 191.57 224.58 127.83 204.19 107.45 200.63 110.96"/><polygon opacity="0.5" points="140.66 204.65 126.96 218.34 113.01 204.39 108.5 206.95 126.96 225.41 145.17 207.2 140.66 204.65"/><polygon opacity="0.5" points="126.96 233.89 103.08 210.02 98.57 212.57 126.96 240.96 155.1 212.83 150.59 210.27 126.96 233.89"/><polygon opacity="0.5" points="56.25 57.12 83.12 57.12 65.29 74.94 68.83 78.47 126.26 21.07 184.04 78.83 187.57 75.29 169.39 57.12 196.97 57.12 196.97 65.9 201.97 60.9 201.97 52.12 164.39 52.12 126.26 14 88.12 52.12 51.25 52.12 51.25 60.9 56.25 65.9 56.25 57.12"/><path opacity="0.5" d="M44.39,102.89l-3.56-3.5L13.07,127.13l38.17,38.15v37.56H90.09V197L20.14,127.13Zm11.85,67.39,27.58,27.56H56.24Z"/><path opacity="0.5" d="M212,99.74l-3.56,3.5,24.6,24.59-69.95,69.92v5.09H202V166l38.17-38.15ZM197,197.84H170.09L197,171Z"/></svg>

		<svg id="season2" version="1.1" xmlns="http://www.w3.org/2000/svg" xmlns:xlink="http://www.w3.org/1999/xlink" x="0px" y="0px"
			viewBox="0 0 24 24" xml:space="preserve">
					<path class="st0" d="M19.4,7c-0.1,0-0.1-0.1-0.2-0.1c-0.1,0.3-0.1,0.6-0.4,0.7c-0.5,0.1-0.7,0-1-0.2c-0.3,0.2-0.7,0.3-0.8,0.7
						c0,0-0.1,0-0.1,0.1c-0.4-1.1,0.5-2,0.8-2.7c0.9-0.6,0.9-3-0.2-3.6c-0.9,1-2.9,3.2-4.3,3.6v0.1c0.2,0.2,0.5,0.1,0.8,0.1
						c0,0,0,0.1,0.1,0.1c0,0.1,0,0.1-0.1,0.2c-0.4,0.1-1.9,0.4-2.1,0.3h-0.1V6.2C12,6,12.2,6,12.6,5.9V5.8c0,0-0.1-0.1-0.1-0.1
						c-0.2,0-0.5,0-0.7,0.1c-1.3,1.3-2.6,2.8-4.2,3.9c-0.9,0.6-2.3,1-2.9,1.9c0.7,1,2.6,1.1,4.2,1.2c0,0.1,0.1,0.1,0.1,0.2
						c-0.1,0.3-0.3,0.5-0.4,0.8c-0.4,0.3-1.9,0.5-2.5,0c-0.8,0.6-1.1,1.6-2.2,2c-0.1,0.3,0,0.2,0.1,0.6c-0.7,0.4-1.2,0.7-2.1,0.9
						c0,0.1,0,0.1-0.1,0.2c1,0.1,1.5,0.5,2.7,0.5c0,0,0,0.1,0.1,0.1c-0.1,0.9-0.7,1.6-1.2,2.1c0.4,0.3,1.1,0.2,1.6,0.1
						c0,0,0,0.1,0.1,0.1c-0.1,0.1-0.1,0.2-0.2,0.2C5,20.8,5,20.8,5.3,20.8c0.3,0.4,0,1-0.2,1.4C5,22.2,5,22.3,4.9,22.3v0.1
						c0.9-0.1,1.3-0.6,2.1-0.7c0,0.2,0.1,0.4,0.1,0.6v0.1c0.2-0.2,0.4-0.3,0.6-0.5h0.1c0.1,0.3,0,1.1,0,1.7h0.1c0.5-0.4,1.1-0.7,1.7-1
						c0,0,0.1,0,0.1,0.1c0,0.2,0,0.4,0.1,0.6c0,0,0.1,0,0.1,0.1c0.4-0.2,0.7-0.4,1.1-0.6c0.1-0.1,0.1-0.1,0.2-0.1h0.1
						c-0.1,0.2-0.2,0.2-0.3,0.3v0.2c0,0,0,0,0.1,0.1c0.4-0.1,0.7-0.4,0.9-0.8c0.2-0.2,0.4-0.3,0.6-0.5c0.2,0.5,0.2,1.2,0.1,1.8
						c0.9-0.3,1.1-1.3,1.9-1.6v0.7c0,0,0.1,0,0.1,0.1c0.5-0.9,0.5-2.3,0.9-3.4c0.3-0.6,0.5-1.2,0.8-1.7c0.1-0.5,0.2-3.1,0.2-3.4
						c-0.1-0.5-0.3-1.2-0.1-1.7c0.3-1,2.7-3.3,3.5-3.9V7.1C19.7,7.2,19.6,7.3,19.4,7z M17.5,2.4h0.2c0.1,0.4,0.1,0.8,0.2,1.2
						c-0.4-0.1-0.7-0.2-1.1-0.2c0,0-0.1,0-0.1-0.1C16.8,2.9,17.2,2.8,17.5,2.4z M13.2,6.5c0.1,0,0.2,0,0.4,0.1h0.1v0.2
						c-0.3,0.3-0.6,0.5-0.9,0.8H12C12.3,7.2,12.7,6.9,13.2,6.5z M10.3,8.1c0.6,0,1,0.1,1.5-0.3C12,7.9,11,8.6,10.9,8.7
						c-0.1,0-0.2,0-0.3-0.1L10.3,8.1L10.3,8.1z M8.3,10.6c-0.4-0.2-1.2,0.2-2,0.2c0,0,0-0.1-0.1-0.1c0.8-0.5,1.7-1.1,2.5-1.6
						c0.1,0,0.2,0,0.3,0.1c0.2,0.2,0.4,1.8,0.2,2.2v0.1C9,11.5,8.5,10.9,8.3,10.6z M15.4,18.7v0.2c-0.2-0.1-0.2-0.1-0.3-0.2
						c-0.4,0.3-1.2,2.2-1.4,2.8h-0.1l-0.2-0.7c0-0.1,0-0.1-0.1-0.2c-0.4,0.1-0.4,0.4-1,0.4c-0.1,0.4-0.2,0.6-0.5,0.7
						c-0.1-0.4-0.2-0.8-0.4-1.2v-0.1h-0.1c-0.1,0.2-0.2,0.4-0.2,0.6c-0.2-0.1-0.4-0.2-0.6-0.2c-0.4,0.3-0.8,0.5-1.2,0.8
						c-0.2-0.3-0.2-0.6-0.1-1.1H9.2c-0.3,0.2-0.3,0.4-0.7,0.6c0,0-0.1,0-0.1-0.1c0-0.3,0-0.6-0.1-0.9H8.3c-0.3,0.2-0.4,0.4-0.8,0.4
						c-0.1-0.9-0.5-0.9-0.6-1.7c-0.4,0-0.7,0.1-0.9-0.3c-0.3,0.1-0.5,0.2-0.8,0.4c0,0-0.1,0-0.1-0.1c0-0.3,0.9-1.9,1.3-2
						c0,0.3,0,0.3-0.1,0.6c0.5,0.1,0.4,0.1,0.4,0.6c0,0,0.1,0.1,0.1,0.1c0.3-0.1,0.6-0.2,0.9-0.2c0,0.4,0,0.7,0.1,1.1h0.1
						c0.1-0.1,0.2-0.2,0.2-0.3c0.1-0.1,0.2-0.1,0.2-0.2h0.1c0,0.3,0,0.6,0.1,0.9c0.1,0,0.2,0,0.2,0.1c0.2,0,0.3-0.1,0.6-0.2
						c-0.1,0.2-0.2,0.3-0.2,0.5v0.1c0.1,0,0.2,0,0.2,0.1c0.1-0.3,0.2-0.4,0.5-0.6L9.9,19c0.1,0.2,0.1,0.3,0.1,0.6c0,0,0.1,0,0.1,0.1
						c0.2-0.4,0.4-0.7,0.6-1.1c0.1,0,0.1-0.1,0.2-0.1c0.2,0.7,0.1,0.9,0.9,1.2c0.1-0.6,0.2-1.1,0.2-1.7c0,0,0.1-0.1,0.1-0.1
						c0.1,0.2,0.2,0.4,0.2,0.6c0,0,0.1,0,0.1,0.1c0.2-0.5,0.3-1,0.5-1.5c0.3,0.1,0.2,0.1,0.3,0.3c0,0,0.1,0,0.1,0.1
						c0.5-1.2,1-2.3,1.6-3.5c0.5,0.5,1,1.6,0.9,2.7C15.3,16.3,15.2,18.3,15.4,18.7z M14.7,13.1C14.4,13,14.4,13,14.1,13
						c-0.1,0.3-0.1,0.6-0.2,0.9c-0.1,0.2,0,0.1-0.2,0.2c-0.1-0.3-0.1-0.3-0.4-0.4c0,0.7-0.7,2-1.2,2.4H12c0-0.3-0.1-0.7-0.1-1
						c-0.2-0.1-0.2-0.1-0.6-0.1c0-0.4-0.1-0.7-0.1-1.1h-0.2c0,0.1-0.1,0.2-0.1,0.3c-0.2-0.1-0.2-0.4-0.3-0.7c0-0.1-0.1-0.1-0.1-0.2
						c-0.1,0.1-0.2,0.1-0.4,0.2c0-0.3,0-0.6-0.1-0.9c0.5-0.1,0.9-0.3,1.1-0.8c0,0,0.1,0,0.1-0.1h0.1c0.1,0.5,0,0.8,0.6,0.9
						c0-0.1,0.1-0.2,0.1-0.4c0.1,0,0.2-0.1,0.4-0.1c0,0.1,0.1,0.2,0.1,0.2l-0.2,0.5v0.1c0.5-0.2,0.5-0.6,0.9-0.8
						c0.1,0.1,0.2,0.2,0.3,0.4c0.2-0.4,0.5-0.7,0.8-1.1c0.1,0,0.1,0,0.2-0.1c0,0.2,0,0.4-0.1,0.6c0.4-0.1,2.7-1.4,3-1.7h0.2
						c0,0.1,0.1,0.1,0.1,0.2C16.8,11.6,15.3,11.7,14.7,13.1z M4,18.5H3.7C3.4,18.7,3.2,18.8,3,19c0,0.1-0.1,0.2-0.1,0.3h0.1
						c0.3-0.2,0.7-0.4,1-0.6C3.9,18.6,4,18.6,4,18.5z M11.6,23.7L11.6,23.7c0,0.1,0.1,0.1,0.1,0.1c0.2-0.2,0.3-0.4,0.2-0.6
						C11.9,23.4,11.8,23.5,11.6,23.7z"/>
			<path d="M1.8,11.8c0-5.6,4.5-10.1,10.1-10.1c1.5,0,2.9,0.3,4.2,0.9c0.1-0.1,0.2-0.3,0.4-0.4c-1.4-0.7-2.9-1-4.5-1
				C6,1.2,1.3,6,1.3,11.8c0,1.7,0.4,3.2,1.1,4.6c0.2-0.1,0.3-0.1,0.5-0.2C2.2,14.9,1.8,13.4,1.8,11.8z"/>
			<path d="M22.5,11.8c0-3.1-1.4-5.9-3.5-7.9c0,0.2,0,0.4-0.1,0.6C20.8,6.4,22,9,22,11.8c0,4.2-2.5,7.8-6.2,9.3
				c0,0.2-0.1,0.4-0.1,0.6C19.7,20.2,22.5,16.3,22.5,11.8z"/>
			<path d="M19.6,21.3c0.3,0-1.1-1.1-0.9-1.8c0.3-0.7-1.1,0.9-1.1,0.9S19.3,21.4,19.6,21.3z"/>
			<path d="M17.3,22.7c-0.2,0.2-2.2-0.8-1.3-1.4c0.6-0.4,1-0.7,0.7-0.4C16.4,21.3,17.5,22.5,17.3,22.7z"/>
			<path d="M19.8,18.5c0.4-0.3,1.7,1.4,2,1.2c0.3-0.2-1.4-1.9-1.2-2.2C20.8,17.1,19.4,18.8,19.8,18.5z"/>
			<path d="M22.8,16.6c0,0.2-1.1-0.8-1.3-0.6c-0.3,0.2,0.4-1.3,0.4-1.3S22.8,16.4,22.8,16.6z"/>
			<path d="M9.1,1.8c-0.7,0.4-2-0.9-2.3-0.9S8,2.4,7.6,2.4C7.3,2.4,9.9,1.4,9.1,1.8z"/>
			<path d="M6.3,3c-1,0-2.6-1.2-2.7-1.1C3.5,2.1,5,3.6,5,4L6.3,3z"/>
			<path d="M4,5C3.3,5.1,2.4,4,1.9,4.2s1.5,1.6,1.2,2C3,6.5,4.4,4.9,4,5z"/>
			<path d="M1,6.5c0.2,0,1,0.7,1.5,1L2.1,8.5C1.6,7.7,0.8,6.5,1,6.5z"/>
		</svg>
		<svg id="season3" xmlns="http://www.w3.org/2000/svg" viewBox="0 0 32 32"><path d="M20.85,21.62l-3.06-3.18.18-.21,1,.95.43-.07.42.38,0,.19,1.08.76-.78-1-1.25-1,.09-.14-.52-.52.11-.58,1-.08-.89-.2-.25.11L20,15.66l-.54-.48-1.1.83,2.15-2.24-2.42,1.47.89-.77-.19-.7-.7.35L18,14.05l-.6.52.08-.15.91-1.64-1.31,1.64.65-1.06L17.56,13l.44-.82-.21,0L17,13.68h-.16l-.26.38v-1l-.3.87-.1.12.1-1.67-.16-.16L16,10.76l-.05,2-.17-.06v.43l-.17.16.08.8-.39-.72v.69l-1.26-1.92.36.88-.18.35.65,1.11-1.22-1.62,1,1.57L13,13.68l-.12.79,1,.74L11,13.57l2.58,2.07-.07.34-1-.81-.61.52,1.51,1.23-2.48.86.52.45,1.93-.75.22.3-2.45,2.57h.17l1.19-1.21.5,0,1-.8h.13L12,20.85l2.13-2.22.32.05-.66,1.49.06.33-.06.55.9-2.11-1.11,3.38,1.11-2.57.47,1.66.59-.3V19.18l.09.17.1,3h.27l.13-3.27.09,2.08.63.32.33-1.65,1.19,2.52-1.32-3.6L18.31,21l-.19-.51.13-.27-.72-1.53.09-.06ZM16,18.91a2.28,2.28,0,1,1,2.27-2.28A2.28,2.28,0,0,1,16,18.91Z"/><path d="M13.12,27.89l-12-17.38,2.24-.82c-.08.18-.18.36-.26.55l-1.31.49L13.74,28ZM28.41,13.36,16,31.25l-.77-1.11c-.19,0-.38,0-.56-.06L16,32,28.51,14C28.48,13.76,28.45,13.56,28.41,13.36ZM25.11,9l5.13,1.76-.43.62c.05.17.12.33.17.51l.94-1.36-5.7-1.94ZM7.79,8,6.1,8.66l-.41.61L8,8.44l-.12-.15Z"/><polygon points="10.68 22.66 10.68 10.62 21.34 10.62 21.34 22.58 23.11 20.03 23.11 8.32 22.06 7.27 9.96 7.27 8.9 8.32 8.9 20.1 10.68 22.66"/><path d="M7.61,11.14l-.29-.38.14-.58L7.78,10V9.62l.13-.24L8.33,9l0-.36-.27-.47V7.71l.34-.29.26-.15-.2-.42.17-.51.48-.4.1-.28.25-.27.37.17,0,.3.32.09.38.45.28.42.47-.06.31-.23-.1-.3L11.79,6,12,5.71l.4-.32.78-.14-.13-.43.17-.48V4l.22-.47-.06-.33.31-.07.1-.39-.17-.28V2.07l.41-.48.28-.45h.22l.3.44.33.49.46.16.59.21.13.4.23.31.29.44v.26l.38.12.36-.16.28-.37h.25l.58.07.77.17.45.48.24.49.42.25H21l.41.18.16.48.33.5.45.37.57.27.29.57.06.27.27.43.53.5-.12.4.12.18.38.15.21.2.22.48-.22.51.05.3-.21.14v.34l-.34.12.29.11L25,12l-.12.17-1.15-.06-.28.13h-.06v-4L22.17,7H9.85L8.63,8.21v3.21H8l-.2.09Zm.55.5H7.82l-.26.28v.28l.35.15v.39l.25.27.1.41h.37V11.59h0Zm1.7-6.87.34.13.78.66.47-.21V5.08l.19-.29.29,0,.67-.53.21-.33V3.14L13,2.93l0-.63.11-.2V1L12.45.55,11.9.28h-.62L11,0l-.36.46-.47.2L10,1.15l.07.46L10,2.77l-.25.37-.11.62.26.33ZM7,13.41v.74l.26.27.29-.22h.66L8.52,14l.11,0v-.34H8.58L7.9,13.5l-.52-.22ZM24.09,7.73v.44l.27.29.39.59.16-.19L25,8.17,24.6,7.6h-.42Zm-.58-2.17.4-.1.26-.34.3-.2-.13-1.18-.11-.37-.56-.17-.36-.36-.51.47-.08.28.08.31-.15.35v.63L22.9,5ZM7.32,25.28l-.1-.17-.75.05-.09.24-.22.15-.2.29v.32L5.88,27l.3.36.35.52L7,27.66l.37-.43v-.41l.26-.23.12-.28-.45-.44ZM25.8,19.36l-.45.19v.26l-.08.41.11.36.3.27.22-.18v-.22l.21-.31v-.32l-.22-.23ZM6.74,12.91v-.47L7,12.21l.16-.34-.4-.43L6.57,11l-.31-.2-.41.06-.44.64,0,.91.31.66L6,13.5Zm18.53,4,.42-.24-.18-.37-.57-.09,0-.26-.17-.13-.13-.09-.29-.45L24,15.11l-.39.08-.18.25v4.42l.09-.06.09-.28,1.71-2.24Zm.42-2.31L25,14.26l.23-.49.05-.71-.5-.65-1-.06-.43.15v2.42l.51,0,.35.1.5.41.3.13.07.25.41.25.32-.19h.27l.16-.54L26.2,15ZM8.63,14.25l-.2,0L8,14.36l-.47.15-.64.22L6.78,16v1.22l.69.7,1.14,1.69h0ZM26.9,12.63l-.35-.13h-.28l-.36.36-.1.34-.18.22.18.43h-.12l-.06.29.27.14-.08.14.16.15.29.07.48-.22.07-.43.31-.4.06-.31Z"/><path d="M2.87,15.85a13.29,13.29,0,0,0,3.32,8.79H6.1L6,25a13.7,13.7,0,0,1-3.51-9.17,14.12,14.12,0,0,1,.18-2.17L3,14.2A14.91,14.91,0,0,0,2.87,15.85ZM22.2,3.92l0-.07-.07-.27,0-.14a13.6,13.6,0,0,0-5.51-1.35l.13.44A13.15,13.15,0,0,1,22.2,3.92ZM27.56,8.8l.62.21A13.67,13.67,0,0,0,25,5.22l-.38.25A13.56,13.56,0,0,1,27.56,8.8Zm1,1.93a13.23,13.23,0,0,1,1.05,5.12A13.37,13.37,0,0,1,18.73,29l-.34.49a13.74,13.74,0,0,0,10.7-18.55ZM9.32,4.27l-.18-.22a13.8,13.8,0,0,0-6.05,7.66l.32.46A13.44,13.44,0,0,1,9.32,4.44Zm7.11,25.36.31-.44-.51,0a13.29,13.29,0,0,1-8-2.7L8,26.92H8a13.76,13.76,0,0,0,8.21,2.72Z"/><path d="M3.52,15.85A12.62,12.62,0,0,0,7,24.59l-.28,0A12.88,12.88,0,0,1,3.3,15.85c0-.37,0-.73.07-1.09l.2.28C3.55,15.31,3.52,15.58,3.52,15.85ZM22.11,4.59V4.35a12.92,12.92,0,0,0-5-1.38l.15.22A12.62,12.62,0,0,1,22.11,4.59Zm4.42,3.86.35.12A13.17,13.17,0,0,0,24.33,5.8l-.1.14h-.05A12.66,12.66,0,0,1,26.53,8.45ZM8.67,5.62l.09-.24.16-.18a13,13,0,0,0-5.2,7.42l.16.23A12.77,12.77,0,0,1,8.24,6Zm19,4.83a12.54,12.54,0,0,1,1.22,5.4,12.71,12.71,0,0,1-9.67,12.33l-.18.28A12.89,12.89,0,0,0,28,10.54ZM17.05,28.74l.16-.22c-.33,0-.65.05-1,.05a12.66,12.66,0,0,1-8.38-3.18l0,.26a12.83,12.83,0,0,0,8.41,3.13C16.51,28.78,16.78,28.76,17.05,28.74Z"/><path d="M16,13.77a2.86,2.86,0,1,0,2.86,2.86A2.87,2.87,0,0,0,16,13.77Zm0,5a2.16,2.16,0,1,1,2.16-2.16A2.16,2.16,0,0,1,16,18.79Z"/><path d="M16,17.29a.66.66,0,0,1-.65-.66A.65.65,0,0,1,16,16a.66.66,0,0,1,.66.65A.67.67,0,0,1,16,17.29Z"/></svg>
	</defs>
		<g id="default">
			<use href="#unk"/>
		</g>
		<g id="1">
			<use href="#reach"/>
		</g>
		<g id="2">
			<use href="#season2"/>
		</g>
		<g id="3">
			<use href="#season3"/>
		</g>
		<g id="4">
			<use href="#unk"/>
		</g>
</svg>