<svg xmlns="http://www.w3.org/2000/svg" class="svg-icon" width="100%" height="32px" viewBox="0 0 32 32" stroke-width="2" stroke="none" fill="#fff" stroke-linecap="round" stroke-linejoin="round" preserveAspectRatio="xMidYMin">
	<defs>
		<style>
			g {
			display: none;
			}
			g:target {
			display: flex;
			}
		</style>
		<svg id="attachment">
			<path class="cls-1" d="M25.42,14.1l-2.3,2.59h2l-6.55,7.38h-11l3.51-3.59H7L0,27.59H20L32,14.1Z" /><path class="cls-1" d="M14.79,4.11,7.58,11.49v6h11l6.56-7.37v-6Zm.7,1.38h6.33l-4.41,5H10.6Z"/><path d="M15.72,20.19V17.55H14.33v2.64H11.52L15,24.59l3.52-4.4Z"/>
		</svg>
		<svg id="coating">
			<path d="M24.24,9.38c6.2-6.11,5.07-7.73-1.75-2.09s-8.12,7.23-10.17,9c-1.49,1.29-2.26,2-.75,3.31s2.51.73,4.25-.89C18.78,16,24.24,9.38,24.24,9.38Z"/><path d="M11.08,22.71c0-3.08-2.17-2.64-3.26-2.25-1.66.59-4.16,3.08-4.5,4.75a6.6,6.6,0,0,0,0,2.83s1.34-2.41,2.84-2.25S11.08,26.63,11.08,22.71Z"/><path d="M22.32,4.86c-.5-.65-4-1.65-6.29-1.65A11.13,11.13,0,0,0,5.49,9.71c-1,2.15-.32,5.29-.32,5.29S5.16,6,16,6c1.63,0,3.24.73,4.18.75S22.82,5.51,22.32,4.86Zm2.22,6.55c-.22.88.54,2.32.54,3.59a9,9,0,0,1-9,9.05c-1.05,0-2.14-1-3-.52s-2,3.24-2,4.25,3.22,1,5,1A12.79,12.79,0,0,0,28.82,16c0-2.65-1.45-7.14-2.18-7.15S24.75,10.53,24.54,11.41Z"/>
		</svg>
		<svg id="vehicle">
			<path d="M16,30A14,14,0,1,1,30,16,14,14,0,0,1,16,30Zm-1.29-4.56.64-6.55a3,3,0,0,1-2.29-2.48L6.46,16v0A9.53,9.53,0,0,0,14.71,25.44ZM16,6.46a9.54,9.54,0,0,0-9.14,6.82l6.45,1.47a3,3,0,0,1,5.4,0l6.44-1.47A9.54,9.54,0,0,0,16,6.46ZM25.54,16l-6.61.46a3,3,0,0,1-2.24,2.45l.61,6.56A9.54,9.54,0,0,0,25.54,16Z"/>
		</svg>
		<svg id="weapon">
			<path class="cls-1" d="M12.49,31.44h7V29.13h-7ZM18.92,11.1C18.51,8.19,17.75.56,16.47.56h-.81c-1.31,0-2.09,7.6-2.53,10.53a2,2,0,0,1-.62,1.13l0,12.25v2.31h7V24.47l0-12.25A2,2,0,0,1,18.92,11.1ZM23,31.44h7V29.13H23Zm6.43-15.67C29,12.85,28.24,6.39,27,6.39h-.81c-1.31,0-2.09,6.43-2.52,9.36A2,2,0,0,1,23,16.88l0,7.59v2.31h7V24.47l0-7.59A2,2,0,0,1,29.41,15.77ZM2,31.44H9V29.13H2ZM8.43,15.77C8,12.85,7.26,6.39,6,6.39H5.17c-1.31,0-2.1,6.43-2.53,9.36A2,2,0,0,1,2,16.88l0,7.59v2.31H9V24.47l0-7.59A1.93,1.93,0,0,1,8.43,15.77Z"/>
		</svg>
		<svg id="spartan">
			<path d="M22.05,31c2,.08-.42-2.24-.57-3,.44-.52.16-1,0-1.61a6.49,6.49,0,0,1-.15-3A25.42,25.42,0,0,1,21,20.27c-.64-.82-.12-1.25-.39-2.5-.26-1.05-.58-3.88-1.4-4,.46-.3.26-1.74-.47-1.45a1.7,1.7,0,0,0-.34-.73,2.48,2.48,0,0,0,.76-2.49c.31.21,1.51,1.29,1.95,1.26-.12,1.12,1.24,2.18,1.21,3.25-1.09,1.44,1,2.71,2,1.51.2-.55-.46-1.62-.36-2.05-.36-1,0-3.77-1.49-3.79,0,0-.23-.26-.28-.23,0-.29.11-.23-.17-.55s-.11-.45-.39-.63c.28-.84-1.11-2.29-1.83-2.57a1,1,0,0,0-.34-1c-.25,0-1.07-.41-1.22,0s-.23,1-.72.93c0-.06-.13-.31-.24-.22.23-.21.44-1,.61-1.2-.1-.21-.43-.62-.33-.88l.12-.07c.41-2.34-4.25-2.35-3.82,0,.35.41-.57.93-.16,1.3-.29.17-.22.88-.21,1.12-.16-.08-.82.74-.75.78l-.12,0c0-.42-.42-.32-.81-.26-1,.2-1.84,2.69-1.56,3.51-1.12.58-1.78,3-2,4l.16.17c-.22.34-1.11,1.86-.31,2.08,1.37.3,1.57-.49,1.33-1.64h.22c.44-1.36,1.85-2,1.69-3.28a1.85,1.85,0,0,0,.91-.7c-.19.28.4,1.3.49,1.46l.33-.06c.27.45.16.63.1,1.07-.77,0-.75,1.14-.36,1.55-.93.86-2.26,5.6-1.91,6.47,0,0-.12.73-.12.77l-.18-.05a2.15,2.15,0,0,0-.08,2.29,15.68,15.68,0,0,1-.29,3.54l.1.06c0,.13-1.12,1.31-1,1.4a1.37,1.37,0,0,0-.86,1.3c.8-.13,3.91.66,4.13-.34.24-.14.38-1.87-.15-1.68v-.19c.42-.11.12-1.18.34-1.77.49-.86,1.39-3,.24-3.46a2.34,2.34,0,0,1,0-.87c.35.25.84-1.19,1-1.27-.13-.55.38-1.2.53-1.69.38-.73.74-1.55,1.63-1.81.52.3.52,1.63,1.13,2-.23.51.49,1.64.73,2.05l.18-.13a5.17,5.17,0,0,1,.19,1.3l-.21,0c-.83,1.36.41,3.32.58,4.41.11.74,0,.93.06,1.38a1.39,1.39,0,0,1,.22.94c-.3.12-.33,1.45-.13,1.65C19.06,31.06,21.22,30.94,22.05,31Z"/>
		</svg>
		<svg id="shoulder">
			<path d="M30.87,10.36c-.3-2.14-1-5.58-1-5.58S27.65,1.25,25.16,1a87.48,87.48,0,0,0-14.7.66c-4.27,1-7.41,4.8-7.41,4.8l-1.35,0-.7,7,1.83,2.31A13.81,13.81,0,0,1,6,12.32a10.85,10.85,0,0,1,2.62-1.48l4.75,4.36s3.19-.39,6.89-.48,6.11-.17,6.11-.17a32.94,32.94,0,0,1,1.48-3,14,14,0,0,1,1-1.44A6.17,6.17,0,0,1,30.13,12a11.78,11.78,0,0,1,.7,2.45A14.1,14.1,0,0,0,30.87,10.36Z"/><path class="cls-1" d="M28.73,14.12c-.24.51-.45,1-.56,1.22l-.5,1.16-1.26.05s-2.41.08-6.13.17c-3.56.08-6.66.46-6.69.47l-.92.11L8.24,13.23c-.3.18-.68.42-1.12.73a8.31,8.31,0,0,0-1.51,1.45l1.71,5.2c2,0,2.75,2.05,3.8,4.1S14.26,31,14.26,31A32.89,32.89,0,0,0,20,31a54.81,54.81,0,0,0,5.63-.66s1.57-5.93,2-7.63.61-2.79,1.35-3.4a35.73,35.73,0,0,0,.49-4.36v-.2h-.54C28.84,14.61,28.79,14.39,28.73,14.12ZM23.2,26.19l-5.71.09-2.1-4.89V20.22L17,18.52l5.58-.31L24,20Z"/>
		</svg>
		<svg id="haz"><defs><clipPath id="a" transform="translate(0 -1.9)"><path d="M15.7 1.9Zm-.1 0Zm.9 0Zm0 0a6.4 6.4 0 0 1-.2 12.7V16a2 2 0 0 1 1.6 1.9 1.8 1.8 0 0 1-.1.7l1.2.7a6.4 6.4 0 0 1 11 6.3 8.4 8.4 0 0 0-3.2-11.1 8.3 8.3 0 0 0-3-1 8.4 8.4 0 0 0-7.3-11.6Zm-1.1 0a8.4 8.4 0 0 0-7.2 11.5 8.2 8.2 0 0 0-3 1 8.4 8.4 0 0 0-3.3 11A6.4 6.4 0 0 1 13 19.2l1.2-.7a2 2 0 0 1-.1-.6 2 2 0 0 1 1.5-1.9v-1.4A6.4 6.4 0 0 1 15.4 2Zm.3 8a8 8 0 0 0-4.5 1.5l.3.4.4.4a4.5 4.5 0 0 0 .4.4 2.4 2.4 0 0 0 .3.2 6 6 0 0 1 6.6 0 2.4 2.4 0 0 0 .3-.2 4.6 4.6 0 0 0 .4-.4c.2 0 .3-.2.4-.4a4.5 4.5 0 0 0 .3-.4A8 8 0 0 0 16 10h-.2Zm-7.6 7a8 8 0 0 0 4.7 8.1 4.4 4.4 0 0 0 .2-.5l.1-.5.2-.5a3 3 0 0 0 0-.4 6 6 0 0 1-3.3-5.7l-.4-.2a4.5 4.5 0 0 0-.5-.2 4.5 4.5 0 0 0-.5 0 5 5 0 0 0-.5 0Zm15.8 0a5 5 0 0 0-.6.1 4.9 4.9 0 0 0-1 .3 2.4 2.4 0 0 0-.4.2 6 6 0 0 1-.8 3.3 5.9 5.9 0 0 1-2.5 2.4 2.6 2.6 0 0 0 0 .4 4.5 4.5 0 0 0 .2.5 5.4 5.4 0 0 0 .1.5 5.3 5.3 0 0 0 .3.5 8 8 0 0 0 4.7-8.1ZM14.5 19l-1.2.7a6.4 6.4 0 0 1-11 6.4 8.4 8.4 0 0 0 11.3 2.7 8.3 8.3 0 0 0 2.4-2 8.2 8.2 0 0 0 2.4 2.2 8.4 8.4 0 0 0 11.3-2.7 6.4 6.4 0 0 1-11-6.5l-1.3-.7a2 2 0 0 1-1.4.7 1.9 1.9 0 0 1-1.4-.7Z"/></clipPath></defs><path d="M15.8 0Zm-.2 0Zm1 0Zm0 0a6.4 6.4 0 0 1-.3 12.8V14a2 2 0 0 1 1.7 2 1.8 1.8 0 0 1-.1.6l1.2.7a6.4 6.4 0 0 1 11 6.4A8.4 8.4 0 0 0 27 12.6a8.3 8.3 0 0 0-3-1A8.4 8.4 0 0 0 16.5 0Zm-1.1 0a8.4 8.4 0 0 0-7.2 11.5 8.2 8.2 0 0 0-3 1 8.4 8.4 0 0 0-3.3 11 6.4 6.4 0 0 1 11-6.2l1.2-.6a2 2 0 0 1 0-.7 2 2 0 0 1 1.5-1.9v-1.3A6.4 6.4 0 0 1 15.5 0Zm.3 8a8 8 0 0 0-4.5 1.6l.3.4.4.4a4.5 4.5 0 0 0 .4.4 2.4 2.4 0 0 0 .3.2 6 6 0 0 1 6.6 0 2.4 2.4 0 0 0 .3-.2 4.6 4.6 0 0 0 .4-.4l.4-.4a4.5 4.5 0 0 0 .3-.4A8 8 0 0 0 16.1 8h-.2Zm-7.7 7a8 8 0 0 0 4.8 8.2 4.4 4.4 0 0 0 .2-.6l.1-.5.1-.5a3 3 0 0 0 0-.4 6 6 0 0 1-3.2-5.7l-.4-.2a4.5 4.5 0 0 0-.5-.1 4.5 4.5 0 0 0-.5 0 5 5 0 0 0-.5 0ZM24 15a5 5 0 0 0-.6.2 4.9 4.9 0 0 0-1 .2 2.4 2.4 0 0 0-.4.2 6 6 0 0 1-.8 3.3 5.9 5.9 0 0 1-2.5 2.4 2.6 2.6 0 0 0 0 .4 4.5 4.5 0 0 0 .2.5 5.4 5.4 0 0 0 .1.5 5.3 5.3 0 0 0 .3.6A8 8 0 0 0 24 15Zm-9.4 2.1-1.2.7a6.4 6.4 0 0 1-11 6.4A8.4 8.4 0 0 0 13.7 27a8.3 8.3 0 0 0 2.4-2 8.2 8.2 0 0 0 2.4 2.1 8.4 8.4 0 0 0 11.2-2.7 6.4 6.4 0 0 1-11-6.4l-1.2-.7a2 2 0 0 1-1.4.6 1.9 1.9 0 0 1-1.5-.6Z"/><g style="clip-path:url(#a)"><path d="M29.7 17.3h-9.4 9.4zM29.7 17.7l-27.3-.2v-.2H29.7v.4zM29.7 18.1l-27.3-.2v-.4l27.3.2v.4z"/><path d="m29.7 18.4-27.3-.1v-.4l27.3.2v.3zM29.7 18.8l-27.3-.2v-.3l27.3.1v.4z"/><path d="M29.7 19.2 2.4 19v-.4l27.3.2v.4z"/><path d="m29.7 19.5-27.3-.1V19l27.3.2v.3z"/><path d="m29.7 19.9-27.3-.2v-.3l27.3.1v.4zM29.7 20.3l-27.3-.2v-.4l27.3.2v.4z"/><path d="m29.7 20.6-27.3-.1v-.4l27.3.2v.3z"/><path d="m29.7 21-27.3-.2v-.3l27.3.1v.4z"/><path d="m29.7 21.4-27.3-.2v-.4l27.3.2v.4z"/><path d="m29.7 21.7-27.3-.1v-.4l27.3.2v.3zM29.7 22.1l-27.3-.2v-.3l27.3.1v.4z"/><path d="m29.7 22.5-27.3-.2v-.4l27.3.2v.4z"/><path d="m29.7 22.8-27.3-.1v-.4l27.3.2v.3z"/><path d="M29.7 23.2 2.4 23v-.3l27.3.1v.4z"/><path d="m29.7 23.6-27.3-.2V23l27.3.2v.4z"/><path d="m29.7 23.9-27.3-.1v-.4l27.3.2v.3zM29.7 24.3l-27.3-.2v-.3l27.3.1v.4z"/><path d="m29.7 24.7-27.3-.2v-.4l27.3.2v.4z"/><path d="m29.7 25-27.3-.1v-.4l27.3.2v.3z"/><path d="m29.7 25.4-27.3-.2v-.3l27.3.1v.4zM29.7 25.8l-27.3-.2v-.4l27.3.2v.4z"/><path d="M29.7 26.1 2.4 26v-.4l27.3.2v.3z"/><path d="m29.7 26.5-27.3-.2V26l27.3.1v.4z"/><path d="m29.7 26.9-27.3-.2v-.4l27.3.2v.4z"/><path d="m29.7 27.2-27.3-.1v-.4l27.3.2v.3zM29.7 27.6l-27.3-.2v-.3l27.3.1v.4z"/><path d="m29.7 28-27.3-.2v-.4l27.3.2v.4z"/><path d="m29.7 28.3-27.3-.1v-.4l27.3.2v.3z"/><path d="m2.4 28.2 27.3.1v1.1H2.4v-1.2zM24.2 15.5l-5.4-.1v-.2h5.4v.3z"/><path d="M24.2 15.8h-5.4v-.4l5.4.1v.3z"/><path d="M24.2 16.2h-5.4v-.4h5.4v.4zM24.2 16.6l-5.4-.1v-.3h5.4v.4zM24.2 16.9h-5.4v-.4l5.4.1v.3zM24.2 17.3h-5.4v-.4h5.4v.4z"/><path d="m24.2 17.7-5.4-.1v-.3h5.4v.4zM24.2 18h-5.4v-.4l5.4.1v.3z"/><path d="M24.2 18.4h-5.4V18h5.4v.4zM24.2 18.8l-5.4-.1v-.3h5.4v.4zM24.2 19.1h-5.4v-.4l5.4.1v.3z"/><path d="M24.2 19.5h-5.4v-.4h5.4v.4z"/><path d="m24.2 19.9-5.4-.1v-.3h5.4v.4zM24.2 20.2h-5.4v-.4l5.4.1v.3zM24.2 20.6h-5.4v-.4h5.4v.4z"/><path d="m24.2 21-5.4-.1v-.3h5.4v.4zM24.2 21.3h-5.4v-.4l5.4.1v.3z"/><path d="M24.2 21.7h-5.4v-.4h5.4v.4zM24.2 22.1l-5.4-.1v-.3h5.4v.4zM24.2 22.4h-5.4V22l5.4.1v.3zM24.2 22.8h-5.4v-.4h5.4v.4z"/><path d="m24.2 23.2-5.4-.1v-.3h5.4v.4zM18.8 23.1l5.4.1v.2h-5.4v-.3zM13.4 15.4H8v-.3h5.4v.3z"/><path d="M13.4 15.8 8 15.7v-.3h5.4v.4zM13.4 16.1H8v-.4l5.4.1v.3zM13.4 16.5H8v-.4h5.4v.4zM13.4 16.9 8 16.8v-.3h5.4v.4zM13.4 17.2H8v-.4l5.4.1v.3zM13.4 17.6H8v-.4h5.4v.4z"/><path d="M13.4 18 8 17.9v-.3h5.4v.4zM13.4 18.3H8v-.4l5.4.1v.3z"/><path d="M13.4 18.7H8v-.4h5.4v.4zM13.4 19.1 8 19v-.3h5.4v.4z"/><path d="M13.4 19.4H8V19l5.4.1v.3zM13.4 19.8H8v-.4h5.4v.4zM13.4 20.2 8 20.1v-.3h5.4v.4zM13.4 20.5H8v-.4l5.4.1v.3z"/><path d="M13.4 20.9H8v-.4h5.4v.4zM13.4 21.3 8 21.2v-.3h5.4v.4zM13.4 21.6H8v-.4l5.4.1v.3z"/><path d="M13.4 22H8v-.4h5.4v.4zM13.4 22.4 8 22.3V22h5.4v.4zM13.4 22.7H8v-.4l5.4.1v.3zM13.4 23.1H8v-.4h5.4v.4zM8 23.1h5.4v.2H8v-.2zM20.8 8.1H14h6.8zM20.8 8.5l-9.4-.1v-.3h9.4v.4z"/><path d="M20.8 8.8h-9.4v-.4l9.4.1v.3z"/><path d="m20.8 9.2-9.4-.1v-.3h9.4v.4z"/><path d="m20.8 9.6-9.4-.1v-.4l9.4.1v.4z"/><path d="M20.8 9.9h-9.4v-.4l9.4.1v.3zM20.8 10.3l-9.4-.1v-.3h9.4v.4z"/><path d="m20.8 10.7-9.4-.1v-.4l9.4.1v.4z"/><path d="M20.8 11h-9.4v-.4l9.4.1v.3zM11.4 11h9.4v.1h-9.4V11zM15.7.4 0 .3V0h15.7v.4z"/><path d="M15.7.7 0 .6V.3l15.7.1v.3z"/><path d="M15.7 1.1 0 1V.6l15.7.1v.4z"/><path d="M15.7 1.5 0 1.4V1l15.7.1v.4z"/><path d="M15.7 1.8 0 1.7v-.3l15.7.1v.3zM15.7 2.2 0 2.1v-.4l15.7.1v.4z"/><path d="M15.7 2.6 0 2.5v-.4l15.7.1v.4z"/><path d="M15.7 2.9 0 2.8v-.3l15.7.1v.3zM15.7 3.3 0 3.2v-.4l15.7.1v.4z"/><path d="M15.7 3.7 0 3.6v-.4l15.7.1v.4z"/><path d="M15.7 4 0 3.9v-.3l15.7.1V4z"/><path d="M15.7 4.4 0 4.3v-.4l15.7.1v.4z"/><path d="M15.7 4.8 0 4.7v-.4l15.7.1v.4z"/><path d="M15.7 5.1 0 5v-.3l15.7.1v.3z"/><path d="M15.7 5.5 0 5.4V5l15.7.1v.4z"/><path d="M15.7 5.9 0 5.8v-.4l15.7.1v.4z"/><path d="M15.7 6.2 0 6.1v-.3l15.7.1v.3z"/><path d="M15.7 6.6 0 6.5v-.4l15.7.1v.4z"/><path d="M15.7 7 0 6.9v-.4l15.7.1V7z"/><path d="M15.7 7.3 0 7.2v-.3l15.7.1v.3z"/><path d="M15.7 7.7 0 7.6v-.4l15.7.1v.4z"/><path d="M15.7 8.1 0 8v-.4l15.7.1v.4z"/><path d="M15.7 8.4 0 8.3V8l15.7.1v.3z"/><path d="M15.7 8.8 0 8.7v-.4l15.7.1v.4z"/><path d="M15.7 9.2 0 9.1v-.4l15.7.1v.4z"/><path d="M15.7 9.5 0 9.4v-.3l15.7.1v.3z"/><path d="M15.7 9.9 0 9.8v-.4l15.7.1v.4z"/><path d="M15.7 10.3 0 10.2v-.4l15.7.1v.4z"/><path d="M15.7 10.6 0 10.5v-.3l15.7.1v.3z"/><path d="M15.7 11 0 10.9v-.4l15.7.1v.4z"/><path d="M15.7 11.4 0 11.3v-.4l15.7.1v.4z"/><path d="M15.7 11.7 0 11.6v-.3l15.7.1v.3z"/><path d="M15.7 12.1 0 12v-.4l15.7.1v.4z"/><path d="M15.7 12.5 0 12.4V12l15.7.1v.4z"/><path d="M15.7 12.8 0 12.7v-.3l15.7.1v.3z"/><path d="M15.7 13.2 0 13.1v-.4l15.7.1v.4z"/><path d="M15.7 13.6 0 13.5v-.4l15.7.1v.4z"/><path d="M15.7 13.9 0 13.8v-.3l15.7.1v.3z"/><path d="M15.7 14.3 0 14.2v-.4l15.7.1v.4z"/><path d="M15.7 14.7 0 14.6v-.4l15.7.1v.4z"/><path d="M15.7 15 0 14.9v-.3l15.7.1v.3z"/><path d="M15.7 15.4 0 15.3v-.4l15.7.1v.4z"/><path d="M15.7 15.8 0 15.7v-.4l15.7.1v.4z"/><path d="M15.7 16.1 0 16v-.3l15.7.1v.3z"/><path d="M15.7 16.5 0 16.4V16l15.7.1v.4zM15.7 16.9 0 16.8v-.4l15.7.1v.4z"/><path d="M15.7 17.2 0 17.1v-.3l15.7.1v.3z"/><path d="M15.7 17.6 0 17.5v-.4l15.7.1v.4z"/><path d="M15.7 18 0 17.9v-.4l15.7.1v.4z"/><path d="M15.7 18.3 0 18.2v-.3l15.7.1v.3zM15.7 18.7 0 18.6v-.4l15.7.1v.4z"/><path d="M15.7 19.1 0 19v-.4l15.7.1v.4z"/><path d="M15.7 19.4 0 19.3V19l15.7.1v.3z"/><path d="M15.7 19.8 0 19.7v-.4l15.7.1v.4zM15.7 20.2 0 20.1v-.4l15.7.1v.4z"/><path d="M15.7 20.5 0 20.4v-.3l15.7.1v.3zM15.7 20.9 0 20.8v-.4l15.7.1v.4z"/><path d="M15.7 21.3 0 21.2v-.4l15.7.1v.4z"/><path d="M15.7 21.6 0 21.5v-.3l15.7.1v.3z"/><path d="M15.7 22 0 21.9v-.4l15.7.1v.4zM15.7 22.4 0 22.3v-.4l15.7.1v.4z"/><path d="M15.7 22.7 0 22.6v-.3l15.7.1v.3z"/><path d="M15.7 23.1 0 23v-.4l15.7.1v.4z"/><path d="M15.7 23.5 0 23.4V23l15.7.1v.4z"/><path d="m0 23.4 15.7.1H0v-.1zM32.2.1 18.1 0h14.1v.1zM32.2.5 16.4.4V0h1.7l14.1.1v.4z"/><path d="M32.2.8 16.4.7V.4l15.8.1v.3z"/><path d="m32.2 1.2-15.8-.1V.7l15.8.1v.4zM32.2 1.6l-15.8-.1v-.4l15.8.1v.4z"/><path d="m32.2 1.9-15.8-.1v-.3l15.8.1v.3z"/><path d="m32.2 2.3-15.8-.1v-.4l15.8.1v.4zM32.2 2.7l-15.8-.1v-.4l15.8.1v.4z"/><path d="m32.2 3-15.8-.1v-.3l15.8.1V3z"/><path d="m32.2 3.4-15.8-.1v-.4l15.8.1v.4z"/><path d="m32.2 3.8-15.8-.1v-.4l15.8.1v.4zM32.2 4.1 16.4 4v-.3l15.8.1v.3z"/><path d="m32.2 4.5-15.8-.1V4l15.8.1v.4z"/><path d="m32.2 4.9-15.8-.1v-.4l15.8.1v.4z"/><path d="m32.2 5.2-15.8-.1v-.3l15.8.1v.3z"/><path d="m32.2 5.6-15.8-.1v-.4l15.8.1v.4z"/><path d="m32.2 6-15.8-.1v-.4l15.8.1V6z"/><path d="m32.2 6.3-15.8-.1v-.3l15.8.1v.3z"/><path d="m32.2 6.7-15.8-.1v-.4l15.8.1v.4z"/><path d="M32.2 7.1 16.4 7v-.4l15.8.1v.4z"/><path d="m32.2 7.4-15.8-.1V7l15.8.1v.3z"/><path d="m32.2 7.8-15.8-.1v-.4l15.8.1v.4z"/><path d="m32.2 8.2-15.8-.1v-.4l15.8.1v.4z"/><path d="m32.2 8.5-15.8-.1v-.3l15.8.1v.3z"/><path d="m32.2 8.9-15.8-.1v-.4l15.8.1v.4z"/><path d="m32.2 9.3-15.8-.1v-.4l15.8.1v.4z"/><path d="m32.2 9.6-15.8-.1v-.3l15.8.1v.3z"/><path d="m32.2 10-15.8-.1v-.4l15.8.1v.4z"/><path d="m32.2 10.4-15.8-.1v-.4l15.8.1v.4z"/><path d="m32.2 10.7-15.8-.1v-.3l15.8.1v.3z"/><path d="M32.2 11.1 16.4 11v-.4l15.8.1v.4z"/><path d="m32.2 11.5-15.8-.1V11l15.8.1v.4z"/><path d="m32.2 11.8-15.8-.1v-.3l15.8.1v.3z"/><path d="m32.2 12.2-15.8-.1v-.4l15.8.1v.4z"/><path d="m32.2 12.6-15.8-.1v-.4l15.8.1v.4z"/><path d="m32.2 12.9-15.8-.1v-.3l15.8.1v.3z"/><path d="m32.2 13.3-15.8-.1v-.4l15.8.1v.4z"/><path d="m32.2 13.7-15.8-.1v-.4l15.8.1v.4z"/><path d="m32.2 14-15.8-.1v-.3l15.8.1v.3z"/><path d="m32.2 14.4-15.8-.1v-.4l15.8.1v.4z"/><path d="m32.2 14.8-15.8-.1v-.4l15.8.1v.4z"/><path d="M32.2 15.1 16.4 15v-.3l15.8.1v.3z"/><path d="m32.2 15.5-15.8-.1V15l15.8.1v.4z"/><path d="m32.2 15.9-15.8-.1v-.4l15.8.1v.4z"/><path d="m32.2 16.2-15.8-.1v-.3l15.8.1v.3zM32.2 16.6l-15.8-.1v-.4l15.8.1v.4z"/><path d="m32.2 17-15.8-.1v-.4l15.8.1v.4z"/><path d="m32.2 17.3-15.8-.1v-.3l15.8.1v.3z"/><path d="m32.2 17.7-15.8-.1v-.4l15.8.1v.4zM32.2 18.1 16.4 18v-.4l15.8.1v.4z"/><path d="m32.2 18.4-15.8-.1V18l15.8.1v.3zM32.2 18.8l-15.8-.1v-.4l15.8.1v.4z"/><path d="m32.2 19.2-15.8-.1v-.4l15.8.1v.4z"/><path d="m32.2 19.5-15.8-.1v-.3l15.8.1v.3z"/><path d="m32.2 19.9-15.8-.1v-.4l15.8.1v.4zM32.2 20.3l-15.8-.1v-.4l15.8.1v.4z"/><path d="m32.2 20.6-15.8-.1v-.3l15.8.1v.3z"/><path d="m32.2 21-15.8-.1v-.4l15.8.1v.4z"/><path d="m32.2 21.4-15.8-.1v-.4l15.8.1v.4z"/><path d="m32.2 21.7-15.8-.1v-.3l15.8.1v.3zM32.2 22.1 16.4 22v-.4l15.8.1v.4z"/><path d="m32.2 22.5-15.8-.1V22l15.8.1v.4z"/><path d="m32.2 22.8-15.8-.1v-.3l15.8.1v.3z"/><path d="m32.2 23.2-15.8-.1v-.4l15.8.1v.4zM32.2 23.6l-15.8-.1v-.4l15.8.1v.4zM16.4 23.5l15.8.1v.1H16.4v-.2zM15.8 0ZM15.8 0z"/></g></svg>
	</defs>
	<g id="default">
		<use href="#attachment"/>
	</g>
	<g id="ArmorCoating">
		<use href="#coating"/>
	</g>
	<g id="ArmorHelmet">
		<path d="M28,19.2c-.57-.41-.64-4.72-.64-6A29.7,29.7,0,0,0,27.53,10c-.11-1.27-.41-5.32-1.08-6.4a3.93,3.93,0,0,0-2.92-1.61C22.44,1.75,22.18,1,21.17,1s-2,1.5-2,1.5H12.82s-1-1.5-2-1.5-1.27.75-2.36.94A3.93,3.93,0,0,0,5.55,3.55c-.67,1.08-1,5.13-1.08,6.4a29.7,29.7,0,0,0,.22,3.22c0,1.31-.07,5.62-.64,6a6.18,6.18,0,0,0-1.68,4c0,1.72,2.13,3.6,4.42,4.91S12.59,31,12.59,31c.6,0,.71-.94.71-.94h5.4s.11.94.71.94c0,0,3.52-1.57,5.8-2.88s4.42-3.19,4.42-4.91A6.18,6.18,0,0,0,28,19.2Zm-4.28-.52c-1.08,0-2.32.52-3.14.52s-1.24-1.5-1.24-1.5H12.78s-.41,1.5-1.24,1.5-2.06-.52-3.14-.52-1-.56-1-.56a19.41,19.41,0,0,1-.52-4c0-1.88,1.39-6.07,5.66-6.07h7c4.27,0,5.66,4.19,5.66,6.07a19.07,19.07,0,0,1-.53,4S24.76,18.68,23.67,18.68Z"/>
	</g>
	<g id="ArmorHelmetAttachment">
		<path class="cls-1" d="M25.42,14.1l-2.3,2.59h2l-6.55,7.38h-11l3.51-3.59H7L0,27.59H20L32,14.1Z" /><path class="cls-1" d="M14.79,4.11,7.58,11.49v6h11l6.56-7.37v-6Zm.7,1.38h6.33l-4.41,5H10.6Z"/><path d="M15.72,20.19V17.55H14.33v2.64H11.52L15,24.59l3.52-4.4Z"/>
	</g>
	<g id="ArmorVisor">
		<path d="M19.25,22.85a3.51,3.51,0,0,0,1.79,2c1.08,0,5.75-.21,6.83-1.67s3.38-2.83,3.38-7.46-2-7-15.46-7-15,3.29-15,7,2.29,6,3.37,7.46S9.87,24.89,11,24.89a3.51,3.51,0,0,0,1.79-2A3.9,3.9,0,0,1,16,20.93,3.9,3.9,0,0,1,19.25,22.85Z"/>
	</g>
	<g id="ArmorLeftShoulderPad">
		<use href="#shoulder"/>
	</g>
	<g id="ArmorRightShoulderPad">
		<use href="#shoulder"/>
	</g>
	<g id="ArmorGlove">
		<path d="M1,9.3A28.7,28.7,0,0,0,4.61,6c2-2.13,4.74-5,4.74-5S11.08,2.53,11.57,3s3.41.15,4.7,1.24,3.55,2.81,4.59,3.6,1.24,1.88,2.32,2.37a44,44,0,0,1,5.39,3c2.67,1.68,1.93,4.1-1.34,2.47S22,13,21.85,13.25s2.17,1.88,4.3,3.36a19.87,19.87,0,0,1,3.26,2.77c2.72,2.47,1.78,4.79-1.48,2.47-1.29-.92-4.45-2.82-5.39-3.46S20.32,16.71,20.07,17s2.37,2.47,3.56,3.56A57.58,57.58,0,0,1,28,24.86c2.42,2.62-.1,4.35-2.48,2.22s-4.64-3.85-5.73-4.84-2.71-2.37-3-2.07.74,1.58,2,3.21S21.21,26,23,28.32s-.94,3.7-2.57,1.92-4.1-4.24-5.64-5.73-5-5.58-5.63-5.18S8.21,21,8.51,22.54s.74,3.9.15,5.58S6.29,28,5.94,26.49a57.48,57.48,0,0,0-2.22-7c-.79-1.87-.4-5-.84-6s0-1.88-.55-2.52S1,9.3,1,9.3Z"/>
	</g>
	<g id="ArmorChestAttachment">
		<path d="M10.586 17h10.828l1.783 1.783 6.693-3.346L27.654 4h-4.192l-.5 1.75-3.595 2.401L17.987 13h-3.821l-1.38-4.849L9.193 5.75 8.692 4H4.346L2.11 15.437l6.693 3.346L10.586 17zM23.03 21.784l-2.31-2.309H18.28l-1.3 3H15.02l-1.302-3h-2.554l-2.31 2.31-2.838-1.42 2.581 4.157 1.312.58 1.31 3.373h2.03l.835-2h3.834l.836 2H20.678l1.29-3.37 1.318-.583 2.581-4.157-2.838 1.42z"></path>
	</g>
	<g id="ArmorKneePad">
		<use href="#attachment"/>
	</g>
	<g id="ArmorWristAttachment">
		<path fill-rule="evenodd" clip-rule="evenodd" d="M11.83 3.466l1.122-1.122 5.568 4.142-.032 1.863 2.664 2.666 1.967 5.051 5.578 6.083-.172 1.516 1.228 1.845-4.233 4.24-1.843-1.23-1.57.177-6.407-5.565-4.694-1.96-2.663-2.668-1.862.033-4.141-5.57 1.12-1.122 5.18.02 2.027.752 1.936-1.938-.75-2.032-.022-5.18zm11.092 20.696l1.155-1.157L13.95 12.419l-1.54 1.542 10.513 10.2z"></path>
	</g>
	<g id="ArmorHipAttachment">
		<path d="M10 13.353a1 1 0 0 0 1 1h10a1 1 0 0 0 1-1V5H10v8.353zM21 16.353h-3l-.668 1h-2.65l-.682-1h-3c-.352 0-.686-.072-1-.184v9.184L11 27h10l1-1.648v-9.184a2.967 2.967 0 0 1-1 .185zM31 10.648h-7V15l7-1v-3.352zM31 18h-7v4.352l7-1V18zM8 10.648H1V14l7 1v-4.352zM8 18H1v3.352l7 1V18z"></path>
	</g>
	<g id="ArmorEmblem">
		<path d="M29.5,16a13.79,13.79,0,0,1-.25,2.59L16,8.2,2.73,18.41A13.49,13.49,0,1,1,29.5,16ZM5.2,24.08a13.47,13.47,0,0,0,21.49.14L16,15.8ZM3.29,20.51a14.38,14.38,0,0,0,.82,1.89L16,13.27,27.8,22.55a12.72,12.72,0,0,0,.85-1.88L16,10.73Z"/>
	</g>
	<g id="ArmorFx">
		<path d="M5.37 21.439l5 3.334-3.335-5 3.334-5-5 3.333-5-3.333 3.333 5-3.333 5 5-3.334zM18.767 7.27l3 2-2-3 2-3-3 2-3-2 2 3-2 3 3-2z" fill="#fff"></path><path d="M24.24 19.97L30.503 11l-8.86 6.185L4 2.497l14.627 17.571L9.503 32l12.043-9.21L31.503 30 24.24 19.97z"></path>
	</g>
	<g id="ArmorMythicFx">
		<path d="M5.37 21.439l5 3.334-3.335-5 3.334-5-5 3.333-5-3.333 3.333 5-3.333 5 5-3.334zM18.767 7.27l3 2-2-3 2-3-3 2-3-2 2 3-2 3 3-2z" fill="#fff"></path><path d="M24.24 19.97L30.503 11l-8.86 6.185L4 2.497l14.627 17.571L9.503 32l12.043-9.21L31.503 30 24.24 19.97z"></path>
	</g>
	<g id="ArmorTheme">
		<path d="M9.558 17.102l13.187-7.326L16 7 2.94 13.53l6.618 3.572zM11.646 18.229l2.432 1.312c.51.277.95.646 1.312 1.096l.86 1.074 13.477-7.58-.32-1.016a1.54 1.54 0 0 0-.882-.961L25.11 10.75l-13.464 7.479zM15 23.35l-1.172-1.461a2.333 2.333 0 0 0-.703-.59L2 15.296V19l13 7.652V23.35zM17 23.585v3.083l12.791-7.309A.413.413 0 0 0 30 19v-2.728l-13 7.313z"></path>
	</g>
	<g id="ArmorCore">
		<use href="#spartan"/>
	</g>
	<g id="SpartanEmblem">
		<path d="M2,12v8H30V12Zm27,7H3V13H29Zm-1.57,1v2.6L16,29.2,4.57,22.6V20h2v1.45L16,26.89l9.43-5.44V20ZM4.57,12V9.4L16,2.8,27.43,9.4V12h-2V10.55L16,5.11,6.57,10.55V12Zm18.86,8v.29L16,24.58,8.57,20.29V20ZM8.57,12v-.29L16,7.42l7.43,4.29V12Z"/>
	</g>
	<g id="WeaponCoating">
		<use href="#coating"/>
	</g>
	<g id="WeaponEmblem">
		<use href="#weapon"/>
	</g>
	<g id="WeaponCore">
		<use href="#weapon"/>
	</g>
	<g id="WeaponTheme">
		<use href="#weapon"/>
	</g>
	<g id="WeaponDeathFx">
		<path d="M29,21.79c-1.71-.33-3.36.18-4.93-.73a42.38,42.38,0,0,1-4-2.85l-3,3.4s1.13,1.13,2,1.9a8.32,8.32,0,0,1,2.12,2.7c.69,1.32.47,2.05,1.28,3.54s2.08,1,2.77.44.55-1.64,1.28-2.63,1.24-.36,2.05-.73a4.75,4.75,0,0,0,1.86-2.66A1.77,1.77,0,0,0,29,21.79Z"/><path d="M8.2,12.7c.65.69,2.26,2.19,2.26,2.19l3.22-3.66A19.11,19.11,0,0,1,11.52,7.8C10.64,5.94,9.8,4.11,9.4,3A3.74,3.74,0,0,0,6.3.9C5,.82,4.11,2.21,4,3.67A3,3,0,0,1,2.5,6.19c-.88.7-1.83,2.09-1.39,3.36s2.27,1.21,4,1.47A4.52,4.52,0,0,1,8.2,12.7Z"/><path d="M28.07,2.21c-1.86-.25-1.5-1.06-3.22-1.13s-2.7,1.64-3,3.58-1.17,2.26-3,4.49S9,19.71,7.25,21.28,5.6,22.7,4.51,23.11,2.39,24.93,3.34,25.7s.88,2.05,1,3,.8,2.41,2,2.41,2.27-1.25,3-3.25,2.41-3.51,4.53-6S18,17,20.54,14.16s4.39-4.72,6.25-6.51S30.7,7,31,5C31.11,4.16,29.93,2.47,28.07,2.21Z"/>
	</g>
	<g id="WeaponAlternateGeometryRegion">
		<use href="#weapon"/>
	</g>
	<g id="WeaponCharm">
		<path d="M24.6,12.92a5.86,5.86,0,0,0,5.48-8.73L31,3.27,28.73,1l-.92.92A5.86,5.86,0,0,0,19.08,7.4a5.23,5.23,0,0,0-6.53.69l-10,10a5.21,5.21,0,0,0,0,7.38l4,4a5.21,5.21,0,0,0,7.38,0l10-10A5.23,5.23,0,0,0,24.6,12.92ZM21.54,3.65a4.82,4.82,0,1,1,1.93,8l0,0a2.64,2.64,0,0,0-3-3h0l0,0A4.82,4.82,0,0,1,21.54,3.65Zm.38,8.7a1.61,1.61,0,1,1,0-2.27A1.6,1.6,0,0,1,21.92,12.35Zm-9.18,16a3.6,3.6,0,0,1-5.1,0l-4-4a3.6,3.6,0,0,1,0-5.1l10-10a3.62,3.62,0,0,1,5.11,0l.09.09a2.68,2.68,0,0,0,3.79,3.79l.09.09a3.62,3.62,0,0,1,0,5.11Z"/><path d="M17.38,14.62a4.8,4.8,0,0,1-1.33-4.29,1.45,1.45,0,0,0-.85.41l-10,10a1.46,1.46,0,0,0,0,2.08l4,4a1.46,1.46,0,0,0,2.08,0l10-10a1.45,1.45,0,0,0,.41-.85A4.8,4.8,0,0,1,17.38,14.62Z"/>
	</g>
	<g id="VehicleCoating">
		<use href="#coating"/>
	</g>
	<g id="VehicleEmblem">
		<use href="#vehicle"/>
	</g>
	<g id="VehicleCore">
		<use href="#vehicle"/>
	</g>
	<g id="VehicleTheme">
		<use href="#vehicle"/>
	</g>
	<g id="VehicleAlternateGeometryRegion">
		<use href="#vehicle"/>
	</g>
	<g id="SpartanActionPose">
		<path d="M22.91,29.08a4.33,4.33,0,0,0,1.27-.23v-.61a4.35,4.35,0,0,0-1.09-1V27A6.37,6.37,0,0,0,22,25.91c.27-.57-.21-.61-.31-1.67-.07-1.76.31-1.94-.14-3.29h-.24c-.18.61-.21-.76-.33-.77.15-.1.21-.11.11-.49-.34-1.37-1.19-4.6-2.19-5.66l.27-.33v-.76c0-.12-.49-.53-.66-.44a4.34,4.34,0,0,1,0-1.39c0,.16.42.44.54.44,0,.13-.27.37,0,.51.1.09.63.57.94.82s1.25.33,1.65.58a5.88,5.88,0,0,1,.79.62,1.14,1.14,0,0,1,.41.14c.18.11.08.22.29.3s.68.17.79.2c.27-.14.73-.19,1-.52.17-.17.11-.22.21-.35.24-.31-.43-1.12-.79-1.13s-.66.25-.92.18a16.11,16.11,0,0,0-2.65-2.12s-.28-1.28-.25-1.3a3,3,0,0,0,.17-1c.39-1.7-1.21-2.76-2.12-2a1.39,1.39,0,0,0-.34-.3c-.28-.19-.52-.84-.81-1a6.22,6.22,0,0,0-.66-.09l.18-.2c.08-.32.05-1.47-.52-1.49C16.29,3,15.8,1.18,15.16,1c-.09.12-.63.25-.7,0a3.82,3.82,0,0,0-1.64,2.45c.08.47-.31,1.41-.13,1.88-1.63.17-1.1.62-1.21,1.84a1.54,1.54,0,0,0-.77-.36c-.53.09-1.2,1.64-1,2,0,.13,0,1.6.32,1.58a9.24,9.24,0,0,0-.1,1.16c-.63.07-1.65,1.5-1.85,2-.24.08-.16-.22-.57-.21s-.39.22-.39.41-.32.23-.32.66.23.33.47.52A1.22,1.22,0,0,0,8,15.4c.63,0,.93,0,1.06-.51.61-.56,2-1,2.29-1.91a4.84,4.84,0,0,1,.9-1.72l.49.48.26,0s.21.12,0,.43,0,.26,0,.26c-.76-.26-.76,1-.47,1.41.16.63-.47.29-.67,1.08a31.83,31.83,0,0,0-1.17,6c-.18,1-.79,1.2-1.14,2.21-.14.8.16,1.51-.17,2.32s-.64.88-.64,1.82c0,.27.27.07.26.25a9.53,9.53,0,0,1-.39,1.11c-.11.31-.23.71-.23.71s-.16.21-.4.49a1.41,1.41,0,0,0-.21.8c.31.73,3.49.58,3.14-.63a4,4,0,0,0,.2-1.41c0-.23-.2-.43-.1-.54a1.47,1.47,0,0,0,.39-.71,1.87,1.87,0,0,1,.19-1.44c.74-1,1.56-2.4,1-3.52.08-.78,1.66-2,1.29-2.9a5.2,5.2,0,0,0,.44-.74c.09-.24,0-.19.13-.39.32-.41.24-.49.43-.94.16-.19.38-.61.84-.4s.6.1.88.52c.37.65.65.93.84,1.36a1.51,1.51,0,0,1,.42,1.11c-.14.18,1,1.38,1.11,1.34s0,.21-.08.25c-.6.41-.48,1.77,0,2.34.62.43.71,1.92,1,2.24-.27.33-.42,1.72.08,2.14A7.91,7.91,0,0,0,22.91,29.08Z"/>
	</g>
	<g id="SpartanVoice">
		<use href="#spartan"/>
	</g>
	<g id="unfavored">
		<path d="M30.644,13.7361a1.1747,1.1747,0,0,0-.651-2.0036l-8.33-1.21a1.1748,1.1748,0,0,1-.8844-.6426L17.0533,2.3314a1.1745,1.1745,0,0,0-2.1066,0L11.2214,9.88a1.1748,1.1748,0,0,1-.8844.6426l-8.33,1.21a1.1747,1.1747,0,0,0-.651,2.0036l6.0276,5.8755a1.1744,1.1744,0,0,1,.3378,1.04L6.2985,28.9476a1.1747,1.1747,0,0,0,1.7044,1.2383l7.4505-3.917a1.1746,1.1746,0,0,1,1.0932,0l7.45,3.917a1.1747,1.1747,0,0,0,1.7044-1.2383l-1.4229-8.2963a1.1744,1.1744,0,0,1,.3378-1.04ZM23.22,18.1787a3.1806,3.1806,0,0,0-.9121,2.8115l.782,4.5606a1.0445,1.0445,0,0,1-1.5155,1.1011L17.4775,24.498a3.1783,3.1783,0,0,0-2.9546,0l-4.0973,2.1539A1.0445,1.0445,0,0,1,8.91,25.5507l.7827-4.5614a3.1787,3.1787,0,0,0-.9112-2.8086L5.465,14.9484a1.0445,1.0445,0,0,1,.5788-1.7817L10.08,12.58a4.2208,4.2208,0,0,0,3.1778-2.3087l1.805-3.6571a1.0445,1.0445,0,0,1,1.8733,0l2.0479,4.15a3.179,3.179,0,0,0,2.3935,1.7369l4.5781.6652a1.0445,1.0445,0,0,1,.5787,1.7817Z"/>
	</g>
	<g id="favored">
		<path d="M17.0533,2.3314,20.7786,9.88a1.1746,1.1746,0,0,0,.8844.6426l8.33,1.21a1.1746,1.1746,0,0,1,.651,2.0035l-6.0276,5.8755a1.1744,1.1744,0,0,0-.3378,1.04l1.4229,8.2963a1.1747,1.1747,0,0,1-1.7044,1.2383l-7.45-3.917a1.1746,1.1746,0,0,0-1.0932,0l-7.45,3.917a1.1747,1.1747,0,0,1-1.7044-1.2383l1.4229-8.2963a1.1744,1.1744,0,0,0-.3378-1.04L1.356,13.7361a1.1746,1.1746,0,0,1,.651-2.0035l8.33-1.21a1.1746,1.1746,0,0,0,.8844-.6426l3.7253-7.5482A1.1745,1.1745,0,0,1,17.0533,2.3314Z"/>
	</g>
	<g id="MK5" fill="#808080">
		<polygon points="6.14 9.44 3.48 0 0 0 0 14 2.4 14 2.4 4.24 4.98 12.44 7.31 12.44 9.89 4.06 9.89 14 12.29 14 12.29 0 8.81 0 6.14 9.44"/><polygon points="23.35 14 26.48 14 21.73 5.78 25.89 0 22.57 0 18 6.94 18 0 15.37 0 15.37 14 18 14 18 10.97 20.01 8.18 23.35 14" /><polygon points="4.75 24.19 2.54 17.23 0.52 17.23 3.99 27.66 5.52 27.66 8.99 17.23 6.97 17.23 4.75 24.19" /><polygon points="11.11 16 10.29 16 10.29 30 11.11 30 12.04 30 13.31 30 13.31 28.25 12.04 28.25 12.04 17.75 13.31 17.75 13.31 16 12.04 16 11.11 16"/><path d="M23.87,23.74a2.72,2.72,0,0,0-1.18-.42,2.88,2.88,0,0,0,1.11-.41,2.07,2.07,0,0,0,.7-.77,2.32,2.32,0,0,0,.24-1.08,2.93,2.93,0,0,0-.38-1.52,2.35,2.35,0,0,0-1.09-1,4,4,0,0,0-1.73-.34H17.29V28.66h4.38a4.14,4.14,0,0,0,1.73-.33,2.48,2.48,0,0,0,1.1-1,3,3,0,0,0,.37-1.54v0a2.73,2.73,0,0,0-.25-1.21A2.12,2.12,0,0,0,23.87,23.74Zm-2.39-3.61a1.39,1.39,0,0,1,.94.28,1,1,0,0,1,.34.78,1.15,1.15,0,0,1-.34.87,1.34,1.34,0,0,1-.94.3H19.26V20.13Zm1.41,5.4a1.14,1.14,0,0,1-.37.91,1.49,1.49,0,0,1-1,.33H19.26V24.26h2.22a1.75,1.75,0,0,1,.76.15,1,1,0,0,1,.49.42,1.32,1.32,0,0,1,.16.68Z" transform="translate(-2.76 -1)" /><polygon points="25.14 16 24.21 16 22.94 16 22.94 17.75 24.21 17.75 24.21 28.25 22.94 28.25 22.94 30 24.21 30 25.14 30 25.96 30 25.96 16 25.14 16"/>
	</g>
	<g id="MK7" fill="#808080">
		<polygon class="cls-1" points="6.14 9.44 3.48 0 0 0 0 14 2.4 14 2.4 4.24 4.98 12.44 7.31 12.44 9.89 4.06 9.89 14 12.29 14 12.29 0 8.81 0 6.14 9.44"/><polygon class="cls-1" points="23.35 14 26.48 14 21.73 5.78 25.89 0 22.57 0 18 6.94 18 0 15.37 0 15.37 14 18 14 18 10.97 20.01 8.18 23.35 14"/><path class="cls-1" d="M5.46,17H8.17l3,9.34,3-9.34h2.72L12.18,31H10.12Z" /><path class="cls-1" d="M21.11,31H18.38V17h2.73Z"/><path class="cls-1" d="M26.54,31H23.81V17h2.73Z"/>
	</g>
	<g id="YOROI" fill="#808080">
		<path d="M20.57,1.25l-.25,0-1.87,2,.58.88-.09.06L18,3.67l-.67.86a1.51,1.51,0,0,1,.95,1.93c-.2,1.26-.44,2.52-.68,3.77a.87.87,0,0,1-1,.77H15.39c-.73,0-1-.21-1.13-.94C14,9,13.82,8,13.59,6.89s-.31-2,1-2.56l-.78-.76-1,.49L12.73,4l.66-.84-1.9-2.06-.18,0a2.72,2.72,0,0,0-.06.69,9.05,9.05,0,0,0,.24,1c.69,2.7,1.37,5.41,2.08,8.1a1.1,1.1,0,0,0,1.26,1c.71,0,1.42,0,2.12,0,1,0,1.24-.21,1.48-1.17Q19.51,6.38,20.56,2A3.13,3.13,0,0,0,20.57,1.25ZM8.29,20.19a1.05,1.05,0,0,0-.14-1.36A10.58,10.58,0,0,1,6.93,6.64a11.09,11.09,0,0,1,3.73-3.85,2.41,2.41,0,0,0,.44-.51l-.2-.17A11.67,11.67,0,0,0,5,8.44,11.85,11.85,0,0,0,5.1,18a4.17,4.17,0,0,0,.65.05,1.32,1.32,0,0,1,1.33.68A16.41,16.41,0,0,0,8.29,20.19ZM20.23,11.7l.59-.74.09.07-.27.87L21.89,13l1.49-3.57L21.7,9V8.71l-1.63-.6c-.36.86-.66,1.67-1,2.44a1.46,1.46,0,0,0,0,1.39c.46,1,.89,2,1.33,3l.69,1.57-.09.06-.52-.42-.07.06,1.23,1.6,1.08-2.17-1-1.66.14-.09-2.44-2.5.09-.09Zm-9.31,4.72-.1-.09.23-.53c.62-1.38,1.24-2.75,1.85-4.13.08-.18.2-.41.14-.56-.38-1-.8-2-1.23-3l-1.64.62.07.59L9.75,9l-1.21.48L10,13l1.21-1.1-.27-1,.1,0,.59.82.74-.48.13.15L9.78,13.86l.25.21L9.2,15.61l1.06,2.1,1.32-1.78-.05,0Zm14.71,1c.57-.46,1.11-.88,1.62-1.33a1.39,1.39,0,0,0,.46-.69,10.66,10.66,0,0,0,.11-4.21,12,12,0,0,0-6.38-9c-.16-.08-.34-.12-.55-.2-.12.55.29.63.54.79a10.64,10.64,0,0,1,4,13.68c-.08.17-.14.35-.22.55Zm-7.19-2.38.35-1.2c-.9-.32-1.72-.62-2.55-.9a.82.82,0,0,0-.46,0c-.89.29-1.77.61-2.71.94l.38,1.2L14.58,15l-.79.94.29,1,1.86-1.18,1.85,1.16.31-.95L17.31,15Zm4.86,8.66c.61-.68,1.34-1.18,1.61-1.87a18.36,18.36,0,0,0,.67-3.33.49.49,0,0,0-.44-.65,3.12,3.12,0,0,0-.27.4c-.52,1.05-1,2.12-1.58,3.15A2.48,2.48,0,0,0,23.3,23.74Zm-11.45-.31c-.93-1.44-1.37-3-2.81-4.1-.06.33-.23.65-.13.83a5,5,0,0,1,.25,2.19.88.88,0,0,0,.22.57c.36.32.77.58,1.14.86Zm5.5-14.91a1.39,1.39,0,0,0-2.78,0A1.38,1.38,0,0,0,16,9.89,1.33,1.33,0,0,0,17.35,8.52ZM5.44,18.46c.21,1.14,2.42,3.89,3.27,4.07A2.8,2.8,0,0,0,8,20.39a6.79,6.79,0,0,1-1-1.35A1.22,1.22,0,0,0,5.44,18.46ZM23.58,20,23.46,20c-1.14,1.1-1.8,2.69-3.4,3.36.36.1.68.06,1,.14a5.81,5.81,0,0,1,.91.44.76.76,0,0,0,.72-.92,3.32,3.32,0,0,1,.51-2.08C23.33,20.64,23.44,20.34,23.58,20Zm2.07.87c1.09-1.25,2.06-3.77,1.73-4.59-.45.53-1,.95-1.22,1.5A21.19,21.19,0,0,0,25.65,20.91Zm-3.57-.54-3.24,1.46v1C20.28,22.34,21.54,21.8,22.08,20.37Zm-10.71-.59-.17.1c.22.65.45,1.3.65,1.95s.39,1.33.58,2l.23,0a4.84,4.84,0,0,0,.3-.8C13.2,21.57,12,20.82,11.37,19.78ZM19.45,1.64c-1.25-.87-5.85-.85-6.87,0a2.66,2.66,0,0,0,.6,0,10.6,10.6,0,0,1,5.59,0A2.14,2.14,0,0,0,19.45,1.64Zm2,23.76a1.45,1.45,0,0,0-1.58.75c-.44.66-.45,1,.05,1.54Zm-10.77,1,.7.57a1.15,1.15,0,0,0,.35-1.5c-.26-.52-.78-.46-1.26-.57Zm4.26.14-.82-.3c-.39.61-1,1.05-1.1,1.75l.12.09ZM15.55,30l.92,1c.59-.37.31-.72.09-1A.59.59,0,0,0,15.55,30Zm7.65-4.46,1,.72.16-.7-1-.5ZM13.84,22.1l.63.42V21.19l-.16,0Zm3.66.64-.05.86.23.06.5-.92Z"/><path d="M20.57,1.25a3.13,3.13,0,0,1,0,.75q-1.05,4.38-2.13,8.76c-.24,1-.51,1.16-1.48,1.17-.7,0-1.41,0-2.12,0a1.1,1.1,0,0,1-1.26-1c-.71-2.69-1.39-5.4-2.08-8.1a9.05,9.05,0,0,1-.24-1,2.72,2.72,0,0,1,.06-.69l.18,0,1.9,2.06L12.73,4l.07.08,1-.49.78.76c-1.28.59-1.19,1.55-1,2.56S14,9,14.26,10.06c.16.73.4.93,1.13.94h1.29a.87.87,0,0,0,1-.77c.24-1.25.48-2.51.68-3.77a1.51,1.51,0,0,0-.95-1.93L18,3.67l.9.51L19,4.12l-.58-.88,1.87-2Z"/><path d="M8.29,20.19a16.41,16.41,0,0,1-1.21-1.47A1.32,1.32,0,0,0,5.75,18,4.17,4.17,0,0,1,5.1,18,11.85,11.85,0,0,1,5,8.44a11.67,11.67,0,0,1,6-6.33l.2.17a2.41,2.41,0,0,1-.44.51A11.09,11.09,0,0,0,6.93,6.64,10.58,10.58,0,0,0,8.15,18.83,1.05,1.05,0,0,1,8.29,20.19Z"/><path d="M20.23,11.7l-.7-.45-.09.09,2.44,2.5-.14.09,1,1.66-1.08,2.17-1.23-1.6.07-.06.52.42.09-.06-.69-1.57c-.44-1-.87-2-1.33-3a1.46,1.46,0,0,1,0-1.39c.38-.77.68-1.58,1-2.44l1.63.6V9l1.68.4L21.89,13,20.64,11.9l.27-.87L20.82,11Z"/><path d="M10.92,16.42l.61-.53.05,0-1.32,1.78L9.2,15.61,10,14.07l-.25-.21,2.73-2.48-.13-.15-.74.48-.59-.82-.1,0,.27,1L10,13,8.54,9.52,9.75,9l.49.27-.07-.59,1.64-.62c.43,1,.85,2,1.23,3,.06.15-.06.38-.14.56-.61,1.38-1.23,2.75-1.85,4.13l-.23.53Z"/><path d="M25.63,17.46l-.46-.37c.08-.2.14-.38.22-.55a10.64,10.64,0,0,0-4-13.68c-.25-.16-.66-.24-.54-.79.21.08.39.12.55.2a12,12,0,0,1,6.38,9,10.66,10.66,0,0,1-.11,4.21,1.39,1.39,0,0,1-.46.69C26.74,16.58,26.2,17,25.63,17.46Z"/><path d="M18.44,15.08,17.31,15l.79.94-.31.95-1.85-1.16-1.86,1.18-.29-1,.79-.94-1.13.13-.38-1.2c.94-.33,1.82-.65,2.71-.94a.82.82,0,0,1,.46,0c.83.28,1.65.58,2.55.9Z"/><path d="M23.3,23.74a2.48,2.48,0,0,1,0-2.3c.56-1,1.06-2.1,1.58-3.15a3.12,3.12,0,0,1,.27-.4.49.49,0,0,1,.44.65,18.36,18.36,0,0,1-.67,3.33C24.64,22.56,23.91,23.06,23.3,23.74Z"/><path d="M11.85,23.43l-1.33.35c-.37-.28-.78-.54-1.14-.86a.88.88,0,0,1-.22-.57,5,5,0,0,0-.25-2.19c-.1-.18.07-.5.13-.83C10.48,20.4,10.92,22,11.85,23.43Z"/><path d="M17.35,8.52A1.33,1.33,0,0,1,16,9.89a1.38,1.38,0,0,1-1.39-1.37,1.39,1.39,0,0,1,2.78,0Z"/><path d="M5.44,18.46A1.22,1.22,0,0,1,6.93,19a6.79,6.79,0,0,0,1,1.35,2.8,2.8,0,0,1,.75,2.14C7.86,22.35,5.65,19.6,5.44,18.46Z"/><path d="M23.58,20c-.14.3-.25.6-.41.87A3.32,3.32,0,0,0,22.66,23a.76.76,0,0,1-.72.92,5.81,5.81,0,0,0-.91-.44c-.29-.08-.61,0-1-.14,1.6-.67,2.26-2.26,3.4-3.36Z"/><path d="M25.65,20.91a21.19,21.19,0,0,1,.51-3.09c.18-.55.77-1,1.22-1.5C27.71,17.14,26.74,19.66,25.65,20.91Z"/><path d="M22.08,20.37c-.54,1.43-1.8,2-3.24,2.42v-1Z"/><path d="M11.37,19.78c.64,1,1.83,1.79,1.59,3.27a4.84,4.84,0,0,1-.3.8l-.23,0c-.19-.66-.37-1.33-.58-2s-.43-1.3-.65-1.95Z"/><path d="M19.45,1.64a2.14,2.14,0,0,1-.68,0,10.6,10.6,0,0,0-5.59,0,2.66,2.66,0,0,1-.6,0C13.6.79,18.2.77,19.45,1.64Z"/><path d="M21.48,25.4,20,27.69c-.5-.52-.49-.88-.05-1.54A1.45,1.45,0,0,1,21.48,25.4Z"/><path d="M10.71,26.37l-.21-1.5c.48.11,1,.05,1.26.57a1.15,1.15,0,0,1-.35,1.5Z"/><path d="M15,26.51l-1.8,1.54L13.05,28c.14-.7.71-1.14,1.1-1.75Z"/><path d="M15.55,30a.59.59,0,0,1,1,0c.22.27.5.62-.09,1Z"/><path d="M23.2,25.54l.18-.48,1,.5-.16.7Z"/><path d="M13.84,22.1l.47-.94.16,0v1.33Z"/><path d="M17.5,22.74h.68l-.5.92-.23-.06Z"/>
	</g>
	<g id="ENTRENCHED" fill="#808080">
		<path d="M16.48,31.5c-.24-.26-.48-.53-.73-.79a1.79,1.79,0,0,0-.28-.2c.3-.39.64-.47.93-.22a1.55,1.55,0,0,1,.44.75c0,.11-.19.3-.29.46ZM15.67,29l.06-.07.08-.16A14.2,14.2,0,0,0,17,23.4c0-4.34,0-8.68,0-13a1,1,0,0,0,0-.24c0-.05-.06-.08-.09-.12s-.1.07-.1.12a2.81,2.81,0,0,0,0,.58,1,1,0,0,1-.43,1,.87.87,0,0,0-.33.8q0,4.49,0,9a10.52,10.52,0,0,1-.16,1.24h-.11a2,2,0,0,1-.25-1.09v-9A1.2,1.2,0,0,0,15,13.83c0,3.31,0,6.63,0,10,0,1,.08,2,.19,3.07.07.71.26,1.4.39,2.11ZM13.2,2.54a11.82,11.82,0,0,0-8,15.73c.23.59.23.59.85.59.19,0,.39,0,.58,0a.41.41,0,0,1,.39.21c.49.64,1,1.27,1.56,2,.06-.27.09-.45.13-.63a.65.65,0,0,0-.19-.67,9.15,9.15,0,0,1-2-3.28A10.19,10.19,0,0,1,7.86,6.79a9.31,9.31,0,0,1,4.05-3.32c.78-.32,1.6-.55,2.43-.82V2.3C13.93,2.38,13.56,2.44,13.2,2.54ZM25.3,18.29l.07,0,1.35-1.15c.08-.06.17-.16.25-.16.26,0,.29-.15.33-.34A11.77,11.77,0,0,0,26,8,11.25,11.25,0,0,0,17.9,2.37c-.11,0-.34,0-.36.12-.06.24.15.22.31.26.55.15,1.11.26,1.64.46a10.26,10.26,0,0,1,5,4.21A9.89,9.89,0,0,1,26,14.18a11.08,11.08,0,0,1-1.2,3.73ZM17.68,9.06a1.39,1.39,0,0,0,.12-.43.88.88,0,0,0-.19-.43s-.22,0-.32.05-.33.07-.35-.17a3.68,3.68,0,0,1,0-.87A11.62,11.62,0,0,0,17,2.93c0-.25,0-.54-.35-.67-.06,0-.09-.17-.1-.26s0-.31,0-.46a.4.4,0,0,0-.44-.44.41.41,0,0,0-.43.45,2.53,2.53,0,0,0,0,.55,1.2,1.2,0,0,1-.4,1.11A.93.93,0,0,0,15,4c0,1.43,0,2.85,0,4.27v.37H17.3l.29.48ZM15.92,5.29c.12.06.31,0,.48,0a.36.36,0,0,1-.38.38.62.62,0,0,1-.42-.28.35.35,0,0,1,.2-.5C15.84,5,15.84,5.25,15.92,5.29Zm8.67,17.5a.65.65,0,0,0,.12-.31c.2-1,.39-2,.58-3.05.1-.54.1-.54-.37-.81H24.8L24,20.34c-.39.78-.77,1.56-1.16,2.35a.69.69,0,0,0-.09.31c.07.44.16.87.27,1.42ZM9.27,21.34a1.59,1.59,0,0,1,.12.7c0,.47-.13,1,.06,1.4s.72.59,1.11.88c0,0,0,0,.07.05a.55.55,0,0,0,.17,0L12,24.09c-.88-1.39-1.36-3-2.7-4A1.13,1.13,0,0,0,9.27,21.34ZM8.83,22a.47.47,0,0,0-.11-.21c-.61-.81-1.22-1.62-1.84-2.42a.3.3,0,0,0-.21-.14c-.34,0-.68,0-1.06,0A12.1,12.1,0,0,0,9,23.47C8.93,22.9,8.89,22.42,8.83,22ZM17.62,9.33a.42.42,0,0,1-.3-.1A.69.69,0,0,0,16.66,9C16.1,9,15.53,9,15,9H12.51v.92H14a.37.37,0,0,0,.16-.07,1.34,1.34,0,0,1,.4-.16c1.49,0,3,0,4.48,0,.2,0,.32,0,.23-.31Zm5.75,11.1-.33.39c-.44.56-.9,1.1-1.33,1.67a3,3,0,0,1-1.33,1.11,1.53,1.53,0,0,0-.4.21,1.86,1.86,0,0,0-.18.23,9.6,9.6,0,0,1,1,.06.93.93,0,0,1,.55.24.49.49,0,0,0,.8.06.57.57,0,0,1,.13-.08.36.36,0,0,0,.24-.43,5.9,5.9,0,0,1,0-.94,2.35,2.35,0,0,1,.18-.75c.25-.57.52-1.13.79-1.69Zm3.73-2.9A.79.79,0,0,0,27,17.3c-.07,0-.15,0-.2.08-.25.23-.46.49-.72.7a1.47,1.47,0,0,0-.56,1.06c-.09.86-.22,1.72-.34,2.59A9.62,9.62,0,0,0,27.1,17.53ZM22,20.9a10.18,10.18,0,0,1-3.16,1.45.25.25,0,0,0-.15.18c0,.33,0,.65,0,1A4.66,4.66,0,0,0,22,20.9ZM15.39,2.22c0-.25,0-.49,0-.74a.68.68,0,0,1,1.35,0c0,.15,0,.3,0,.45a.28.28,0,0,0,.09.17A.36.36,0,0,0,17,2.05l.78-.35c.08,0,.2-.1.21-.17s0-.43-.22-.54a3.38,3.38,0,0,0-.58-.27,2.4,2.4,0,0,0-2.06,0C15.09.8,15,.9,15,1c0,.7,0,1.4,0,2.16C15.39,2.71,15.39,2.71,15.39,2.22ZM13.06,23.67c0-.28,0-.57,0-.85a.53.53,0,0,0-.08-.31c-.46-.66-.94-1.31-1.41-2-.05-.07-.15-.09-.28-.16l1.28,4.17C13,24.26,13.05,24.2,13.06,23.67Zm7.65,2.16a3.56,3.56,0,0,0-1.19,1.33.84.84,0,0,0,.22,1.05,8.48,8.48,0,0,0,1.58-2.4C21.06,25.81,20.82,25.74,20.71,25.83Zm-8.81.06a.35.35,0,0,0-.13-.16l-1.2-.38a2,2,0,0,0,0,.26,1.47,1.47,0,0,1,.19,1.1.26.26,0,0,0,.09.23c.22.21.46.4.69.6A1.33,1.33,0,0,0,11.9,25.89Zm.49,3.49L14,28s.09-.05.09-.08,0-.23,0-.27a5.85,5.85,0,0,0-.56-.27c-.33.46-.67.91-1,1.37a2.53,2.53,0,0,0-.23.56ZM23,26.13a7.06,7.06,0,0,0,.89.73c.29-.67.29-.67-.3-1l-.53-.3C23.05,25.79,22.94,26.05,23,26.13ZM12.28,19.5l.58.38c.35-.48.13-.94,0-1.42Zm6.22,6.21.51-.93-.71-.07C18.1,25.59,18.11,25.66,18.5,25.71ZM7.4,27.25c0,.05.07.08.1.12s.12-.08.13-.13a2.87,2.87,0,0,0,0-.42C7.33,26.9,7.3,27,7.4,27.25Zm12.31-2.44-.39.42h.49Z"/>
	</g>
	<g id="RAKSHASA" fill="#808080">
		<path d="M29.53,17.39v.16c-1.11.37-2.23.74-3.34,1.14a7,7,0,0,0-1,.54,5,5,0,0,0-1.44.36,26.17,26.17,0,0,0-2.41,1.77,2,2,0,0,0-.4.56c-.22.33-.42.67-.68,1.09l-.88-2.18c.19,1.13.41,2.26.67,3.37s.49,2,.74,3.05c.14.55.1.67-.35,1-.25.17-.52.32-.78.49L16.23,31h-.46a5.84,5.84,0,0,0-.48-.39c-1-.66-2.08-1.31-3.12-2a2.79,2.79,0,0,1-1.06-.83L12.67,21l-.09,0-.77,1.9a1.4,1.4,0,0,1-.61-.75A3.6,3.6,0,0,0,10,20.77a9.46,9.46,0,0,1-1.25-.9,2.84,2.84,0,0,0-1.56-.57c-.17,0-.35,0-.6,0,.05-.35-.19-.38-.45-.47-1.22-.4-2.43-.83-3.64-1.24v-.16l3.47-4.25c-.24-.37-.06-.64.16-.9.42-.52.82-1.06,1.27-1.55a1.51,1.51,0,0,0,.44-1.4s0-.1.07-.3l.42-.25A3,3,0,0,0,8,8.27a2.07,2.07,0,0,1-.51-1.55c0-1.91,0-3.81.05-5.72h.16l.64.66C10,3.34,11.7,5,13.35,6.71a1.25,1.25,0,0,0,1,.44c1.13,0,2.26,0,3.39,0a1.16,1.16,0,0,0,.95-.4c.69-.75,1.41-1.49,2.13-2.22C22,3.35,23.12,2.18,24.27,1h.16c0,.28,0,.56,0,.85,0,1.41,0,2.83,0,4.25,0,.92.09,1.86-.74,2.52.61.7.61.7.46,1.46l2.11,2.64-.22.37ZM8.11,14.46c-.47-.18-.89-.31-1.28-.49a.67.67,0,0,0-.88.24L5.27,15,3.49,17.18l.4.16c1,.26,2,.54,3,.76a.77.77,0,0,1,.63.49,13.34,13.34,0,0,1,1.3.53c.45.24.87.54,1.31.8.63.39,1.31.73,1.55,1.63A5.64,5.64,0,0,0,12,18.74l-.71-.15a1.15,1.15,0,0,0-.15.05l-.23.37c-.29-.09-.49-.14-.68-.21-1.38-.52-1.36-.52-1.6-2C8.47,16,8.27,15.24,8.11,14.46Zm17.62-.66-1.8.69-.75,3.78L21.32,19l-.51-.41-.68.15a6.84,6.84,0,0,0,.29,2.89,2.15,2.15,0,0,1,1.28-1.54,10.94,10.94,0,0,0,1.3-.82,2.88,2.88,0,0,1,1.59-.58.88.88,0,0,1,.77-.63c.93-.21,1.84-.47,2.75-.71a3.5,3.5,0,0,0,.46-.19ZM13.61,29.12,16,30.67l2.41-1.55c-.37-.87-.72-1.69-1.08-2.5,0,0-.13,0-.24,0l.09,1.24a7.79,7.79,0,0,1-2.41,0c.06-.34.12-.61.15-.88,0-.11-.08-.23-.12-.35l-.15,0Zm5.75-9.28h.09c0-.38,0-.75,0-1.12a.83.83,0,0,1,.68-.89c.39-.12.75-.34,1.15-.43.63-.14.8-.52.79-1.11a1.42,1.42,0,0,1,.63-1.4c.09-.06.09-.27.15-.48l-1.67.7a1.2,1.2,0,0,0-.45.27c-.73.89-1.44,1.79-2.15,2.68ZM9.17,14.43c.07.24.07.42.15.47a1.37,1.37,0,0,1,.62,1.24c0,1,.1,1,1,1.36.52.18,1,.39,1.57.59v1.75l.1,0,.79-1.81c-.68-.86-1.32-1.68-2-2.5a1.46,1.46,0,0,0-.46-.4C10.44,14.91,9.86,14.7,9.17,14.43ZM23.81,7.21l-.47-.27.57-3.1C23.4,4.47,23,5,22.53,5.54c-.07.07-.17.2-.15.26.17.45-.19.64-.41.9s-.26.36-.42.58a3.27,3.27,0,0,0,1.35.63ZM9.66,5.75,8.24,4l-.1,0,.53,2.88-.46.34,1,.71,1.19-.64C10.33,6.66,9.37,6.54,9.66,5.75Z" />
	</g>
	<g id="CHIMERA" fill="#808080">
		<path d="M12.08 30.56c-.24-.26-.48-.53-.73-.79a1.79 1.79 0 0 0-.28-.2c.3-.39.64-.47.93-.22a1.55 1.55 0 0 1 .44.75c0 .11-.19.3-.29.46Zm8.11-8.71a.65.65 0 0 0 .12-.31c.2-1 .39-2 .58-3.05.1-.54.1-.54-.37-.81h-.12l-.8 1.72c-.39.78-.77 1.56-1.16 2.35a.69.69 0 0 0-.09.31c.07.44.16.87.27 1.42ZM4.87 20.4a1.59 1.59 0 0 1 .12.7c0 .47-.13 1 .06 1.4s.72.59 1.11.88l.07.05a.55.55 0 0 0 .17 0l1.2-.28c-.88-1.39-1.36-3-2.7-4a1.13 1.13 0 0 0-.03 1.25Zm-.44.66a.47.47 0 0 0-.11-.21c-.61-.81-1.22-1.62-1.84-2.42a.3.3 0 0 0-.21-.14H1.21a12.1 12.1 0 0 0 3.39 4.24c-.07-.57-.11-1.05-.17-1.47Zm14.54-1.52-.33.39c-.44.56-.9 1.1-1.33 1.67a3 3 0 0 1-1.33 1.11 1.53 1.53 0 0 0-.4.21 1.86 1.86 0 0 0-.18.23 9.6 9.6 0 0 1 1 .06.93.93 0 0 1 .55.24.49.49 0 0 0 .8.06.57.57 0 0 1 .13-.08.36.36 0 0 0 .24-.43 5.9 5.9 0 0 1 0-.94 2.35 2.35 0 0 1 .18-.75c.25-.57.52-1.13.79-1.69Zm3.73-2.9a.79.79 0 0 0-.1-.28c-.07 0-.15 0-.2.08-.25.23-.46.49-.72.7a1.47 1.47 0 0 0-.56 1.06c-.09.86-.22 1.72-.34 2.59a9.62 9.62 0 0 0 1.92-4.2Zm-5.1 3.32a10.18 10.18 0 0 1-3.16 1.45.25.25 0 0 0-.15.18v1a4.66 4.66 0 0 0 3.31-2.63Zm-8.94 2.77v-.85a.53.53 0 0 0-.08-.31c-.46-.66-.94-1.31-1.41-2-.05-.07-.15-.09-.28-.16l1.28 4.17c.43-.26.48-.32.49-.85Zm7.65 2.16a3.56 3.56 0 0 0-1.19 1.33.84.84 0 0 0 .22 1.05 8.48 8.48 0 0 0 1.58-2.4c-.26 0-.5-.07-.61.02Zm-8.81.06a.35.35 0 0 0-.13-.16l-1.2-.38a2 2 0 0 0 0 .26 1.47 1.47 0 0 1 .19 1.1.26.26 0 0 0 .09.23c.22.21.46.4.69.6a1.33 1.33 0 0 0 .36-1.65Zm.49 3.49 1.61-1.38s.09-.05.09-.08v-.27a5.85 5.85 0 0 0-.56-.27c-.33.46-.67.91-1 1.37a2.53 2.53 0 0 0-.23.56Zm10.61-3.25a7.06 7.06 0 0 0 .89.73c.29-.67.29-.67-.3-1l-.53-.3c-.01.23-.12.49-.06.57ZM7.88 18.56l.58.38c.35-.48.13-.94 0-1.42Zm6.22 6.21.51-.93-.71-.07c-.2.88-.19.95.2 1ZM3 26.31c0 .05.07.08.1.12s.12-.08.13-.13a2.87 2.87 0 0 0 0-.42c-.3.08-.33.18-.23.43Zm12.31-2.44-.39.42h.49ZM13.6 11.62h-2.07V8.41l-2.22 4h2.29v2.65Zm-3.86-1v-1l1.62-2.56v-7L4.14 12.67h4.51Zm3.48 2.85v1l-1.62 2.67v6.85l7.21-12.63h-4.53Zm.69-3.31h4.27l-.72 1.4.45.23 1.08-2.13H13.6l-1.1 2.09.44.24Zm-3.37 2-.44-.25-1.08 1.93h-4l.83-1.54-.45-.24-1.22 2.27h5.15Zm-8.41 3.36a10.19 10.19 0 0 1 1.33-9.67 9.31 9.31 0 0 1 4.05-3.32 15.11 15.11 0 0 1 1.6-.59l.26-.46a5.23 5.23 0 0 0-.57.12 11.82 11.82 0 0 0-8 15.73c.23.59.23.59.85.59h.58a.41.41 0 0 1 .39.21c.49.64 1 1.27 1.56 2 .06-.27.09-.45.13-.63a.65.65 0 0 0-.19-.67 9.15 9.15 0 0 1-1.99-3.31ZM21.6 7.06a11.21 11.21 0 0 0-8.1-5.63c-.43-.08-.79-.14-1.14-.18v.39c.39 0 .77.11 1.09.17a9.66 9.66 0 0 1 1.64.46 10.26 10.26 0 0 1 5 4.21 9.89 9.89 0 0 1 1.51 6.76 11.31 11.31 0 0 1-1.2 3.73l.48.38h.07l1.35-1.15c.08-.06.17-.16.25-.16.26 0 .29-.15.33-.34a11.77 11.77 0 0 0-1.28-8.64Z"/>
	</g>
	<g id="SPI" fill="#808080">
		<path d="M4.28 17.65h-4c-.14 0-.25-.06-.25-.28V.63C.03.41.14.35.28.35h4a.28.28 0 0 1 .3.28v16.74c0 .22-.14.28-.3.28Zm7.26 0h-4c-.13 0-.24-.06-.24-.28V.63c0-.22.11-.28.24-.28h4a.29.29 0 0 1 .31.28v16.74c.04.22-.14.28-.31.28Zm14.12-.74a5.74 5.74 0 0 1-3.7 1.09h-1.89c-3.7 0-5.94-2.05-5.94-5.15v-7.7c0-3.1 2.24-5.15 5.94-5.15h1.89a5.55 5.55 0 0 1 4.14 1.45 8.8 8.8 0 0 1 1.59 2.22c.09.16.17.41-.05.52l-3.4 1.56a.39.39 0 0 1-.52-.22c-.55-1-1.18-1.53-2-1.53h-1.65c-.93 0-1.45.46-1.45 1.15v7.7c0 .69.52 1.15 1.45 1.15h1.65c.82 0 1.45-.55 2-1.53a.39.39 0 0 1 .52-.22l3.4 1.56c.22.11.14.36.05.52a7.44 7.44 0 0 1-2.03 2.58Z"/>
	</g>
	<g id="HAZMAT" fill="#808080">
		<use href="#haz"/>
	</g>
  <g id="hidden" stroke="#fff" fill="none">
    <line class="cls-3" x1="1" y1="16" x2="12.67" y2="16"/>
    <circle cx="16" cy="16" r="0.83"/>
    <line class="cls-3" x1="19.33" y1="16" x2="31" y2="16"/>
  </g>
  <g id="visible" stroke="#fff" fill="none">
    <path class="cls-3" d="M31,16S25.17,8.88,16,8.88,1,16,1,16"/>
    <path class="cls-3" d="M31,16s-5.83,7.12-15,7.12S1,16,1,16"/>
    <circle class="cls-4" cx="16" cy="16" r="7.12"/>
    <circle cx="16" cy="16" r="0.83"/>
  </g>
  <g id="seen" stroke="#fff" fill="none">
    <line class="cls-3" x1="1" y1="16" x2="12.67" y2="16"/>
    <circle cx="16" cy="16" r="0.83"/>
    <line class="cls-3" x1="19.33" y1="16" x2="31" y2="16"/>
    <path class="cls-3" d="M31,16a30.94,30.94,0,0,0-15-3.56A30.94,30.94,0,0,0,1,16"/>
    <path class="cls-3" d="M31,16a30.94,30.94,0,0,1-15,3.56A30.94,30.94,0,0,1,1,16"/>
  </g>
	<g id="Offering">
		<path d="M24,2.11H19L16.89,5.39H10.67L0,23.92H12.74l4.45-6.57h7.4l-1.48,2.39H19L12.15,29.89h5L21,23.62h4.74L32,13.16H14.81l-4.14,6.58h-3L13.63,9.58H19Z"/>
	</g>
</svg>