<svg xmlns="http://www.w3.org/2000/svg" class="svg-icon" width="100%" height="100%" viewBox="0 0 24 24" stroke-width="2" stroke="#fff" fill="none" stroke-linecap="round" stroke-linejoin="round">
	<defs>
		<style>
			g {
			display: none;
			}
			g:target {
			display: flex;
			}
		</style>
	</defs>
		<g id="close-x">
			<path stroke="none" d="M0 0h24v24H0z" fill="none"/>
			<line x1="18" y1="6" x2="6" y2="18" />
			<line x1="6" y1="6" x2="18" y2="18" />
		</g>
		<g id="menu">
			<path stroke="none" d="M0 0h24v24H0z" fill="none"/>
			<line x1="4" y1="6" x2="20" y2="6" />
			<line x1="4" y1="12" x2="20" y2="12" />
			<line x1="4" y1="18" x2="20" y2="18" />
		</g>
		<g id="dots-v">
			<path stroke="none" d="M0 0h24v24H0z" fill="none"/>
			<circle cx="12" cy="12" r="1" />
			<circle cx="12" cy="19" r="1" />
			<circle cx="12" cy="5" r="1" />
		</g>
		<g id="dots-h">
			<path stroke="none" d="M0 0h24v24H0z" fill="none"/>
			<circle cx="5" cy="12" r="1" />
			<circle cx="12" cy="12" r="1" />
			<circle cx="19" cy="12" r="1" />
		</g>
		<g id="dots-d">
			<path stroke="none" d="M0 0h24v24H0z" fill="none"/>
			<circle cx="7" cy="17" r="1" />
			<circle cx="12" cy="12" r="1" />
			<circle cx="17" cy="7" r="1" />
		</g>
		<g id="adjustments-v">
			<path stroke="none" d="M0 0h24v24H0z" fill="none"/>
			<circle cx="6" cy="10" r="2" />
			<line x1="6" y1="4" x2="6" y2="8" />
			<line x1="6" y1="12" x2="6" y2="20" />
			<circle cx="12" cy="16" r="2" />
			<line x1="12" y1="4" x2="12" y2="14" />
			<line x1="12" y1="18" x2="12" y2="20" />
			<circle cx="18" cy="7" r="2" />
			<line x1="18" y1="4" x2="18" y2="5" />
			<line x1="18" y1="9" x2="18" y2="20" />
		</g>
		<g id="grip-v">
			<path stroke="none" d="M0 0h24v24H0z" fill="none"/>
			<circle cx="9" cy="5" r="1" />
			<circle cx="9" cy="12" r="1" />
			<circle cx="9" cy="19" r="1" />
			<circle cx="15" cy="5" r="1" />
			<circle cx="15" cy="12" r="1" />
			<circle cx="15" cy="19" r="1" />
		</g>
		<g id="grip-h">
			<path stroke="none" d="M0 0h24v24H0z" fill="none"/>
			<circle cx="5" cy="9" r="1" />
			<circle cx="5" cy="15" r="1" />
			<circle cx="12" cy="9" r="1" />
			<circle cx="12" cy="15" r="1" />
			<circle cx="19" cy="9" r="1" />
			<circle cx="19" cy="15" r="1" />
		</g>
		<g id="stack">
			<path stroke="none" d="M0 0h24v24H0z" fill="none"/>
			<polyline points="12 4 4 8 12 12 20 8 12 4" />
			<polyline points="4 12 12 16 20 12" />
			<polyline points="4 16 12 20 20 16" />
		</g>
		<g id="search" fill="#fff" stroke-width="1">
			<path d="M23.16,21.74l-6.58-6.58a9,9,0,1,0-1.42,1.42h0l6.58,6.58a1,1,0,0,0,1.42,0A1,1,0,0,0,23.16,21.74ZM9.55,16.55a7,7,0,1,1,7-7A7,7,0,0,1,9.55,16.55Z" />
		</g>
		<g id="settings" fill="#fff" stroke-width="1">
			<path d="M21,10h-.17a1.65,1.65,0,0,1-1.51-1V8.92a1.66,1.66,0,0,1,.33-1.82L19.71,7h0a2,2,0,0,0,0-2.83h0a2,2,0,0,0-2.83,0l-.06.06A1.66,1.66,0,0,1,14,3.09V3a2,2,0,0,0-4,0v.17A1.65,1.65,0,0,1,9,4.68H8.92A1.66,1.66,0,0,1,7.1,4.35L7,4.29H7a2,2,0,0,0-2.83,0h0a2,2,0,0,0,0,2.83l.06.06A1.66,1.66,0,0,1,4.6,9a1.64,1.64,0,0,1-1.51,1.08H3a2,2,0,0,0,0,4h.17A1.66,1.66,0,0,1,4.35,16.9L4.29,17h0a2,2,0,0,0,0,2.83h0a2,2,0,0,0,2.83,0l.06-.06A1.66,1.66,0,0,1,9,19.4a1.64,1.64,0,0,1,1.08,1.51V21a2,2,0,0,0,4,0v-.17a1.66,1.66,0,0,1,2.82-1.18l.06.06h0a2,2,0,0,0,2.83,0h0a2,2,0,0,0,0-2.83l-.06-.06A1.66,1.66,0,0,1,20.91,14H21a2,2,0,0,0,0-4Zm-9,5a3,3,0,1,1,3-3A3,3,0,0,1,12,15Z"/>
		</g>
</svg>