<svg xmlns="http://www.w3.org/2000/svg" class="svg-icon" width="100%" height="100%" viewBox="0 0 24 24" stroke-width="2" stroke="#fff" fill="none" stroke-linecap="round" stroke-linejoin="round">
	<defs>
		<style>
			g {
			display: none;
			}
			g:target {
			display: flex;
			}
		</style>
	</defs>
		<g id="close-x">
			<path stroke="none" d="M0 0h24v24H0z" fill="none"/>
			<line x1="18" y1="6" x2="6" y2="18" />
			<line x1="6" y1="6" x2="18" y2="18" />
		</g>
		<g id="menu">
			<path stroke="none" d="M0 0h24v24H0z" fill="none"/>
			<line x1="4" y1="6" x2="20" y2="6" />
			<line x1="4" y1="12" x2="20" y2="12" />
			<line x1="4" y1="18" x2="20" y2="18" />
		</g>
		<g id="dots-v">
			<path stroke="none" d="M0 0h24v24H0z" fill="none"/>
			<circle cx="12" cy="12" r="1" />
			<circle cx="12" cy="19" r="1" />
			<circle cx="12" cy="5" r="1" />
		</g>
		<g id="dots-h">
			<path stroke="none" d="M0 0h24v24H0z" fill="none"/>
			<circle cx="5" cy="12" r="1" />
			<circle cx="12" cy="12" r="1" />
			<circle cx="19" cy="12" r="1" />
		</g>
		<g id="dots-d">
			<path stroke="none" d="M0 0h24v24H0z" fill="none"/>
			<circle cx="7" cy="17" r="1" />
			<circle cx="12" cy="12" r="1" />
			<circle cx="17" cy="7" r="1" />
		</g>
		<g id="adjustments-v">
			<path stroke="none" d="M0 0h24v24H0z" fill="none"/>
			<circle cx="6" cy="10" r="2" />
			<line x1="6" y1="4" x2="6" y2="8" />
			<line x1="6" y1="12" x2="6" y2="20" />
			<circle cx="12" cy="16" r="2" />
			<line x1="12" y1="4" x2="12" y2="14" />
			<line x1="12" y1="18" x2="12" y2="20" />
			<circle cx="18" cy="7" r="2" />
			<line x1="18" y1="4" x2="18" y2="5" />
			<line x1="18" y1="9" x2="18" y2="20" />
		</g>
		<g id="grip-v">
			<path stroke="none" d="M0 0h24v24H0z" fill="none"/>
			<circle cx="9" cy="5" r="1" />
			<circle cx="9" cy="12" r="1" />
			<circle cx="9" cy="19" r="1" />
			<circle cx="15" cy="5" r="1" />
			<circle cx="15" cy="12" r="1" />
			<circle cx="15" cy="19" r="1" />
		</g>
		<g id="grip-h">
			<path stroke="none" d="M0 0h24v24H0z" fill="none"/>
			<circle cx="5" cy="9" r="1" />
			<circle cx="5" cy="15" r="1" />
			<circle cx="12" cy="9" r="1" />
			<circle cx="12" cy="15" r="1" />
			<circle cx="19" cy="9" r="1" />
			<circle cx="19" cy="15" r="1" />
		</g>
		<g id="stack">
			<path stroke="none" d="M0 0h24v24H0z" fill="none"/>
			<polyline points="12 4 4 8 12 12 20 8 12 4" />
			<polyline points="4 12 12 16 20 12" />
			<polyline points="4 16 12 20 20 16" />
		</g>
		<g id="filter">
			<polygon points="22 3 2 3 10 12.46 10 19 14 21 14 12.46 22 3"></polygon>
		</g>
		<g id="search">
			<circle cx="11" cy="11" r="8"></circle><line x1="21" y1="21" x2="16.65" y2="16.65"></line>
		</g>
		<g id="settings">
			<line x1="4" y1="21" x2="4" y2="14"></line><line x1="4" y1="10" x2="4" y2="3"></line><line x1="12" y1="21" x2="12" y2="12"></line><line x1="12" y1="8" x2="12" y2="3"></line><line x1="20" y1="21" x2="20" y2="16"></line><line x1="20" y1="12" x2="20" y2="3"></line><line x1="1" y1="14" x2="7" y2="14"></line><line x1="9" y1="8" x2="15" y2="8"></line><line x1="17" y1="16" x2="23" y2="16"></line>
		</g>
		<g id="alert">
			<path d="M10.29 3.86L1.82 18a2 2 0 0 0 1.71 3h16.94a2 2 0 0 0 1.71-3L13.71 3.86a2 2 0 0 0-3.42 0z"></path><line x1="12" y1="9" x2="12" y2="13"></line><line x1="12" y1="17" x2="12.01" y2="17"></line>
		</g>
		<g id="info">
			<circle cx="12" cy="12" r="10"></circle><line x1="12" y1="16" x2="12" y2="12"></line><line x1="12" y1="8" x2="12.01" y2="8"></line>
		</g>
		<g id="copy">
			<rect x="9" y="9" width="13" height="13" rx="2" ry="2"></rect><path d="M5 15H4a2 2 0 0 1-2-2V4a2 2 0 0 1 2-2h9a2 2 0 0 1 2 2v1"></path>
		</g>
		<g id="link">
			<path d="M10 13a5 5 0 0 0 7.54.54l3-3a5 5 0 0 0-7.07-7.07l-1.72 1.71"></path><path d="M14 11a5 5 0 0 0-7.54-.54l-3 3a5 5 0 0 0 7.07 7.07l1.71-1.71"></path>
		</g>
		<g id="share">
			<circle cx="18" cy="5" r="3"></circle><circle cx="6" cy="12" r="3"></circle><circle cx="18" cy="19" r="3"></circle><line x1="8.59" y1="13.51" x2="15.42" y2="17.49"></line><line x1="15.41" y1="6.51" x2="8.59" y2="10.49"></line>
		</g>
</svg>