<svg xmlns="http://www.w3.org/2000/svg" class="svg-icon" width="100%" height="100%" viewBox="0 0 32 32" stroke-width="2" stroke="none" fill="#fff" stroke-linecap="round" stroke-linejoin="round">
	<defs>
		<style>
			g {
			display: none;
			}
			g:target {
			display: flex;
			}
		</style>
		<svg id="attachment">
			<path class="cls-1" d="M25.42,14.1l-2.3,2.59h2l-6.55,7.38h-11l3.51-3.59H7L0,27.59H20L32,14.1Z" /><path class="cls-1" d="M14.79,4.11,7.58,11.49v6h11l6.56-7.37v-6Zm.7,1.38h6.33l-4.41,5H10.6Z"/><path d="M15.72,20.19V17.55H14.33v2.64H11.52L15,24.59l3.52-4.4Z"/>
		</svg>
		<svg id="coating">
			<path d="M24.24,9.38c6.2-6.11,5.07-7.73-1.75-2.09s-8.12,7.23-10.17,9c-1.49,1.29-2.26,2-.75,3.31s2.51.73,4.25-.89C18.78,16,24.24,9.38,24.24,9.38Z"/><path d="M11.08,22.71c0-3.08-2.17-2.64-3.26-2.25-1.66.59-4.16,3.08-4.5,4.75a6.6,6.6,0,0,0,0,2.83s1.34-2.41,2.84-2.25S11.08,26.63,11.08,22.71Z"/><path d="M22.32,4.86c-.5-.65-4-1.65-6.29-1.65A11.13,11.13,0,0,0,5.49,9.71c-1,2.15-.32,5.29-.32,5.29S5.16,6,16,6c1.63,0,3.24.73,4.18.75S22.82,5.51,22.32,4.86Zm2.22,6.55c-.22.88.54,2.32.54,3.59a9,9,0,0,1-9,9.05c-1.05,0-2.14-1-3-.52s-2,3.24-2,4.25,3.22,1,5,1A12.79,12.79,0,0,0,28.82,16c0-2.65-1.45-7.14-2.18-7.15S24.75,10.53,24.54,11.41Z"/>
		</svg>
	</defs>
		<g id="default">
			<use href="#attachment"/>
		</g>
		<g id="ArmorCoating">
			<use href="#coating"/>
		</g>
		<g id="ArmorHelmet">
			<use href="#attachment"/>
		</g>
		<g id="ArmorHelmetAttachment">
			<path class="cls-1" d="M25.42,14.1l-2.3,2.59h2l-6.55,7.38h-11l3.51-3.59H7L0,27.59H20L32,14.1Z" /><path class="cls-1" d="M14.79,4.11,7.58,11.49v6h11l6.56-7.37v-6Zm.7,1.38h6.33l-4.41,5H10.6Z"/><path d="M15.72,20.19V17.55H14.33v2.64H11.52L15,24.59l3.52-4.4Z"/>
		</g>
		<g id="ArmorVisor">
			<path d="M19.25,22.85a3.51,3.51,0,0,0,1.79,2c1.08,0,5.75-.21,6.83-1.67s3.38-2.83,3.38-7.46-2-7-15.46-7-15,3.29-15,7,2.29,6,3.37,7.46S9.87,24.89,11,24.89a3.51,3.51,0,0,0,1.79-2A3.9,3.9,0,0,1,16,20.93,3.9,3.9,0,0,1,19.25,22.85Z"/>
		</g>
		<g id="ArmorLeftShoulderPad">
			<path fill-rule="evenodd" clip-rule="evenodd" d="M25.889 11.826a58.413 58.413 0 0 0-3.623-5.378 63.005 63.005 0 0 0-1.787-.155c-.197.692-.39 1.384-.577 2.077a60.451 60.451 0 0 0-7.802 0c-.188-.693-.38-1.385-.577-2.077-.597.043-1.192.094-1.787.155a58.413 58.413 0 0 0-3.623 5.378 55.894 55.894 0 0 0-4.111 2.149 259.739 259.739 0 0 1 2.263 6.241c.982.32 1.941.669 2.874 1.046a63.035 63.035 0 0 1 3.886 6.444c.413-.05.827-.094 1.241-.132.397-.952.826-1.897 1.288-2.836a43.955 43.955 0 0 1 4.897 0c.462.939.891 1.884 1.288 2.836.414.038.828.082 1.24.132a62.992 62.992 0 0 1 3.887-6.444 44.35 44.35 0 0 1 2.874-1.046 257.016 257.016 0 0 1 2.263-6.241 56.97 56.97 0 0 0-4.114-2.149zm-6.948.34a45.692 45.692 0 0 0-5.851 0 894.31 894.31 0 0 1-.104-1.632 47.495 47.495 0 0 1 6.06 0l-.07 1.079-.035.554zm-6.198 4.76a41.816 41.816 0 0 1 6.545 0l.128-1.631.128-1.631a44.948 44.948 0 0 0-7.058 0l.128 1.63.129 1.632z"></path>
		</g>
		<g id="ArmorRightShoulderPad">
			<path fill-rule="evenodd" clip-rule="evenodd" d="M25.889 11.826a58.413 58.413 0 0 0-3.623-5.378 63.005 63.005 0 0 0-1.787-.155c-.197.692-.39 1.384-.577 2.077a60.451 60.451 0 0 0-7.802 0c-.188-.693-.38-1.385-.577-2.077-.597.043-1.192.094-1.787.155a58.413 58.413 0 0 0-3.623 5.378 55.894 55.894 0 0 0-4.111 2.149 259.739 259.739 0 0 1 2.263 6.241c.982.32 1.941.669 2.874 1.046a63.035 63.035 0 0 1 3.886 6.444c.413-.05.827-.094 1.241-.132.397-.952.826-1.897 1.288-2.836a43.955 43.955 0 0 1 4.897 0c.462.939.891 1.884 1.288 2.836.414.038.828.082 1.24.132a62.992 62.992 0 0 1 3.887-6.444 44.35 44.35 0 0 1 2.874-1.046 257.016 257.016 0 0 1 2.263-6.241 56.97 56.97 0 0 0-4.114-2.149zm-6.948.34a45.692 45.692 0 0 0-5.851 0 894.31 894.31 0 0 1-.104-1.632 47.495 47.495 0 0 1 6.06 0l-.07 1.079-.035.554zm-6.198 4.76a41.816 41.816 0 0 1 6.545 0l.128-1.631.128-1.631a44.948 44.948 0 0 0-7.058 0l.128 1.63.129 1.632z"></path>
		</g>
		<g id="ArmorGlove">
			<use href="#attachment"/>
		</g>
		<g id="ArmorChestAttachment">
			<path d="M10.586 17h10.828l1.783 1.783 6.693-3.346L27.654 4h-4.192l-.5 1.75-3.595 2.401L17.987 13h-3.821l-1.38-4.849L9.193 5.75 8.692 4H4.346L2.11 15.437l6.693 3.346L10.586 17zM23.03 21.784l-2.31-2.309H18.28l-1.3 3H15.02l-1.302-3h-2.554l-2.31 2.31-2.838-1.42 2.581 4.157 1.312.58 1.31 3.373h2.03l.835-2h3.834l.836 2H20.678l1.29-3.37 1.318-.583 2.581-4.157-2.838 1.42z"></path>
		</g>
		<g id="ArmorKneePad">
			<use href="#attachment"/>
		</g>
		<g id="ArmorWristAttachment">
			<path fill-rule="evenodd" clip-rule="evenodd" d="M11.83 3.466l1.122-1.122 5.568 4.142-.032 1.863 2.664 2.666 1.967 5.051 5.578 6.083-.172 1.516 1.228 1.845-4.233 4.24-1.843-1.23-1.57.177-6.407-5.565-4.694-1.96-2.663-2.668-1.862.033-4.141-5.57 1.12-1.122 5.18.02 2.027.752 1.936-1.938-.75-2.032-.022-5.18zm11.092 20.696l1.155-1.157L13.95 12.419l-1.54 1.542 10.513 10.2z"></path>
		</g>
		<g id="ArmorHipAttachment">
			<path d="M10 13.353a1 1 0 0 0 1 1h10a1 1 0 0 0 1-1V5H10v8.353zM21 16.353h-3l-.668 1h-2.65l-.682-1h-3c-.352 0-.686-.072-1-.184v9.184L11 27h10l1-1.648v-9.184a2.967 2.967 0 0 1-1 .185zM31 10.648h-7V15l7-1v-3.352zM31 18h-7v4.352l7-1V18zM8 10.648H1V14l7 1v-4.352zM8 18H1v3.352l7 1V18z"></path>
		</g>
		<g id="ArmorEmblem">
			<use href="#attachment"/>
		</g>
		<g id="ArmorFx">
			<path d="M5.37 21.439l5 3.334-3.335-5 3.334-5-5 3.333-5-3.333 3.333 5-3.333 5 5-3.334zM18.767 7.27l3 2-2-3 2-3-3 2-3-2 2 3-2 3 3-2z" fill="#fff"></path><path d="M24.24 19.97L30.503 11l-8.86 6.185L4 2.497l14.627 17.571L9.503 32l12.043-9.21L31.503 30 24.24 19.97z"></path>
		</g>
		<g id="ArmorMythicFx">
			<path d="M5.37 21.439l5 3.334-3.335-5 3.334-5-5 3.333-5-3.333 3.333 5-3.333 5 5-3.334zM18.767 7.27l3 2-2-3 2-3-3 2-3-2 2 3-2 3 3-2z" fill="#fff"></path><path d="M24.24 19.97L30.503 11l-8.86 6.185L4 2.497l14.627 17.571L9.503 32l12.043-9.21L31.503 30 24.24 19.97z"></path>
		</g>
		<g id="ArmorTheme">
			<path d="M9.558 17.102l13.187-7.326L16 7 2.94 13.53l6.618 3.572zM11.646 18.229l2.432 1.312c.51.277.95.646 1.312 1.096l.86 1.074 13.477-7.58-.32-1.016a1.54 1.54 0 0 0-.882-.961L25.11 10.75l-13.464 7.479zM15 23.35l-1.172-1.461a2.333 2.333 0 0 0-.703-.59L2 15.296V19l13 7.652V23.35zM17 23.585v3.083l12.791-7.309A.413.413 0 0 0 30 19v-2.728l-13 7.313z"></path>
		</g>
		<g id="ArmorCore">
			<use href="#attachment"/>
		</g>
		<g id="SpartanEmblem">
			<use href="#attachment"/>
		</g>
		<g id="WeaponCoating">
			<use href="#coating"/>
		</g>
		<g id="WeaponEmblem">
			<use href="#attachment"/>
		</g>
		<g id="WeaponCore">
			<use href="#attachment"/>
		</g>
		<g id="VehicleCoating">
			<use href="#coating"/>
		</g>
		<g id="VehicleEmblem">
			<use href="#attachment"/>
		</g>
		<g id="VehicleCore">
			<use href="#attachment"/>
		</g>
</svg>