<svg xmlns="http://www.w3.org/2000/svg" class="svg-icon" width="100%" height="32px" viewBox="0 0 32 32" stroke-width="2" stroke="none" fill="#fff" stroke-linecap="round" stroke-linejoin="round" preserveAspectRatio="xMidYMin">
	<defs>
		<style>
			g {
			display: none;
			}
			g:target {
			display: flex;
			}
		</style>
		<svg id="attachment">
			<path class="cls-1" d="M25.42,14.1l-2.3,2.59h2l-6.55,7.38h-11l3.51-3.59H7L0,27.59H20L32,14.1Z" /><path class="cls-1" d="M14.79,4.11,7.58,11.49v6h11l6.56-7.37v-6Zm.7,1.38h6.33l-4.41,5H10.6Z"/><path d="M15.72,20.19V17.55H14.33v2.64H11.52L15,24.59l3.52-4.4Z"/>
		</svg>
		<svg id="coating">
			<path d="M24.24,9.38c6.2-6.11,5.07-7.73-1.75-2.09s-8.12,7.23-10.17,9c-1.49,1.29-2.26,2-.75,3.31s2.51.73,4.25-.89C18.78,16,24.24,9.38,24.24,9.38Z"/><path d="M11.08,22.71c0-3.08-2.17-2.64-3.26-2.25-1.66.59-4.16,3.08-4.5,4.75a6.6,6.6,0,0,0,0,2.83s1.34-2.41,2.84-2.25S11.08,26.63,11.08,22.71Z"/><path d="M22.32,4.86c-.5-.65-4-1.65-6.29-1.65A11.13,11.13,0,0,0,5.49,9.71c-1,2.15-.32,5.29-.32,5.29S5.16,6,16,6c1.63,0,3.24.73,4.18.75S22.82,5.51,22.32,4.86Zm2.22,6.55c-.22.88.54,2.32.54,3.59a9,9,0,0,1-9,9.05c-1.05,0-2.14-1-3-.52s-2,3.24-2,4.25,3.22,1,5,1A12.79,12.79,0,0,0,28.82,16c0-2.65-1.45-7.14-2.18-7.15S24.75,10.53,24.54,11.41Z"/>
		</svg>
	</defs>
	<g id="default">
		<use href="#attachment"/>
	</g>
	<g id="ArmorCoating">
		<use href="#coating"/>
	</g>
	<g id="ArmorHelmet">
		<use href="#attachment"/>
	</g>
	<g id="ArmorHelmetAttachment">
		<path class="cls-1" d="M25.42,14.1l-2.3,2.59h2l-6.55,7.38h-11l3.51-3.59H7L0,27.59H20L32,14.1Z" /><path class="cls-1" d="M14.79,4.11,7.58,11.49v6h11l6.56-7.37v-6Zm.7,1.38h6.33l-4.41,5H10.6Z"/><path d="M15.72,20.19V17.55H14.33v2.64H11.52L15,24.59l3.52-4.4Z"/>
	</g>
	<g id="ArmorVisor">
		<path d="M19.25,22.85a3.51,3.51,0,0,0,1.79,2c1.08,0,5.75-.21,6.83-1.67s3.38-2.83,3.38-7.46-2-7-15.46-7-15,3.29-15,7,2.29,6,3.37,7.46S9.87,24.89,11,24.89a3.51,3.51,0,0,0,1.79-2A3.9,3.9,0,0,1,16,20.93,3.9,3.9,0,0,1,19.25,22.85Z"/>
	</g>
	<g id="ArmorLeftShoulderPad">
		<path fill-rule="evenodd" clip-rule="evenodd" d="M25.889 11.826a58.413 58.413 0 0 0-3.623-5.378 63.005 63.005 0 0 0-1.787-.155c-.197.692-.39 1.384-.577 2.077a60.451 60.451 0 0 0-7.802 0c-.188-.693-.38-1.385-.577-2.077-.597.043-1.192.094-1.787.155a58.413 58.413 0 0 0-3.623 5.378 55.894 55.894 0 0 0-4.111 2.149 259.739 259.739 0 0 1 2.263 6.241c.982.32 1.941.669 2.874 1.046a63.035 63.035 0 0 1 3.886 6.444c.413-.05.827-.094 1.241-.132.397-.952.826-1.897 1.288-2.836a43.955 43.955 0 0 1 4.897 0c.462.939.891 1.884 1.288 2.836.414.038.828.082 1.24.132a62.992 62.992 0 0 1 3.887-6.444 44.35 44.35 0 0 1 2.874-1.046 257.016 257.016 0 0 1 2.263-6.241 56.97 56.97 0 0 0-4.114-2.149zm-6.948.34a45.692 45.692 0 0 0-5.851 0 894.31 894.31 0 0 1-.104-1.632 47.495 47.495 0 0 1 6.06 0l-.07 1.079-.035.554zm-6.198 4.76a41.816 41.816 0 0 1 6.545 0l.128-1.631.128-1.631a44.948 44.948 0 0 0-7.058 0l.128 1.63.129 1.632z"></path>
	</g>
	<g id="ArmorRightShoulderPad">
		<path fill-rule="evenodd" clip-rule="evenodd" d="M25.889 11.826a58.413 58.413 0 0 0-3.623-5.378 63.005 63.005 0 0 0-1.787-.155c-.197.692-.39 1.384-.577 2.077a60.451 60.451 0 0 0-7.802 0c-.188-.693-.38-1.385-.577-2.077-.597.043-1.192.094-1.787.155a58.413 58.413 0 0 0-3.623 5.378 55.894 55.894 0 0 0-4.111 2.149 259.739 259.739 0 0 1 2.263 6.241c.982.32 1.941.669 2.874 1.046a63.035 63.035 0 0 1 3.886 6.444c.413-.05.827-.094 1.241-.132.397-.952.826-1.897 1.288-2.836a43.955 43.955 0 0 1 4.897 0c.462.939.891 1.884 1.288 2.836.414.038.828.082 1.24.132a62.992 62.992 0 0 1 3.887-6.444 44.35 44.35 0 0 1 2.874-1.046 257.016 257.016 0 0 1 2.263-6.241 56.97 56.97 0 0 0-4.114-2.149zm-6.948.34a45.692 45.692 0 0 0-5.851 0 894.31 894.31 0 0 1-.104-1.632 47.495 47.495 0 0 1 6.06 0l-.07 1.079-.035.554zm-6.198 4.76a41.816 41.816 0 0 1 6.545 0l.128-1.631.128-1.631a44.948 44.948 0 0 0-7.058 0l.128 1.63.129 1.632z"></path>
	</g>
	<g id="ArmorGlove">
		<use href="#attachment"/>
	</g>
	<g id="ArmorChestAttachment">
		<path d="M10.586 17h10.828l1.783 1.783 6.693-3.346L27.654 4h-4.192l-.5 1.75-3.595 2.401L17.987 13h-3.821l-1.38-4.849L9.193 5.75 8.692 4H4.346L2.11 15.437l6.693 3.346L10.586 17zM23.03 21.784l-2.31-2.309H18.28l-1.3 3H15.02l-1.302-3h-2.554l-2.31 2.31-2.838-1.42 2.581 4.157 1.312.58 1.31 3.373h2.03l.835-2h3.834l.836 2H20.678l1.29-3.37 1.318-.583 2.581-4.157-2.838 1.42z"></path>
	</g>
	<g id="ArmorKneePad">
		<use href="#attachment"/>
	</g>
	<g id="ArmorWristAttachment">
		<path fill-rule="evenodd" clip-rule="evenodd" d="M11.83 3.466l1.122-1.122 5.568 4.142-.032 1.863 2.664 2.666 1.967 5.051 5.578 6.083-.172 1.516 1.228 1.845-4.233 4.24-1.843-1.23-1.57.177-6.407-5.565-4.694-1.96-2.663-2.668-1.862.033-4.141-5.57 1.12-1.122 5.18.02 2.027.752 1.936-1.938-.75-2.032-.022-5.18zm11.092 20.696l1.155-1.157L13.95 12.419l-1.54 1.542 10.513 10.2z"></path>
	</g>
	<g id="ArmorHipAttachment">
		<path d="M10 13.353a1 1 0 0 0 1 1h10a1 1 0 0 0 1-1V5H10v8.353zM21 16.353h-3l-.668 1h-2.65l-.682-1h-3c-.352 0-.686-.072-1-.184v9.184L11 27h10l1-1.648v-9.184a2.967 2.967 0 0 1-1 .185zM31 10.648h-7V15l7-1v-3.352zM31 18h-7v4.352l7-1V18zM8 10.648H1V14l7 1v-4.352zM8 18H1v3.352l7 1V18z"></path>
	</g>
	<g id="ArmorEmblem">
		<use href="#attachment"/>
	</g>
	<g id="ArmorFx">
		<path d="M5.37 21.439l5 3.334-3.335-5 3.334-5-5 3.333-5-3.333 3.333 5-3.333 5 5-3.334zM18.767 7.27l3 2-2-3 2-3-3 2-3-2 2 3-2 3 3-2z" fill="#fff"></path><path d="M24.24 19.97L30.503 11l-8.86 6.185L4 2.497l14.627 17.571L9.503 32l12.043-9.21L31.503 30 24.24 19.97z"></path>
	</g>
	<g id="ArmorMythicFx">
		<path d="M5.37 21.439l5 3.334-3.335-5 3.334-5-5 3.333-5-3.333 3.333 5-3.333 5 5-3.334zM18.767 7.27l3 2-2-3 2-3-3 2-3-2 2 3-2 3 3-2z" fill="#fff"></path><path d="M24.24 19.97L30.503 11l-8.86 6.185L4 2.497l14.627 17.571L9.503 32l12.043-9.21L31.503 30 24.24 19.97z"></path>
	</g>
	<g id="ArmorTheme">
		<path d="M9.558 17.102l13.187-7.326L16 7 2.94 13.53l6.618 3.572zM11.646 18.229l2.432 1.312c.51.277.95.646 1.312 1.096l.86 1.074 13.477-7.58-.32-1.016a1.54 1.54 0 0 0-.882-.961L25.11 10.75l-13.464 7.479zM15 23.35l-1.172-1.461a2.333 2.333 0 0 0-.703-.59L2 15.296V19l13 7.652V23.35zM17 23.585v3.083l12.791-7.309A.413.413 0 0 0 30 19v-2.728l-13 7.313z"></path>
	</g>
	<g id="ArmorCore">
		<use href="#attachment"/>
	</g>
	<g id="SpartanEmblem">
		<use href="#attachment"/>
	</g>
	<g id="WeaponCoating">
		<use href="#coating"/>
	</g>
	<g id="WeaponEmblem">
		<use href="#attachment"/>
	</g>
	<g id="WeaponCore">
		<use href="#attachment"/>
	</g>
	<g id="VehicleCoating">
		<use href="#coating"/>
	</g>
	<g id="VehicleEmblem">
		<use href="#attachment"/>
	</g>
	<g id="VehicleCore">
		<use href="#attachment"/>
	</g>
	<g id="unfavored">
		<path d="M30.644,13.7361a1.1747,1.1747,0,0,0-.651-2.0036l-8.33-1.21a1.1748,1.1748,0,0,1-.8844-.6426L17.0533,2.3314a1.1745,1.1745,0,0,0-2.1066,0L11.2214,9.88a1.1748,1.1748,0,0,1-.8844.6426l-8.33,1.21a1.1747,1.1747,0,0,0-.651,2.0036l6.0276,5.8755a1.1744,1.1744,0,0,1,.3378,1.04L6.2985,28.9476a1.1747,1.1747,0,0,0,1.7044,1.2383l7.4505-3.917a1.1746,1.1746,0,0,1,1.0932,0l7.45,3.917a1.1747,1.1747,0,0,0,1.7044-1.2383l-1.4229-8.2963a1.1744,1.1744,0,0,1,.3378-1.04ZM23.22,18.1787a3.1806,3.1806,0,0,0-.9121,2.8115l.782,4.5606a1.0445,1.0445,0,0,1-1.5155,1.1011L17.4775,24.498a3.1783,3.1783,0,0,0-2.9546,0l-4.0973,2.1539A1.0445,1.0445,0,0,1,8.91,25.5507l.7827-4.5614a3.1787,3.1787,0,0,0-.9112-2.8086L5.465,14.9484a1.0445,1.0445,0,0,1,.5788-1.7817L10.08,12.58a4.2208,4.2208,0,0,0,3.1778-2.3087l1.805-3.6571a1.0445,1.0445,0,0,1,1.8733,0l2.0479,4.15a3.179,3.179,0,0,0,2.3935,1.7369l4.5781.6652a1.0445,1.0445,0,0,1,.5787,1.7817Z"/>
	</g>
	<g id="favored">
		<path d="M17.0533,2.3314,20.7786,9.88a1.1746,1.1746,0,0,0,.8844.6426l8.33,1.21a1.1746,1.1746,0,0,1,.651,2.0035l-6.0276,5.8755a1.1744,1.1744,0,0,0-.3378,1.04l1.4229,8.2963a1.1747,1.1747,0,0,1-1.7044,1.2383l-7.45-3.917a1.1746,1.1746,0,0,0-1.0932,0l-7.45,3.917a1.1747,1.1747,0,0,1-1.7044-1.2383l1.4229-8.2963a1.1744,1.1744,0,0,0-.3378-1.04L1.356,13.7361a1.1746,1.1746,0,0,1,.651-2.0035l8.33-1.21a1.1746,1.1746,0,0,0,.8844-.6426l3.7253-7.5482A1.1745,1.1745,0,0,1,17.0533,2.3314Z"/>
	</g>
	<g id="MK5" fill="#808080">
		<polygon points="6.14 9.44 3.48 0 0 0 0 14 2.4 14 2.4 4.24 4.98 12.44 7.31 12.44 9.89 4.06 9.89 14 12.29 14 12.29 0 8.81 0 6.14 9.44"/><polygon points="23.35 14 26.48 14 21.73 5.78 25.89 0 22.57 0 18 6.94 18 0 15.37 0 15.37 14 18 14 18 10.97 20.01 8.18 23.35 14" /><polygon points="4.75 24.19 2.54 17.23 0.52 17.23 3.99 27.66 5.52 27.66 8.99 17.23 6.97 17.23 4.75 24.19" /><polygon points="11.11 16 10.29 16 10.29 30 11.11 30 12.04 30 13.31 30 13.31 28.25 12.04 28.25 12.04 17.75 13.31 17.75 13.31 16 12.04 16 11.11 16"/><path d="M23.87,23.74a2.72,2.72,0,0,0-1.18-.42,2.88,2.88,0,0,0,1.11-.41,2.07,2.07,0,0,0,.7-.77,2.32,2.32,0,0,0,.24-1.08,2.93,2.93,0,0,0-.38-1.52,2.35,2.35,0,0,0-1.09-1,4,4,0,0,0-1.73-.34H17.29V28.66h4.38a4.14,4.14,0,0,0,1.73-.33,2.48,2.48,0,0,0,1.1-1,3,3,0,0,0,.37-1.54v0a2.73,2.73,0,0,0-.25-1.21A2.12,2.12,0,0,0,23.87,23.74Zm-2.39-3.61a1.39,1.39,0,0,1,.94.28,1,1,0,0,1,.34.78,1.15,1.15,0,0,1-.34.87,1.34,1.34,0,0,1-.94.3H19.26V20.13Zm1.41,5.4a1.14,1.14,0,0,1-.37.91,1.49,1.49,0,0,1-1,.33H19.26V24.26h2.22a1.75,1.75,0,0,1,.76.15,1,1,0,0,1,.49.42,1.32,1.32,0,0,1,.16.68Z" transform="translate(-2.76 -1)" /><polygon points="25.14 16 24.21 16 22.94 16 22.94 17.75 24.21 17.75 24.21 28.25 22.94 28.25 22.94 30 24.21 30 25.14 30 25.96 30 25.96 16 25.14 16"/>
	</g>
	<g id="MK7" fill="#808080">
		<polygon class="cls-1" points="6.14 9.44 3.48 0 0 0 0 14 2.4 14 2.4 4.24 4.98 12.44 7.31 12.44 9.89 4.06 9.89 14 12.29 14 12.29 0 8.81 0 6.14 9.44"/><polygon class="cls-1" points="23.35 14 26.48 14 21.73 5.78 25.89 0 22.57 0 18 6.94 18 0 15.37 0 15.37 14 18 14 18 10.97 20.01 8.18 23.35 14"/><path class="cls-1" d="M5.46,17H8.17l3,9.34,3-9.34h2.72L12.18,31H10.12Z" /><path class="cls-1" d="M21.11,31H18.38V17h2.73Z"/><path class="cls-1" d="M26.54,31H23.81V17h2.73Z"/>
	</g>
	<g id="YOROI" fill="#808080">
		<path d="M20.57,1.25l-.25,0-1.87,2,.58.88-.09.06L18,3.67l-.67.86a1.51,1.51,0,0,1,.95,1.93c-.2,1.26-.44,2.52-.68,3.77a.87.87,0,0,1-1,.77H15.39c-.73,0-1-.21-1.13-.94C14,9,13.82,8,13.59,6.89s-.31-2,1-2.56l-.78-.76-1,.49L12.73,4l.66-.84-1.9-2.06-.18,0a2.72,2.72,0,0,0-.06.69,9.05,9.05,0,0,0,.24,1c.69,2.7,1.37,5.41,2.08,8.1a1.1,1.1,0,0,0,1.26,1c.71,0,1.42,0,2.12,0,1,0,1.24-.21,1.48-1.17Q19.51,6.38,20.56,2A3.13,3.13,0,0,0,20.57,1.25ZM8.29,20.19a1.05,1.05,0,0,0-.14-1.36A10.58,10.58,0,0,1,6.93,6.64a11.09,11.09,0,0,1,3.73-3.85,2.41,2.41,0,0,0,.44-.51l-.2-.17A11.67,11.67,0,0,0,5,8.44,11.85,11.85,0,0,0,5.1,18a4.17,4.17,0,0,0,.65.05,1.32,1.32,0,0,1,1.33.68A16.41,16.41,0,0,0,8.29,20.19ZM20.23,11.7l.59-.74.09.07-.27.87L21.89,13l1.49-3.57L21.7,9V8.71l-1.63-.6c-.36.86-.66,1.67-1,2.44a1.46,1.46,0,0,0,0,1.39c.46,1,.89,2,1.33,3l.69,1.57-.09.06-.52-.42-.07.06,1.23,1.6,1.08-2.17-1-1.66.14-.09-2.44-2.5.09-.09Zm-9.31,4.72-.1-.09.23-.53c.62-1.38,1.24-2.75,1.85-4.13.08-.18.2-.41.14-.56-.38-1-.8-2-1.23-3l-1.64.62.07.59L9.75,9l-1.21.48L10,13l1.21-1.1-.27-1,.1,0,.59.82.74-.48.13.15L9.78,13.86l.25.21L9.2,15.61l1.06,2.1,1.32-1.78-.05,0Zm14.71,1c.57-.46,1.11-.88,1.62-1.33a1.39,1.39,0,0,0,.46-.69,10.66,10.66,0,0,0,.11-4.21,12,12,0,0,0-6.38-9c-.16-.08-.34-.12-.55-.2-.12.55.29.63.54.79a10.64,10.64,0,0,1,4,13.68c-.08.17-.14.35-.22.55Zm-7.19-2.38.35-1.2c-.9-.32-1.72-.62-2.55-.9a.82.82,0,0,0-.46,0c-.89.29-1.77.61-2.71.94l.38,1.2L14.58,15l-.79.94.29,1,1.86-1.18,1.85,1.16.31-.95L17.31,15Zm4.86,8.66c.61-.68,1.34-1.18,1.61-1.87a18.36,18.36,0,0,0,.67-3.33.49.49,0,0,0-.44-.65,3.12,3.12,0,0,0-.27.4c-.52,1.05-1,2.12-1.58,3.15A2.48,2.48,0,0,0,23.3,23.74Zm-11.45-.31c-.93-1.44-1.37-3-2.81-4.1-.06.33-.23.65-.13.83a5,5,0,0,1,.25,2.19.88.88,0,0,0,.22.57c.36.32.77.58,1.14.86Zm5.5-14.91a1.39,1.39,0,0,0-2.78,0A1.38,1.38,0,0,0,16,9.89,1.33,1.33,0,0,0,17.35,8.52ZM5.44,18.46c.21,1.14,2.42,3.89,3.27,4.07A2.8,2.8,0,0,0,8,20.39a6.79,6.79,0,0,1-1-1.35A1.22,1.22,0,0,0,5.44,18.46ZM23.58,20,23.46,20c-1.14,1.1-1.8,2.69-3.4,3.36.36.1.68.06,1,.14a5.81,5.81,0,0,1,.91.44.76.76,0,0,0,.72-.92,3.32,3.32,0,0,1,.51-2.08C23.33,20.64,23.44,20.34,23.58,20Zm2.07.87c1.09-1.25,2.06-3.77,1.73-4.59-.45.53-1,.95-1.22,1.5A21.19,21.19,0,0,0,25.65,20.91Zm-3.57-.54-3.24,1.46v1C20.28,22.34,21.54,21.8,22.08,20.37Zm-10.71-.59-.17.1c.22.65.45,1.3.65,1.95s.39,1.33.58,2l.23,0a4.84,4.84,0,0,0,.3-.8C13.2,21.57,12,20.82,11.37,19.78ZM19.45,1.64c-1.25-.87-5.85-.85-6.87,0a2.66,2.66,0,0,0,.6,0,10.6,10.6,0,0,1,5.59,0A2.14,2.14,0,0,0,19.45,1.64Zm2,23.76a1.45,1.45,0,0,0-1.58.75c-.44.66-.45,1,.05,1.54Zm-10.77,1,.7.57a1.15,1.15,0,0,0,.35-1.5c-.26-.52-.78-.46-1.26-.57Zm4.26.14-.82-.3c-.39.61-1,1.05-1.1,1.75l.12.09ZM15.55,30l.92,1c.59-.37.31-.72.09-1A.59.59,0,0,0,15.55,30Zm7.65-4.46,1,.72.16-.7-1-.5ZM13.84,22.1l.63.42V21.19l-.16,0Zm3.66.64-.05.86.23.06.5-.92Z"/><path d="M20.57,1.25a3.13,3.13,0,0,1,0,.75q-1.05,4.38-2.13,8.76c-.24,1-.51,1.16-1.48,1.17-.7,0-1.41,0-2.12,0a1.1,1.1,0,0,1-1.26-1c-.71-2.69-1.39-5.4-2.08-8.1a9.05,9.05,0,0,1-.24-1,2.72,2.72,0,0,1,.06-.69l.18,0,1.9,2.06L12.73,4l.07.08,1-.49.78.76c-1.28.59-1.19,1.55-1,2.56S14,9,14.26,10.06c.16.73.4.93,1.13.94h1.29a.87.87,0,0,0,1-.77c.24-1.25.48-2.51.68-3.77a1.51,1.51,0,0,0-.95-1.93L18,3.67l.9.51L19,4.12l-.58-.88,1.87-2Z"/><path d="M8.29,20.19a16.41,16.41,0,0,1-1.21-1.47A1.32,1.32,0,0,0,5.75,18,4.17,4.17,0,0,1,5.1,18,11.85,11.85,0,0,1,5,8.44a11.67,11.67,0,0,1,6-6.33l.2.17a2.41,2.41,0,0,1-.44.51A11.09,11.09,0,0,0,6.93,6.64,10.58,10.58,0,0,0,8.15,18.83,1.05,1.05,0,0,1,8.29,20.19Z"/><path d="M20.23,11.7l-.7-.45-.09.09,2.44,2.5-.14.09,1,1.66-1.08,2.17-1.23-1.6.07-.06.52.42.09-.06-.69-1.57c-.44-1-.87-2-1.33-3a1.46,1.46,0,0,1,0-1.39c.38-.77.68-1.58,1-2.44l1.63.6V9l1.68.4L21.89,13,20.64,11.9l.27-.87L20.82,11Z"/><path d="M10.92,16.42l.61-.53.05,0-1.32,1.78L9.2,15.61,10,14.07l-.25-.21,2.73-2.48-.13-.15-.74.48-.59-.82-.1,0,.27,1L10,13,8.54,9.52,9.75,9l.49.27-.07-.59,1.64-.62c.43,1,.85,2,1.23,3,.06.15-.06.38-.14.56-.61,1.38-1.23,2.75-1.85,4.13l-.23.53Z"/><path d="M25.63,17.46l-.46-.37c.08-.2.14-.38.22-.55a10.64,10.64,0,0,0-4-13.68c-.25-.16-.66-.24-.54-.79.21.08.39.12.55.2a12,12,0,0,1,6.38,9,10.66,10.66,0,0,1-.11,4.21,1.39,1.39,0,0,1-.46.69C26.74,16.58,26.2,17,25.63,17.46Z"/><path d="M18.44,15.08,17.31,15l.79.94-.31.95-1.85-1.16-1.86,1.18-.29-1,.79-.94-1.13.13-.38-1.2c.94-.33,1.82-.65,2.71-.94a.82.82,0,0,1,.46,0c.83.28,1.65.58,2.55.9Z"/><path d="M23.3,23.74a2.48,2.48,0,0,1,0-2.3c.56-1,1.06-2.1,1.58-3.15a3.12,3.12,0,0,1,.27-.4.49.49,0,0,1,.44.65,18.36,18.36,0,0,1-.67,3.33C24.64,22.56,23.91,23.06,23.3,23.74Z"/><path d="M11.85,23.43l-1.33.35c-.37-.28-.78-.54-1.14-.86a.88.88,0,0,1-.22-.57,5,5,0,0,0-.25-2.19c-.1-.18.07-.5.13-.83C10.48,20.4,10.92,22,11.85,23.43Z"/><path d="M17.35,8.52A1.33,1.33,0,0,1,16,9.89a1.38,1.38,0,0,1-1.39-1.37,1.39,1.39,0,0,1,2.78,0Z"/><path d="M5.44,18.46A1.22,1.22,0,0,1,6.93,19a6.79,6.79,0,0,0,1,1.35,2.8,2.8,0,0,1,.75,2.14C7.86,22.35,5.65,19.6,5.44,18.46Z"/><path d="M23.58,20c-.14.3-.25.6-.41.87A3.32,3.32,0,0,0,22.66,23a.76.76,0,0,1-.72.92,5.81,5.81,0,0,0-.91-.44c-.29-.08-.61,0-1-.14,1.6-.67,2.26-2.26,3.4-3.36Z"/><path d="M25.65,20.91a21.19,21.19,0,0,1,.51-3.09c.18-.55.77-1,1.22-1.5C27.71,17.14,26.74,19.66,25.65,20.91Z"/><path d="M22.08,20.37c-.54,1.43-1.8,2-3.24,2.42v-1Z"/><path d="M11.37,19.78c.64,1,1.83,1.79,1.59,3.27a4.84,4.84,0,0,1-.3.8l-.23,0c-.19-.66-.37-1.33-.58-2s-.43-1.3-.65-1.95Z"/><path d="M19.45,1.64a2.14,2.14,0,0,1-.68,0,10.6,10.6,0,0,0-5.59,0,2.66,2.66,0,0,1-.6,0C13.6.79,18.2.77,19.45,1.64Z"/><path d="M21.48,25.4,20,27.69c-.5-.52-.49-.88-.05-1.54A1.45,1.45,0,0,1,21.48,25.4Z"/><path d="M10.71,26.37l-.21-1.5c.48.11,1,.05,1.26.57a1.15,1.15,0,0,1-.35,1.5Z"/><path d="M15,26.51l-1.8,1.54L13.05,28c.14-.7.71-1.14,1.1-1.75Z"/><path d="M15.55,30a.59.59,0,0,1,1,0c.22.27.5.62-.09,1Z"/><path d="M23.2,25.54l.18-.48,1,.5-.16.7Z"/><path d="M13.84,22.1l.47-.94.16,0v1.33Z"/><path d="M17.5,22.74h.68l-.5.92-.23-.06Z"/>
	</g>
	<g id="ENTRENCHED" fill="#808080">
		<path d="M15,10.23H12.71l-.43-.87c1.18-.87,6.28-.92,7.45-.07l-.44.92H17c0,.5-.09.91-.1,1.33,0,1.34,0,2.68-.08,4s-.09,2.65-.13,4c0,.7-.05,1.4-.07,2.11-.05,1.2-.08,2.4-.14,3.6s-.12,2.12-.21,3.17c-.06.7-.17,1.39-.26,2.09H15.9c-.05-.33-.14-.66-.17-1-.08-1.05-.15-2.09-.21-3.14s-.09-2.22-.13-3.33c-.05-1.39-.1-2.79-.14-4.18,0-.68-.05-1.36-.07-2,0-1.37-.1-2.74-.13-4.11C15,11.91,15,11.11,15,10.23ZM15.89,25H16a2,2,0,0,0,0-.24c0-.81.05-1.61.07-2.42s0-1.65.07-2.48l.06-2.42c0-.95.05-1.9.07-2.86,0-.58,0-1.16,0-1.74V10.42h-.78c0,.37.08.71.09,1.06,0,1,.05,1.93.07,2.89s.05,1.73.07,2.59,0,2,.07,3c0,1.67,0,3.34.07,5C15.88,25,15.89,25,15.89,25Z" /><path d="M8.4,23.21,6.64,21.09,5.19,21a12,12,0,0,1,.36-10.7,11.61,11.61,0,0,1,8.76-6.17l-.07.52a10.4,10.4,0,0,0-8.3,8.16,11,11,0,0,0-.18,3,9.25,9.25,0,0,0,.85,3.3,10.31,10.31,0,0,0,2,2.91s.11.11.1.16c0,.34-.11.67-.17,1Z" /><path d="M17.75,4.66l-.11-.47a11.89,11.89,0,0,1,9.84,14.74c-.34.23-.61.4-.85.59s-.72.62-1.1,1l-.6-.42a10.31,10.31,0,0,0,.34-9.52A10.21,10.21,0,0,0,17.75,4.66Z" /><path d="M17.37,1.07c-.16.64-.66,1.18-.24,1.79l-.3.24.34.31v.37l-.33.2.4.34v.24L16.92,5l.37.16,0,.35-.42.33.4.26v.34l-.39.12.28.41,0,0v.38l-.41.26.39.34-.07.33H14.79l0-.35.35-.22-.4-.4V7l.39-.27-.39-.27V6.09L15,5.87l-.37-.33.06-.36.38-.26-.39-.27V4.34L15.12,4l-.34-.2v-.4l.32-.24H15c0-.25-.05-.49,0-.74a1.05,1.05,0,0,0-.15-.77,3.49,3.49,0,0,1-.25-.54A11.49,11.49,0,0,1,17.37,1.07Z" /><path d="M25.63,21c-.13.71-.25,1.41-.39,2.12-.1.52-.21,1-.33,1.57a1,1,0,0,1-.18.42c-.52.51-1.06,1-1.66,1.59-.09-.44-.13-.79-.23-1.12a1.23,1.23,0,0,1,.15-1c.37-.71.73-1.42,1.08-2.14L25,20.6Z" /><path d="M9.14,22.12c1.43,1.09,1.92,2.75,2.87,4.2-.5.13-.94.25-1.38.35a.19.19,0,0,1-.15-.06l-1.34-1A3.54,3.54,0,0,0,8.81,23Z" /><path d="M6.62,21.28l2.13,2.78.15,1.57-.09,0a11.9,11.9,0,0,1-3.5-4.48Z" /><path d="M19.81,26.19A.8.8,0,0,1,20,26c.32-.18.67-.31,1-.51a2.29,2.29,0,0,0,.48-.5l1.92-2.3a.61.61,0,0,1,.31-.19c-.11.27-.2.56-.32.83s-.4.77-.58,1.17a1.27,1.27,0,0,0-.14.54c0,.47,0,.93,0,1.42l-.93.51-.44-.58-1.41-.1Z" /><path d="M27.42,19.2c0,.1.1.22.08.31a10.39,10.39,0,0,1-1.95,4.41h-.09c.13-1,.26-2.08.4-3.12a.43.43,0,0,1,.1-.28c.44-.46.89-.9,1.34-1.35Z" /><path d="M18.7,24.55a10.93,10.93,0,0,0,3.56-1.67c-.29,1.19-2,2.56-3.56,2.9Z" /><path d="M11.15,22.6l.22-.11s.07.05.09.08c.45.63.87,1.28,1.35,1.88a1.33,1.33,0,0,1,.26,1c0,.31-.07.61-.1.92l-.48.51Z" /><path d="M20.75,27.94l.72.12a8.11,8.11,0,0,1-1.67,2.46.76.76,0,0,1-.31-1,2.22,2.22,0,0,1,.89-1.19A2,2,0,0,0,20.75,27.94Z" /><path d="M11.53,29.89l-.8-.65-.3-1.7,1.34.39C12.07,29,12.22,28.9,11.53,29.89Z" /><path d="M15,29.21c0,.13-.06.26-.13.32-.57.5-1.16,1-1.75,1.47L13,31a2,2,0,0,1,.16-.61c.33-.51.69-1,1.05-1.5Z" /><path d="M24.11,29.22,23,28.35l.25-.62,1.12.63Z" /><path d="M14.4,23.79c.18.57.4,1.11,0,1.66l-.7-.47Z" /><path d="M17.39,25.46l.9.07-.62,1.11-.37-.17Z" /><path d="M7.09,29.14,7.51,29v.67l-.3.06Z" /><path d="M19.94,27.49h-.67l.53-.55Z" />
	</g>
	<g id="RAKSHASA" fill="#808080">
		<path d="M29.53,17.39v.16c-1.11.37-2.23.74-3.34,1.14a7,7,0,0,0-1,.54,5,5,0,0,0-1.44.36,26.17,26.17,0,0,0-2.41,1.77,2,2,0,0,0-.4.56c-.22.33-.42.67-.68,1.09l-.88-2.18c.19,1.13.41,2.26.67,3.37s.49,2,.74,3.05c.14.55.1.67-.35,1-.25.17-.52.32-.78.49L16.23,31h-.46a5.84,5.84,0,0,0-.48-.39c-1-.66-2.08-1.31-3.12-2a2.79,2.79,0,0,1-1.06-.83L12.67,21l-.09,0-.77,1.9a1.4,1.4,0,0,1-.61-.75A3.6,3.6,0,0,0,10,20.77a9.46,9.46,0,0,1-1.25-.9,2.84,2.84,0,0,0-1.56-.57c-.17,0-.35,0-.6,0,.05-.35-.19-.38-.45-.47-1.22-.4-2.43-.83-3.64-1.24v-.16l3.47-4.25c-.24-.37-.06-.64.16-.9.42-.52.82-1.06,1.27-1.55a1.51,1.51,0,0,0,.44-1.4s0-.1.07-.3l.42-.25A3,3,0,0,0,8,8.27a2.07,2.07,0,0,1-.51-1.55c0-1.91,0-3.81.05-5.72h.16l.64.66C10,3.34,11.7,5,13.35,6.71a1.25,1.25,0,0,0,1,.44c1.13,0,2.26,0,3.39,0a1.16,1.16,0,0,0,.95-.4c.69-.75,1.41-1.49,2.13-2.22C22,3.35,23.12,2.18,24.27,1h.16c0,.28,0,.56,0,.85,0,1.41,0,2.83,0,4.25,0,.92.09,1.86-.74,2.52.61.7.61.7.46,1.46l2.11,2.64-.22.37ZM8.11,14.46c-.47-.18-.89-.31-1.28-.49a.67.67,0,0,0-.88.24L5.27,15,3.49,17.18l.4.16c1,.26,2,.54,3,.76a.77.77,0,0,1,.63.49,13.34,13.34,0,0,1,1.3.53c.45.24.87.54,1.31.8.63.39,1.31.73,1.55,1.63A5.64,5.64,0,0,0,12,18.74l-.71-.15a1.15,1.15,0,0,0-.15.05l-.23.37c-.29-.09-.49-.14-.68-.21-1.38-.52-1.36-.52-1.6-2C8.47,16,8.27,15.24,8.11,14.46Zm17.62-.66-1.8.69-.75,3.78L21.32,19l-.51-.41-.68.15a6.84,6.84,0,0,0,.29,2.89,2.15,2.15,0,0,1,1.28-1.54,10.94,10.94,0,0,0,1.3-.82,2.88,2.88,0,0,1,1.59-.58.88.88,0,0,1,.77-.63c.93-.21,1.84-.47,2.75-.71a3.5,3.5,0,0,0,.46-.19ZM13.61,29.12,16,30.67l2.41-1.55c-.37-.87-.72-1.69-1.08-2.5,0,0-.13,0-.24,0l.09,1.24a7.79,7.79,0,0,1-2.41,0c.06-.34.12-.61.15-.88,0-.11-.08-.23-.12-.35l-.15,0Zm5.75-9.28h.09c0-.38,0-.75,0-1.12a.83.83,0,0,1,.68-.89c.39-.12.75-.34,1.15-.43.63-.14.8-.52.79-1.11a1.42,1.42,0,0,1,.63-1.4c.09-.06.09-.27.15-.48l-1.67.7a1.2,1.2,0,0,0-.45.27c-.73.89-1.44,1.79-2.15,2.68ZM9.17,14.43c.07.24.07.42.15.47a1.37,1.37,0,0,1,.62,1.24c0,1,.1,1,1,1.36.52.18,1,.39,1.57.59v1.75l.1,0,.79-1.81c-.68-.86-1.32-1.68-2-2.5a1.46,1.46,0,0,0-.46-.4C10.44,14.91,9.86,14.7,9.17,14.43ZM23.81,7.21l-.47-.27.57-3.1C23.4,4.47,23,5,22.53,5.54c-.07.07-.17.2-.15.26.17.45-.19.64-.41.9s-.26.36-.42.58a3.27,3.27,0,0,0,1.35.63ZM9.66,5.75,8.24,4l-.1,0,.53,2.88-.46.34,1,.71,1.19-.64C10.33,6.66,9.37,6.54,9.66,5.75Z" />
	</g>
  <g id="hidden" stroke="#fff" fill="none">
    <line class="cls-3" x1="1" y1="16" x2="12.67" y2="16"/>
    <circle cx="16" cy="16" r="0.83"/>
    <line class="cls-3" x1="19.33" y1="16" x2="31" y2="16"/>
  </g>
  <g id="visible" stroke="#fff" fill="none">
    <path class="cls-3" d="M31,16S25.17,8.88,16,8.88,1,16,1,16"/>
    <path class="cls-3" d="M31,16s-5.83,7.12-15,7.12S1,16,1,16"/>
    <circle class="cls-4" cx="16" cy="16" r="7.12"/>
    <circle cx="16" cy="16" r="0.83"/>
  </g>
  <g id="seen" stroke="#fff" fill="none">
    <line class="cls-3" x1="1" y1="16" x2="12.67" y2="16"/>
    <circle cx="16" cy="16" r="0.83"/>
    <line class="cls-3" x1="19.33" y1="16" x2="31" y2="16"/>
    <path class="cls-3" d="M31,16a30.94,30.94,0,0,0-15-3.56A30.94,30.94,0,0,0,1,16"/>
    <path class="cls-3" d="M31,16a30.94,30.94,0,0,1-15,3.56A30.94,30.94,0,0,1,1,16"/>
  </g>
</svg>