<svg xmlns="http://www.w3.org/2000/svg" class="svg-icon" width="100%" height="100%" viewBox="0 0 32 32" stroke-width="2" stroke="none" fill="#fff" stroke-linecap="round" stroke-linejoin="round">
	<defs>
		<style>
			g {
				display: none;
			}
			g:target {
				display: flex;
			}
		</style>
		<svg id="unk">
			<path class="cls-1" d="M13.89,22.83a8.49,8.49,0,0,1-.35-1.41,10.05,10.05,0,0,1-.15-1.71,5.42,5.42,0,0,1,.53-2.4,9.62,9.62,0,0,1,1.32-2A20.71,20.71,0,0,1,17,13.51c.62-.58,1.19-1.15,1.72-1.69A8.88,8.88,0,0,0,20,10.08a3.93,3.93,0,0,0,.53-2,3.6,3.6,0,0,0-.39-1.71,3.64,3.64,0,0,0-1.07-1.21,5.09,5.09,0,0,0-1.56-.73,7.56,7.56,0,0,0-1.88-.23A8.77,8.77,0,0,0,9.46,7.09v-5A14.39,14.39,0,0,1,16.84,0a11.51,11.51,0,0,1,3.31.46A8.29,8.29,0,0,1,22.88,1.8,6.39,6.39,0,0,1,24.73,4a6.69,6.69,0,0,1,.67,3.08,7.53,7.53,0,0,1-.56,3,11.08,11.08,0,0,1-1.42,2.4,14.26,14.26,0,0,1-1.85,1.94c-.65.56-1.27,1.12-1.84,1.69a9.82,9.82,0,0,0-1.42,1.75,3.73,3.73,0,0,0-.56,2A6,6,0,0,0,18,21.55a11,11,0,0,0,.48,1.28ZM16.36,32a3.16,3.16,0,0,1-2.19-.85,2.73,2.73,0,0,1,0-4.07,3.17,3.17,0,0,1,4.36,0,2.73,2.73,0,0,1,0,4.07A3.16,3.16,0,0,1,16.36,32Z"/>
		</svg>
		
		<svg id="reach" fill="#fff" xmlns="http://www.w3.org/2000/svg" viewBox="0 0 253.21 253.2"><path id="sm_dia" data-name="sm dia" d="M126.6,66.56l12,12-12,12-12-12Z"/><path d="M35.92,45.59q2.27-2.54,4.7-5a121.59,121.59,0,0,1,172,0q2.43,2.41,4.7,5l3.54-3.54a126.58,126.58,0,0,0-188.44,0Z"/><path d="M230.13,53.73v9a121.62,121.62,0,1,1-207.06,0v-9a126.6,126.6,0,1,0,207.06,0Z"/><path id="noble" d="M128.1,141.8l97-97v35l-67,66v23l-23,11v3l23,13v13l-30-17h-3l-30,17v-13l23-13v-3l-23-11v-23l-67-66v-35l97,97Z"/><path id="chevron" d="M125.1,135.67l-30-32v-13l31,31h1l31-31v13l-30,32Z"/><polygon opacity="0.5" points="76.61 86.25 126.26 36.63 176.26 86.61 179.79 83.07 126.26 29.56 73.07 82.72 76.61 86.25"/><polygon opacity="0.5" points="97.38 188.76 35.72 127.13 52.24 110.61 48.67 107.1 28.64 127.13 92.86 191.32 97.38 188.76"/><polygon opacity="0.5" points="200.63 110.96 217.51 127.83 156.29 189.02 160.81 191.57 224.58 127.83 204.19 107.45 200.63 110.96"/><polygon opacity="0.5" points="140.66 204.65 126.96 218.34 113.01 204.39 108.5 206.95 126.96 225.41 145.17 207.2 140.66 204.65"/><polygon opacity="0.5" points="126.96 233.89 103.08 210.02 98.57 212.57 126.96 240.96 155.1 212.83 150.59 210.27 126.96 233.89"/><polygon opacity="0.5" points="56.25 57.12 83.12 57.12 65.29 74.94 68.83 78.47 126.26 21.07 184.04 78.83 187.57 75.29 169.39 57.12 196.97 57.12 196.97 65.9 201.97 60.9 201.97 52.12 164.39 52.12 126.26 14 88.12 52.12 51.25 52.12 51.25 60.9 56.25 65.9 56.25 57.12"/><path opacity="0.5" d="M44.39,102.89l-3.56-3.5L13.07,127.13l38.17,38.15v37.56H90.09V197L20.14,127.13Zm11.85,67.39,27.58,27.56H56.24Z"/><path opacity="0.5" d="M212,99.74l-3.56,3.5,24.6,24.59-69.95,69.92v5.09H202V166l38.17-38.15ZM197,197.84H170.09L197,171Z"/></svg>

		<svg id="season2" version="1.1" xmlns="http://www.w3.org/2000/svg" xmlns:xlink="http://www.w3.org/1999/xlink" x="0px" y="0px"
			viewBox="0 0 24 24" xml:space="preserve">
					<path class="st0" d="M19.4,7c-0.1,0-0.1-0.1-0.2-0.1c-0.1,0.3-0.1,0.6-0.4,0.7c-0.5,0.1-0.7,0-1-0.2c-0.3,0.2-0.7,0.3-0.8,0.7
						c0,0-0.1,0-0.1,0.1c-0.4-1.1,0.5-2,0.8-2.7c0.9-0.6,0.9-3-0.2-3.6c-0.9,1-2.9,3.2-4.3,3.6v0.1c0.2,0.2,0.5,0.1,0.8,0.1
						c0,0,0,0.1,0.1,0.1c0,0.1,0,0.1-0.1,0.2c-0.4,0.1-1.9,0.4-2.1,0.3h-0.1V6.2C12,6,12.2,6,12.6,5.9V5.8c0,0-0.1-0.1-0.1-0.1
						c-0.2,0-0.5,0-0.7,0.1c-1.3,1.3-2.6,2.8-4.2,3.9c-0.9,0.6-2.3,1-2.9,1.9c0.7,1,2.6,1.1,4.2,1.2c0,0.1,0.1,0.1,0.1,0.2
						c-0.1,0.3-0.3,0.5-0.4,0.8c-0.4,0.3-1.9,0.5-2.5,0c-0.8,0.6-1.1,1.6-2.2,2c-0.1,0.3,0,0.2,0.1,0.6c-0.7,0.4-1.2,0.7-2.1,0.9
						c0,0.1,0,0.1-0.1,0.2c1,0.1,1.5,0.5,2.7,0.5c0,0,0,0.1,0.1,0.1c-0.1,0.9-0.7,1.6-1.2,2.1c0.4,0.3,1.1,0.2,1.6,0.1
						c0,0,0,0.1,0.1,0.1c-0.1,0.1-0.1,0.2-0.2,0.2C5,20.8,5,20.8,5.3,20.8c0.3,0.4,0,1-0.2,1.4C5,22.2,5,22.3,4.9,22.3v0.1
						c0.9-0.1,1.3-0.6,2.1-0.7c0,0.2,0.1,0.4,0.1,0.6v0.1c0.2-0.2,0.4-0.3,0.6-0.5h0.1c0.1,0.3,0,1.1,0,1.7h0.1c0.5-0.4,1.1-0.7,1.7-1
						c0,0,0.1,0,0.1,0.1c0,0.2,0,0.4,0.1,0.6c0,0,0.1,0,0.1,0.1c0.4-0.2,0.7-0.4,1.1-0.6c0.1-0.1,0.1-0.1,0.2-0.1h0.1
						c-0.1,0.2-0.2,0.2-0.3,0.3v0.2c0,0,0,0,0.1,0.1c0.4-0.1,0.7-0.4,0.9-0.8c0.2-0.2,0.4-0.3,0.6-0.5c0.2,0.5,0.2,1.2,0.1,1.8
						c0.9-0.3,1.1-1.3,1.9-1.6v0.7c0,0,0.1,0,0.1,0.1c0.5-0.9,0.5-2.3,0.9-3.4c0.3-0.6,0.5-1.2,0.8-1.7c0.1-0.5,0.2-3.1,0.2-3.4
						c-0.1-0.5-0.3-1.2-0.1-1.7c0.3-1,2.7-3.3,3.5-3.9V7.1C19.7,7.2,19.6,7.3,19.4,7z M17.5,2.4h0.2c0.1,0.4,0.1,0.8,0.2,1.2
						c-0.4-0.1-0.7-0.2-1.1-0.2c0,0-0.1,0-0.1-0.1C16.8,2.9,17.2,2.8,17.5,2.4z M13.2,6.5c0.1,0,0.2,0,0.4,0.1h0.1v0.2
						c-0.3,0.3-0.6,0.5-0.9,0.8H12C12.3,7.2,12.7,6.9,13.2,6.5z M10.3,8.1c0.6,0,1,0.1,1.5-0.3C12,7.9,11,8.6,10.9,8.7
						c-0.1,0-0.2,0-0.3-0.1L10.3,8.1L10.3,8.1z M8.3,10.6c-0.4-0.2-1.2,0.2-2,0.2c0,0,0-0.1-0.1-0.1c0.8-0.5,1.7-1.1,2.5-1.6
						c0.1,0,0.2,0,0.3,0.1c0.2,0.2,0.4,1.8,0.2,2.2v0.1C9,11.5,8.5,10.9,8.3,10.6z M15.4,18.7v0.2c-0.2-0.1-0.2-0.1-0.3-0.2
						c-0.4,0.3-1.2,2.2-1.4,2.8h-0.1l-0.2-0.7c0-0.1,0-0.1-0.1-0.2c-0.4,0.1-0.4,0.4-1,0.4c-0.1,0.4-0.2,0.6-0.5,0.7
						c-0.1-0.4-0.2-0.8-0.4-1.2v-0.1h-0.1c-0.1,0.2-0.2,0.4-0.2,0.6c-0.2-0.1-0.4-0.2-0.6-0.2c-0.4,0.3-0.8,0.5-1.2,0.8
						c-0.2-0.3-0.2-0.6-0.1-1.1H9.2c-0.3,0.2-0.3,0.4-0.7,0.6c0,0-0.1,0-0.1-0.1c0-0.3,0-0.6-0.1-0.9H8.3c-0.3,0.2-0.4,0.4-0.8,0.4
						c-0.1-0.9-0.5-0.9-0.6-1.7c-0.4,0-0.7,0.1-0.9-0.3c-0.3,0.1-0.5,0.2-0.8,0.4c0,0-0.1,0-0.1-0.1c0-0.3,0.9-1.9,1.3-2
						c0,0.3,0,0.3-0.1,0.6c0.5,0.1,0.4,0.1,0.4,0.6c0,0,0.1,0.1,0.1,0.1c0.3-0.1,0.6-0.2,0.9-0.2c0,0.4,0,0.7,0.1,1.1h0.1
						c0.1-0.1,0.2-0.2,0.2-0.3c0.1-0.1,0.2-0.1,0.2-0.2h0.1c0,0.3,0,0.6,0.1,0.9c0.1,0,0.2,0,0.2,0.1c0.2,0,0.3-0.1,0.6-0.2
						c-0.1,0.2-0.2,0.3-0.2,0.5v0.1c0.1,0,0.2,0,0.2,0.1c0.1-0.3,0.2-0.4,0.5-0.6L9.9,19c0.1,0.2,0.1,0.3,0.1,0.6c0,0,0.1,0,0.1,0.1
						c0.2-0.4,0.4-0.7,0.6-1.1c0.1,0,0.1-0.1,0.2-0.1c0.2,0.7,0.1,0.9,0.9,1.2c0.1-0.6,0.2-1.1,0.2-1.7c0,0,0.1-0.1,0.1-0.1
						c0.1,0.2,0.2,0.4,0.2,0.6c0,0,0.1,0,0.1,0.1c0.2-0.5,0.3-1,0.5-1.5c0.3,0.1,0.2,0.1,0.3,0.3c0,0,0.1,0,0.1,0.1
						c0.5-1.2,1-2.3,1.6-3.5c0.5,0.5,1,1.6,0.9,2.7C15.3,16.3,15.2,18.3,15.4,18.7z M14.7,13.1C14.4,13,14.4,13,14.1,13
						c-0.1,0.3-0.1,0.6-0.2,0.9c-0.1,0.2,0,0.1-0.2,0.2c-0.1-0.3-0.1-0.3-0.4-0.4c0,0.7-0.7,2-1.2,2.4H12c0-0.3-0.1-0.7-0.1-1
						c-0.2-0.1-0.2-0.1-0.6-0.1c0-0.4-0.1-0.7-0.1-1.1h-0.2c0,0.1-0.1,0.2-0.1,0.3c-0.2-0.1-0.2-0.4-0.3-0.7c0-0.1-0.1-0.1-0.1-0.2
						c-0.1,0.1-0.2,0.1-0.4,0.2c0-0.3,0-0.6-0.1-0.9c0.5-0.1,0.9-0.3,1.1-0.8c0,0,0.1,0,0.1-0.1h0.1c0.1,0.5,0,0.8,0.6,0.9
						c0-0.1,0.1-0.2,0.1-0.4c0.1,0,0.2-0.1,0.4-0.1c0,0.1,0.1,0.2,0.1,0.2l-0.2,0.5v0.1c0.5-0.2,0.5-0.6,0.9-0.8
						c0.1,0.1,0.2,0.2,0.3,0.4c0.2-0.4,0.5-0.7,0.8-1.1c0.1,0,0.1,0,0.2-0.1c0,0.2,0,0.4-0.1,0.6c0.4-0.1,2.7-1.4,3-1.7h0.2
						c0,0.1,0.1,0.1,0.1,0.2C16.8,11.6,15.3,11.7,14.7,13.1z M4,18.5H3.7C3.4,18.7,3.2,18.8,3,19c0,0.1-0.1,0.2-0.1,0.3h0.1
						c0.3-0.2,0.7-0.4,1-0.6C3.9,18.6,4,18.6,4,18.5z M11.6,23.7L11.6,23.7c0,0.1,0.1,0.1,0.1,0.1c0.2-0.2,0.3-0.4,0.2-0.6
						C11.9,23.4,11.8,23.5,11.6,23.7z"/>
			<path d="M1.8,11.8c0-5.6,4.5-10.1,10.1-10.1c1.5,0,2.9,0.3,4.2,0.9c0.1-0.1,0.2-0.3,0.4-0.4c-1.4-0.7-2.9-1-4.5-1
				C6,1.2,1.3,6,1.3,11.8c0,1.7,0.4,3.2,1.1,4.6c0.2-0.1,0.3-0.1,0.5-0.2C2.2,14.9,1.8,13.4,1.8,11.8z"/>
			<path d="M22.5,11.8c0-3.1-1.4-5.9-3.5-7.9c0,0.2,0,0.4-0.1,0.6C20.8,6.4,22,9,22,11.8c0,4.2-2.5,7.8-6.2,9.3
				c0,0.2-0.1,0.4-0.1,0.6C19.7,20.2,22.5,16.3,22.5,11.8z"/>
			<path d="M19.6,21.3c0.3,0-1.1-1.1-0.9-1.8c0.3-0.7-1.1,0.9-1.1,0.9S19.3,21.4,19.6,21.3z"/>
			<path d="M17.3,22.7c-0.2,0.2-2.2-0.8-1.3-1.4c0.6-0.4,1-0.7,0.7-0.4C16.4,21.3,17.5,22.5,17.3,22.7z"/>
			<path d="M19.8,18.5c0.4-0.3,1.7,1.4,2,1.2c0.3-0.2-1.4-1.9-1.2-2.2C20.8,17.1,19.4,18.8,19.8,18.5z"/>
			<path d="M22.8,16.6c0,0.2-1.1-0.8-1.3-0.6c-0.3,0.2,0.4-1.3,0.4-1.3S22.8,16.4,22.8,16.6z"/>
			<path d="M9.1,1.8c-0.7,0.4-2-0.9-2.3-0.9S8,2.4,7.6,2.4C7.3,2.4,9.9,1.4,9.1,1.8z"/>
			<path d="M6.3,3c-1,0-2.6-1.2-2.7-1.1C3.5,2.1,5,3.6,5,4L6.3,3z"/>
			<path d="M4,5C3.3,5.1,2.4,4,1.9,4.2s1.5,1.6,1.2,2C3,6.5,4.4,4.9,4,5z"/>
			<path d="M1,6.5c0.2,0,1,0.7,1.5,1L2.1,8.5C1.6,7.7,0.8,6.5,1,6.5z"/>
		</svg>
	</defs>
		<g id="default">
			<use href="#unk"/>
		</g>
		<g id="1">
			<use href="#reach"/>
		</g>
		<g id="2">
			<use href="#season2"/>
		</g>
		<g id="3">
			<use href="#unk"/>
		</g>
		<g id="4">
			<use href="#unk"/>
		</g>
</svg>