<svg xmlns="http://www.w3.org/2000/svg" class="svg-icon" width="100%" height="100%" viewBox="0 0 24 24" stroke-width="2" stroke="#fff" fill="none" stroke-linecap="round" stroke-linejoin="round">
	<defs>
		<style>
			g {
			display: none;
			}
			g:target {
			display: flex;
			}
		</style>
		<svg id="343-logo" viewBox="0 0 275 100" fill="currentColor" title="343 Industries"><path d="M42.6 99.8V74.2H48v25.6h-5.4zm26.1 0L58.2 80.4l.2 19.3h-5.3V74.2h6.6l10.1 18.3-.3-18.3h5.3v25.6h-6.1zm30.2-2.3c-1.1.9-2.4 1.6-3.6 1.9-1 .2-2.3.4-4 .4H79.8V74.2h11.3c3.9 0 6.9 1.1 8.8 3.2 1.9 2.1 2.9 5.5 2.9 10-.2 4.7-1.4 8-3.9 10.1zm-3.3-17.1c-.9-1.2-2.4-1.8-4.7-1.8h-6v16.6h6c2.3 0 3.9-.6 4.7-1.8s1.3-3.4 1.3-6.6c0-2.9-.4-5.1-1.3-6.4zm30.5 16.1c-1.9 2.4-5 3.5-9.3 3.5-4.3 0-7.4-1.1-9.3-3.5-.9-1.1-1.4-3.4-1.4-6.9V74.2h5.1v15.3c0 2.4.4 4 1.2 4.9.8 1 2.3 1.4 4.4 1.4 2.1 0 3.6-.5 4.4-1.4.8-1 1.2-2.6 1.2-4.9V74.2h5.1v15.5c0 3.4-.5 5.7-1.4 6.8zm10.4-14.4c0 1.9 1.1 2.8 3.3 2.8h6.9c2.8 0 4.8.6 6 1.6 1.2 1.1 1.9 2.9 1.9 5.6s-.7 4.6-2.1 5.9c-1.4 1.2-3.6 1.9-6.5 1.9h-13.8v-4.6H145c1.4 0 2.4-.2 3.1-.6.6-.4.9-1.1.9-2.2s-.3-1.9-.9-2.3c-.6-.4-1.5-.6-2.8-.6h-6.1c-2.9 0-4.9-.6-6.2-1.8-1.3-1.1-2-3-2-5.6 0-2.8.7-4.8 2.1-6 1.4-1.2 3.6-1.9 6.6-1.9h13.6v4.6h-12.8c-2.7-.1-4 1-4 3.2zm32.5-3.4v21.1h-5.4V78.7h-7.9v-4.5H177v4.4l-8 .1zm26.9 10.4l6.1 10.7h-5.9l-5.4-10.1h-6.1v10.1h-5.1V74.2h12.8c2.9 0 5.1.6 6.5 1.9 1.4 1.2 2.1 3.2 2.1 5.9 0 3.9-1.7 6.4-5 7.1zm-1.4-9.7c-.6-.4-1.8-.6-3.4-.6h-6.4v6.4h6.4c1.6 0 2.8-.2 3.5-.6.7-.4 1.1-1.3 1.1-2.6-.1-1.3-.5-2.1-1.2-2.6zm10.8 20.4V74.2h5.4v25.6h-5.4zm20.6-4.5h8.5v4.4h-8.7c-1.7 0-3-.1-4-.4-1.4-.4-2.6-.9-3.6-1.9-2.5-2.1-3.8-5.4-3.8-10.1 0-4.6.9-7.9 2.9-10 1.9-2.1 4.8-3.2 8.8-3.2h8.6v4.4H226c-3.7 0-5.6 2-5.9 5.9h14.3V89h-14.3c0 2.3.5 3.9 1.4 4.9.8 1 2.3 1.4 4.4 1.4zM243 82.1c0 1.9 1.1 2.8 3.3 2.8h6.9c2.8 0 4.8.6 6 1.6 1.2 1.1 1.9 2.9 1.9 5.6s-.7 4.6-2.1 5.9c-1.4 1.2-3.6 1.9-6.5 1.9h-13.8v-4.6h12.9c1.4 0 2.4-.2 3.1-.6.6-.4.9-1.1.9-2.2s-.3-1.9-.9-2.3c-.6-.4-1.5-.6-2.8-.6h-6.1c-2.9 0-4.9-.6-6.2-1.8-1.3-1.1-2-3-2-5.6 0-2.8.7-4.8 2.1-6 1.4-1.2 3.6-1.9 6.6-1.9h13.6v4.6H247c-2.7-.1-4 1-4 3.2zM63.7 35.3c8.6 3.4 12.8 8.9 12.8 16.6 0 6-2.6 10.6-7.6 13.8-5.1 3.3-12.3 4.9-21.7 4.9H0v-12h38.9c10.3 0 15.3-2.9 15.3-8.6s-5.1-8.6-15.3-8.6H7.5V29.2h30.9c10.3 0 15.3-2.9 15.3-8.5 0-5.7-5.1-8.6-15.3-8.6H0V0h45.3c20.8 0 31.1 6.3 31.1 18.8 0 6.5-4.2 12-12.7 16.5zM166 57.9v12.9h-19.8V57.9H85.4V44.2L140.9 0H166v45.8h12.8v12.1H166zm-19.9-42.8L108 45.8h38.1V15.1zm102.3 20.2c8.6 3.4 12.8 8.9 12.8 16.6 0 6-2.6 10.6-7.6 13.8-5.1 3.3-12.3 4.9-21.7 4.9h-47.3v-12h38.9c10.3 0 15.3-2.9 15.3-8.6s-5.1-8.6-15.3-8.6h-31.4V29.2H223c10.3 0 15.3-2.9 15.3-8.5 0-5.7-5.1-8.6-15.3-8.6h-38.4V0h45.3C250.7 0 261 6.3 261 18.8c.1 6.5-4.1 12-12.6 16.5zM265 75.2h-1.8v-.9h4.7v.9h-1.8v4.5h-1.2l.1-4.5zm3.5-1h1.7l1.4 4.1 1.4-4.1h1.6v5.4h-1.1l.1-4.2-1.4 4.2H271l-1.4-4.3.1 4.3h-1.1l-.1-5.4z"></path></svg>
	</defs>
	<g id="343">
		<use href="#343i"/>
	</g>
	<g id="2">
		<path stroke="none" d="M0 0h24v24H0z" fill="none"/>
		<polyline points="3 7 9 4 15 7 21 4 21 17 15 20 9 17 3 20 3 7" />
		<line x1="9" y1="4" x2="9" y2="17" />
		<line x1="15" y1="7" x2="15" y2="20" />
	</g>
</svg>